%TF.GenerationSoftware,KiCad,Pcbnew,(5.1.9)-1*%
%TF.CreationDate,2022-12-04T20:34:53-06:00*%
%TF.ProjectId,Battery_Charger_V1,42617474-6572-4795-9f43-686172676572,rev?*%
%TF.SameCoordinates,Original*%
%TF.FileFunction,Legend,Bot*%
%TF.FilePolarity,Positive*%
%FSLAX46Y46*%
G04 Gerber Fmt 4.6, Leading zero omitted, Abs format (unit mm)*
G04 Created by KiCad (PCBNEW (5.1.9)-1) date 2022-12-04 20:34:53*
%MOMM*%
%LPD*%
G01*
G04 APERTURE LIST*
%ADD10C,0.120000*%
%ADD11C,0.100000*%
G04 APERTURE END LIST*
D10*
%TO.C,C1*%
X115462267Y-96645000D02*
X115169733Y-96645000D01*
X115462267Y-97665000D02*
X115169733Y-97665000D01*
%TO.C,C2*%
X115335267Y-94994000D02*
X115042733Y-94994000D01*
X115335267Y-96014000D02*
X115042733Y-96014000D01*
%TO.C,C4*%
X115323252Y-105691000D02*
X114800748Y-105691000D01*
X115323252Y-107161000D02*
X114800748Y-107161000D01*
%TO.C,C8*%
X115323252Y-98325000D02*
X114800748Y-98325000D01*
X115323252Y-99795000D02*
X114800748Y-99795000D01*
%TO.C,C16*%
X154030000Y-121970748D02*
X154030000Y-123393252D01*
X155850000Y-121970748D02*
X155850000Y-123393252D01*
%TO.C,C20*%
X113842748Y-102399000D02*
X115265252Y-102399000D01*
X113842748Y-105119000D02*
X115265252Y-105119000D01*
%TO.C,C21*%
X118274000Y-103467248D02*
X118274000Y-104889752D01*
X120994000Y-103467248D02*
X120994000Y-104889752D01*
%TO.C,D3*%
X122920000Y-96860000D02*
X120920000Y-96860000D01*
X122920000Y-96860000D02*
X122920000Y-100060000D01*
X120920000Y-100060000D02*
X120920000Y-96860000D01*
%TO.C,D4*%
X123682000Y-103394000D02*
X123682000Y-106594000D01*
X121682000Y-106594000D02*
X121682000Y-103394000D01*
X121682000Y-106594000D02*
X123682000Y-106594000D01*
%TO.C,D5*%
X138294000Y-99846000D02*
X138294000Y-92296000D01*
X133994000Y-99846000D02*
X133994000Y-92296000D01*
X138294000Y-99846000D02*
X133994000Y-99846000D01*
%TO.C,D7*%
X138294000Y-112546000D02*
X133994000Y-112546000D01*
X133994000Y-112546000D02*
X133994000Y-104996000D01*
X138294000Y-112546000D02*
X138294000Y-104996000D01*
%TO.C,D9*%
X128018000Y-109022000D02*
X128018000Y-108092000D01*
X128018000Y-105862000D02*
X128018000Y-106792000D01*
X128018000Y-105862000D02*
X130178000Y-105862000D01*
X128018000Y-109022000D02*
X129478000Y-109022000D01*
%TO.C,R7*%
X131853000Y-107399064D02*
X131853000Y-106944936D01*
X133323000Y-107399064D02*
X133323000Y-106944936D01*
%TO.C,R16*%
X161390000Y-117374936D02*
X161390000Y-117829064D01*
X159920000Y-117374936D02*
X159920000Y-117829064D01*
%TO.C,R17*%
X176503064Y-96239000D02*
X176048936Y-96239000D01*
X176503064Y-94769000D02*
X176048936Y-94769000D01*
%TO.C,R18*%
X183668936Y-96239000D02*
X184123064Y-96239000D01*
X183668936Y-94769000D02*
X184123064Y-94769000D01*
%TO.C,R19*%
X112495000Y-98271064D02*
X112495000Y-97816936D01*
X111025000Y-98271064D02*
X111025000Y-97816936D01*
%TO.C,R28*%
X148309000Y-126026936D02*
X148309000Y-126481064D01*
X146839000Y-126026936D02*
X146839000Y-126481064D01*
%TO.C,R32*%
X119480000Y-99229936D02*
X119480000Y-99684064D01*
X118010000Y-99229936D02*
X118010000Y-99684064D01*
%TO.C,R33*%
X159920000Y-124629936D02*
X159920000Y-125084064D01*
X161390000Y-124629936D02*
X161390000Y-125084064D01*
%TO.C,R34*%
X114834936Y-101827000D02*
X115289064Y-101827000D01*
X114834936Y-100357000D02*
X115289064Y-100357000D01*
%TO.C,R35*%
X150595000Y-122147064D02*
X150595000Y-121692936D01*
X149125000Y-122147064D02*
X149125000Y-121692936D01*
%TO.C,R36*%
X158850000Y-122454936D02*
X158850000Y-122909064D01*
X157380000Y-122454936D02*
X157380000Y-122909064D01*
%TO.C,R3*%
X124405000Y-130032000D02*
X118165000Y-130032000D01*
X118165000Y-130032000D02*
X118165000Y-112792000D01*
X118165000Y-112792000D02*
X124405000Y-112792000D01*
X124405000Y-112792000D02*
X124405000Y-130032000D01*
X121285000Y-130132000D02*
X121285000Y-130032000D01*
X121285000Y-112692000D02*
X121285000Y-112792000D01*
%TO.C,R4*%
X116785000Y-130032000D02*
X110545000Y-130032000D01*
X110545000Y-130032000D02*
X110545000Y-112792000D01*
X110545000Y-112792000D02*
X116785000Y-112792000D01*
X116785000Y-112792000D02*
X116785000Y-130032000D01*
X113665000Y-130132000D02*
X113665000Y-130032000D01*
X113665000Y-112692000D02*
X113665000Y-112792000D01*
%TO.C,R5*%
X106045000Y-112692000D02*
X106045000Y-112792000D01*
X106045000Y-130132000D02*
X106045000Y-130032000D01*
X109165000Y-112792000D02*
X109165000Y-130032000D01*
X102925000Y-112792000D02*
X109165000Y-112792000D01*
X102925000Y-130032000D02*
X102925000Y-112792000D01*
X109165000Y-130032000D02*
X102925000Y-130032000D01*
%TO.C,R6*%
X93345000Y-112692000D02*
X93345000Y-112792000D01*
X93345000Y-130132000D02*
X93345000Y-130032000D01*
X96465000Y-112792000D02*
X96465000Y-130032000D01*
X90225000Y-112792000D02*
X96465000Y-112792000D01*
X90225000Y-130032000D02*
X90225000Y-112792000D01*
X96465000Y-130032000D02*
X90225000Y-130032000D01*
%TO.C,C1*%
D11*
X109873904Y-97516904D02*
X110331047Y-97516904D01*
X110102476Y-97516904D02*
X110102476Y-96716904D01*
X110178666Y-96831190D01*
X110254857Y-96907380D01*
X110331047Y-96945476D01*
X109378666Y-96716904D02*
X109302476Y-96716904D01*
X109226285Y-96755000D01*
X109188190Y-96793095D01*
X109150095Y-96869285D01*
X109112000Y-97021666D01*
X109112000Y-97212142D01*
X109150095Y-97364523D01*
X109188190Y-97440714D01*
X109226285Y-97478809D01*
X109302476Y-97516904D01*
X109378666Y-97516904D01*
X109454857Y-97478809D01*
X109492952Y-97440714D01*
X109531047Y-97364523D01*
X109569142Y-97212142D01*
X109569142Y-97021666D01*
X109531047Y-96869285D01*
X109492952Y-96793095D01*
X109454857Y-96755000D01*
X109378666Y-96716904D01*
X108159619Y-96983571D02*
X108159619Y-97516904D01*
X108159619Y-97059761D02*
X108121523Y-97021666D01*
X108045333Y-96983571D01*
X107931047Y-96983571D01*
X107854857Y-97021666D01*
X107816761Y-97097857D01*
X107816761Y-97516904D01*
X107169142Y-97097857D02*
X107435809Y-97097857D01*
X107435809Y-97516904D02*
X107435809Y-96716904D01*
X107054857Y-96716904D01*
%TO.C,C2*%
X112794904Y-95865904D02*
X113252047Y-95865904D01*
X113023476Y-95865904D02*
X113023476Y-95065904D01*
X113099666Y-95180190D01*
X113175857Y-95256380D01*
X113252047Y-95294476D01*
X112299666Y-95065904D02*
X112223476Y-95065904D01*
X112147285Y-95104000D01*
X112109190Y-95142095D01*
X112071095Y-95218285D01*
X112033000Y-95370666D01*
X112033000Y-95561142D01*
X112071095Y-95713523D01*
X112109190Y-95789714D01*
X112147285Y-95827809D01*
X112223476Y-95865904D01*
X112299666Y-95865904D01*
X112375857Y-95827809D01*
X112413952Y-95789714D01*
X112452047Y-95713523D01*
X112490142Y-95561142D01*
X112490142Y-95370666D01*
X112452047Y-95218285D01*
X112413952Y-95142095D01*
X112375857Y-95104000D01*
X112299666Y-95065904D01*
X111080619Y-95332571D02*
X111080619Y-95865904D01*
X111080619Y-95408761D02*
X111042523Y-95370666D01*
X110966333Y-95332571D01*
X110852047Y-95332571D01*
X110775857Y-95370666D01*
X110737761Y-95446857D01*
X110737761Y-95865904D01*
X110090142Y-95446857D02*
X110356809Y-95446857D01*
X110356809Y-95865904D02*
X110356809Y-95065904D01*
X109975857Y-95065904D01*
%TO.C,C4*%
X111956619Y-106787904D02*
X112413761Y-106787904D01*
X112185190Y-106787904D02*
X112185190Y-105987904D01*
X112261380Y-106102190D01*
X112337571Y-106178380D01*
X112413761Y-106216476D01*
X111461380Y-105987904D02*
X111385190Y-105987904D01*
X111309000Y-106026000D01*
X111270904Y-106064095D01*
X111232809Y-106140285D01*
X111194714Y-106292666D01*
X111194714Y-106483142D01*
X111232809Y-106635523D01*
X111270904Y-106711714D01*
X111309000Y-106749809D01*
X111385190Y-106787904D01*
X111461380Y-106787904D01*
X111537571Y-106749809D01*
X111575666Y-106711714D01*
X111613761Y-106635523D01*
X111651857Y-106483142D01*
X111651857Y-106292666D01*
X111613761Y-106140285D01*
X111575666Y-106064095D01*
X111537571Y-106026000D01*
X111461380Y-105987904D01*
X110699476Y-105987904D02*
X110623285Y-105987904D01*
X110547095Y-106026000D01*
X110509000Y-106064095D01*
X110470904Y-106140285D01*
X110432809Y-106292666D01*
X110432809Y-106483142D01*
X110470904Y-106635523D01*
X110509000Y-106711714D01*
X110547095Y-106749809D01*
X110623285Y-106787904D01*
X110699476Y-106787904D01*
X110775666Y-106749809D01*
X110813761Y-106711714D01*
X110851857Y-106635523D01*
X110889952Y-106483142D01*
X110889952Y-106292666D01*
X110851857Y-106140285D01*
X110813761Y-106064095D01*
X110775666Y-106026000D01*
X110699476Y-105987904D01*
X108870904Y-106254571D02*
X108870904Y-106787904D01*
X108870904Y-106330761D02*
X108832809Y-106292666D01*
X108756619Y-106254571D01*
X108642333Y-106254571D01*
X108566142Y-106292666D01*
X108528047Y-106368857D01*
X108528047Y-106787904D01*
X107880428Y-106368857D02*
X108147095Y-106368857D01*
X108147095Y-106787904D02*
X108147095Y-105987904D01*
X107766142Y-105987904D01*
%TO.C,C8*%
X109931095Y-99421904D02*
X110388238Y-99421904D01*
X110159666Y-99421904D02*
X110159666Y-98621904D01*
X110235857Y-98736190D01*
X110312047Y-98812380D01*
X110388238Y-98850476D01*
X108978714Y-98888571D02*
X108978714Y-99688571D01*
X108597761Y-99307619D02*
X108559666Y-99383809D01*
X108483476Y-99421904D01*
X108978714Y-99307619D02*
X108940619Y-99383809D01*
X108864428Y-99421904D01*
X108712047Y-99421904D01*
X108635857Y-99383809D01*
X108597761Y-99307619D01*
X108597761Y-98888571D01*
X107873952Y-99002857D02*
X108140619Y-99002857D01*
X108140619Y-99421904D02*
X108140619Y-98621904D01*
X107759666Y-98621904D01*
%TO.C,C16*%
X154578095Y-115989333D02*
X154540000Y-116027428D01*
X154501904Y-116103619D01*
X154501904Y-116294095D01*
X154540000Y-116370285D01*
X154578095Y-116408380D01*
X154654285Y-116446476D01*
X154730476Y-116446476D01*
X154844761Y-116408380D01*
X155301904Y-115951238D01*
X155301904Y-116446476D01*
X155225714Y-116789333D02*
X155263809Y-116827428D01*
X155301904Y-116789333D01*
X155263809Y-116751238D01*
X155225714Y-116789333D01*
X155301904Y-116789333D01*
X154578095Y-117132190D02*
X154540000Y-117170285D01*
X154501904Y-117246476D01*
X154501904Y-117436952D01*
X154540000Y-117513142D01*
X154578095Y-117551238D01*
X154654285Y-117589333D01*
X154730476Y-117589333D01*
X154844761Y-117551238D01*
X155301904Y-117094095D01*
X155301904Y-117589333D01*
X154768571Y-118541714D02*
X155568571Y-118541714D01*
X155187619Y-118922666D02*
X155263809Y-118960761D01*
X155301904Y-119036952D01*
X155187619Y-118541714D02*
X155263809Y-118579809D01*
X155301904Y-118656000D01*
X155301904Y-118808380D01*
X155263809Y-118884571D01*
X155187619Y-118922666D01*
X154768571Y-118922666D01*
X154882857Y-119646476D02*
X154882857Y-119379809D01*
X155301904Y-119379809D02*
X154501904Y-119379809D01*
X154501904Y-119760761D01*
%TO.C,C20*%
X111455047Y-104120904D02*
X111912190Y-104120904D01*
X111683619Y-104120904D02*
X111683619Y-103320904D01*
X111759809Y-103435190D01*
X111836000Y-103511380D01*
X111912190Y-103549476D01*
X110959809Y-103320904D02*
X110883619Y-103320904D01*
X110807428Y-103359000D01*
X110769333Y-103397095D01*
X110731238Y-103473285D01*
X110693142Y-103625666D01*
X110693142Y-103816142D01*
X110731238Y-103968523D01*
X110769333Y-104044714D01*
X110807428Y-104082809D01*
X110883619Y-104120904D01*
X110959809Y-104120904D01*
X111036000Y-104082809D01*
X111074095Y-104044714D01*
X111112190Y-103968523D01*
X111150285Y-103816142D01*
X111150285Y-103625666D01*
X111112190Y-103473285D01*
X111074095Y-103397095D01*
X111036000Y-103359000D01*
X110959809Y-103320904D01*
X109740761Y-103587571D02*
X109740761Y-104387571D01*
X109359809Y-104006619D02*
X109321714Y-104082809D01*
X109245523Y-104120904D01*
X109740761Y-104006619D02*
X109702666Y-104082809D01*
X109626476Y-104120904D01*
X109474095Y-104120904D01*
X109397904Y-104082809D01*
X109359809Y-104006619D01*
X109359809Y-103587571D01*
X108636000Y-103701857D02*
X108902666Y-103701857D01*
X108902666Y-104120904D02*
X108902666Y-103320904D01*
X108521714Y-103320904D01*
%TO.C,C21*%
X120853047Y-107715404D02*
X121310190Y-107715404D01*
X121081619Y-107715404D02*
X121081619Y-106915404D01*
X121157809Y-107029690D01*
X121234000Y-107105880D01*
X121310190Y-107143976D01*
X120357809Y-106915404D02*
X120281619Y-106915404D01*
X120205428Y-106953500D01*
X120167333Y-106991595D01*
X120129238Y-107067785D01*
X120091142Y-107220166D01*
X120091142Y-107410642D01*
X120129238Y-107563023D01*
X120167333Y-107639214D01*
X120205428Y-107677309D01*
X120281619Y-107715404D01*
X120357809Y-107715404D01*
X120434000Y-107677309D01*
X120472095Y-107639214D01*
X120510190Y-107563023D01*
X120548285Y-107410642D01*
X120548285Y-107220166D01*
X120510190Y-107067785D01*
X120472095Y-106991595D01*
X120434000Y-106953500D01*
X120357809Y-106915404D01*
X119138761Y-107182071D02*
X119138761Y-107982071D01*
X118757809Y-107601119D02*
X118719714Y-107677309D01*
X118643523Y-107715404D01*
X119138761Y-107601119D02*
X119100666Y-107677309D01*
X119024476Y-107715404D01*
X118872095Y-107715404D01*
X118795904Y-107677309D01*
X118757809Y-107601119D01*
X118757809Y-107182071D01*
X118034000Y-107296357D02*
X118300666Y-107296357D01*
X118300666Y-107715404D02*
X118300666Y-106915404D01*
X117919714Y-106915404D01*
%TO.C,D3*%
X127876000Y-102088904D02*
X127876000Y-101288904D01*
X127685523Y-101288904D01*
X127571238Y-101327000D01*
X127495047Y-101403190D01*
X127456952Y-101479380D01*
X127418857Y-101631761D01*
X127418857Y-101746047D01*
X127456952Y-101898428D01*
X127495047Y-101974619D01*
X127571238Y-102050809D01*
X127685523Y-102088904D01*
X127876000Y-102088904D01*
X126809333Y-101669857D02*
X127076000Y-101669857D01*
X127076000Y-102088904D02*
X127076000Y-101288904D01*
X126695047Y-101288904D01*
X126009333Y-102088904D02*
X126390285Y-102088904D01*
X126390285Y-101288904D01*
X125780761Y-102050809D02*
X125666476Y-102088904D01*
X125476000Y-102088904D01*
X125399809Y-102050809D01*
X125361714Y-102012714D01*
X125323619Y-101936523D01*
X125323619Y-101860333D01*
X125361714Y-101784142D01*
X125399809Y-101746047D01*
X125476000Y-101707952D01*
X125628380Y-101669857D01*
X125704571Y-101631761D01*
X125742666Y-101593666D01*
X125780761Y-101517476D01*
X125780761Y-101441285D01*
X125742666Y-101365095D01*
X125704571Y-101327000D01*
X125628380Y-101288904D01*
X125437904Y-101288904D01*
X125323619Y-101327000D01*
X124561714Y-102088904D02*
X125018857Y-102088904D01*
X124790285Y-102088904D02*
X124790285Y-101288904D01*
X124866476Y-101403190D01*
X124942666Y-101479380D01*
X125018857Y-101517476D01*
X123876000Y-101288904D02*
X124028380Y-101288904D01*
X124104571Y-101327000D01*
X124142666Y-101365095D01*
X124218857Y-101479380D01*
X124256952Y-101631761D01*
X124256952Y-101936523D01*
X124218857Y-102012714D01*
X124180761Y-102050809D01*
X124104571Y-102088904D01*
X123952190Y-102088904D01*
X123876000Y-102050809D01*
X123837904Y-102012714D01*
X123799809Y-101936523D01*
X123799809Y-101746047D01*
X123837904Y-101669857D01*
X123876000Y-101631761D01*
X123952190Y-101593666D01*
X124104571Y-101593666D01*
X124180761Y-101631761D01*
X124218857Y-101669857D01*
X124256952Y-101746047D01*
X123304571Y-101288904D02*
X123228380Y-101288904D01*
X123152190Y-101327000D01*
X123114095Y-101365095D01*
X123076000Y-101441285D01*
X123037904Y-101593666D01*
X123037904Y-101784142D01*
X123076000Y-101936523D01*
X123114095Y-102012714D01*
X123152190Y-102050809D01*
X123228380Y-102088904D01*
X123304571Y-102088904D01*
X123380761Y-102050809D01*
X123418857Y-102012714D01*
X123456952Y-101936523D01*
X123495047Y-101784142D01*
X123495047Y-101593666D01*
X123456952Y-101441285D01*
X123418857Y-101365095D01*
X123380761Y-101327000D01*
X123304571Y-101288904D01*
%TO.C,D4*%
X127876000Y-102088904D02*
X127876000Y-101288904D01*
X127685523Y-101288904D01*
X127571238Y-101327000D01*
X127495047Y-101403190D01*
X127456952Y-101479380D01*
X127418857Y-101631761D01*
X127418857Y-101746047D01*
X127456952Y-101898428D01*
X127495047Y-101974619D01*
X127571238Y-102050809D01*
X127685523Y-102088904D01*
X127876000Y-102088904D01*
X126809333Y-101669857D02*
X127076000Y-101669857D01*
X127076000Y-102088904D02*
X127076000Y-101288904D01*
X126695047Y-101288904D01*
X126009333Y-102088904D02*
X126390285Y-102088904D01*
X126390285Y-101288904D01*
X125780761Y-102050809D02*
X125666476Y-102088904D01*
X125476000Y-102088904D01*
X125399809Y-102050809D01*
X125361714Y-102012714D01*
X125323619Y-101936523D01*
X125323619Y-101860333D01*
X125361714Y-101784142D01*
X125399809Y-101746047D01*
X125476000Y-101707952D01*
X125628380Y-101669857D01*
X125704571Y-101631761D01*
X125742666Y-101593666D01*
X125780761Y-101517476D01*
X125780761Y-101441285D01*
X125742666Y-101365095D01*
X125704571Y-101327000D01*
X125628380Y-101288904D01*
X125437904Y-101288904D01*
X125323619Y-101327000D01*
X124561714Y-102088904D02*
X125018857Y-102088904D01*
X124790285Y-102088904D02*
X124790285Y-101288904D01*
X124866476Y-101403190D01*
X124942666Y-101479380D01*
X125018857Y-101517476D01*
X123876000Y-101288904D02*
X124028380Y-101288904D01*
X124104571Y-101327000D01*
X124142666Y-101365095D01*
X124218857Y-101479380D01*
X124256952Y-101631761D01*
X124256952Y-101936523D01*
X124218857Y-102012714D01*
X124180761Y-102050809D01*
X124104571Y-102088904D01*
X123952190Y-102088904D01*
X123876000Y-102050809D01*
X123837904Y-102012714D01*
X123799809Y-101936523D01*
X123799809Y-101746047D01*
X123837904Y-101669857D01*
X123876000Y-101631761D01*
X123952190Y-101593666D01*
X124104571Y-101593666D01*
X124180761Y-101631761D01*
X124218857Y-101669857D01*
X124256952Y-101746047D01*
X123304571Y-101288904D02*
X123228380Y-101288904D01*
X123152190Y-101327000D01*
X123114095Y-101365095D01*
X123076000Y-101441285D01*
X123037904Y-101593666D01*
X123037904Y-101784142D01*
X123076000Y-101936523D01*
X123114095Y-102012714D01*
X123152190Y-102050809D01*
X123228380Y-102088904D01*
X123304571Y-102088904D01*
X123380761Y-102050809D01*
X123418857Y-102012714D01*
X123456952Y-101936523D01*
X123495047Y-101784142D01*
X123495047Y-101593666D01*
X123456952Y-101441285D01*
X123418857Y-101365095D01*
X123380761Y-101327000D01*
X123304571Y-101288904D01*
%TO.C,D5*%
X137572571Y-89350857D02*
X137458285Y-89388952D01*
X137420190Y-89427047D01*
X137382095Y-89503238D01*
X137382095Y-89617523D01*
X137420190Y-89693714D01*
X137458285Y-89731809D01*
X137534476Y-89769904D01*
X137839238Y-89769904D01*
X137839238Y-88969904D01*
X137572571Y-88969904D01*
X137496380Y-89008000D01*
X137458285Y-89046095D01*
X137420190Y-89122285D01*
X137420190Y-89198476D01*
X137458285Y-89274666D01*
X137496380Y-89312761D01*
X137572571Y-89350857D01*
X137839238Y-89350857D01*
X137077333Y-89046095D02*
X137039238Y-89008000D01*
X136963047Y-88969904D01*
X136772571Y-88969904D01*
X136696380Y-89008000D01*
X136658285Y-89046095D01*
X136620190Y-89122285D01*
X136620190Y-89198476D01*
X136658285Y-89312761D01*
X137115428Y-89769904D01*
X136620190Y-89769904D01*
X135934476Y-89236571D02*
X135934476Y-89769904D01*
X136124952Y-88931809D02*
X136315428Y-89503238D01*
X135820190Y-89503238D01*
X135363047Y-88969904D02*
X135286857Y-88969904D01*
X135210666Y-89008000D01*
X135172571Y-89046095D01*
X135134476Y-89122285D01*
X135096380Y-89274666D01*
X135096380Y-89465142D01*
X135134476Y-89617523D01*
X135172571Y-89693714D01*
X135210666Y-89731809D01*
X135286857Y-89769904D01*
X135363047Y-89769904D01*
X135439238Y-89731809D01*
X135477333Y-89693714D01*
X135515428Y-89617523D01*
X135553523Y-89465142D01*
X135553523Y-89274666D01*
X135515428Y-89122285D01*
X135477333Y-89046095D01*
X135439238Y-89008000D01*
X135363047Y-88969904D01*
X134791619Y-89541333D02*
X134410666Y-89541333D01*
X134867809Y-89769904D02*
X134601142Y-88969904D01*
X134334476Y-89769904D01*
%TO.C,D7*%
X137572571Y-101796857D02*
X137458285Y-101834952D01*
X137420190Y-101873047D01*
X137382095Y-101949238D01*
X137382095Y-102063523D01*
X137420190Y-102139714D01*
X137458285Y-102177809D01*
X137534476Y-102215904D01*
X137839238Y-102215904D01*
X137839238Y-101415904D01*
X137572571Y-101415904D01*
X137496380Y-101454000D01*
X137458285Y-101492095D01*
X137420190Y-101568285D01*
X137420190Y-101644476D01*
X137458285Y-101720666D01*
X137496380Y-101758761D01*
X137572571Y-101796857D01*
X137839238Y-101796857D01*
X137077333Y-101492095D02*
X137039238Y-101454000D01*
X136963047Y-101415904D01*
X136772571Y-101415904D01*
X136696380Y-101454000D01*
X136658285Y-101492095D01*
X136620190Y-101568285D01*
X136620190Y-101644476D01*
X136658285Y-101758761D01*
X137115428Y-102215904D01*
X136620190Y-102215904D01*
X135934476Y-101682571D02*
X135934476Y-102215904D01*
X136124952Y-101377809D02*
X136315428Y-101949238D01*
X135820190Y-101949238D01*
X135363047Y-101415904D02*
X135286857Y-101415904D01*
X135210666Y-101454000D01*
X135172571Y-101492095D01*
X135134476Y-101568285D01*
X135096380Y-101720666D01*
X135096380Y-101911142D01*
X135134476Y-102063523D01*
X135172571Y-102139714D01*
X135210666Y-102177809D01*
X135286857Y-102215904D01*
X135363047Y-102215904D01*
X135439238Y-102177809D01*
X135477333Y-102139714D01*
X135515428Y-102063523D01*
X135553523Y-101911142D01*
X135553523Y-101720666D01*
X135515428Y-101568285D01*
X135477333Y-101492095D01*
X135439238Y-101454000D01*
X135363047Y-101415904D01*
X134791619Y-101987333D02*
X134410666Y-101987333D01*
X134867809Y-102215904D02*
X134601142Y-101415904D01*
X134334476Y-102215904D01*
%TO.C,D9*%
X131501809Y-109924857D02*
X131387523Y-109962952D01*
X131349428Y-110001047D01*
X131311333Y-110077238D01*
X131311333Y-110191523D01*
X131349428Y-110267714D01*
X131387523Y-110305809D01*
X131463714Y-110343904D01*
X131768476Y-110343904D01*
X131768476Y-109543904D01*
X131501809Y-109543904D01*
X131425619Y-109582000D01*
X131387523Y-109620095D01*
X131349428Y-109696285D01*
X131349428Y-109772476D01*
X131387523Y-109848666D01*
X131425619Y-109886761D01*
X131501809Y-109924857D01*
X131768476Y-109924857D01*
X131006571Y-110115333D02*
X130625619Y-110115333D01*
X131082761Y-110343904D02*
X130816095Y-109543904D01*
X130549428Y-110343904D01*
X130397047Y-109543904D02*
X130130380Y-110343904D01*
X129863714Y-109543904D01*
X129558952Y-110343904D02*
X129406571Y-110343904D01*
X129330380Y-110305809D01*
X129292285Y-110267714D01*
X129216095Y-110153428D01*
X129178000Y-110001047D01*
X129178000Y-109696285D01*
X129216095Y-109620095D01*
X129254190Y-109582000D01*
X129330380Y-109543904D01*
X129482761Y-109543904D01*
X129558952Y-109582000D01*
X129597047Y-109620095D01*
X129635142Y-109696285D01*
X129635142Y-109886761D01*
X129597047Y-109962952D01*
X129558952Y-110001047D01*
X129482761Y-110039142D01*
X129330380Y-110039142D01*
X129254190Y-110001047D01*
X129216095Y-109962952D01*
X129178000Y-109886761D01*
X128797047Y-110343904D02*
X128644666Y-110343904D01*
X128568476Y-110305809D01*
X128530380Y-110267714D01*
X128454190Y-110153428D01*
X128416095Y-110001047D01*
X128416095Y-109696285D01*
X128454190Y-109620095D01*
X128492285Y-109582000D01*
X128568476Y-109543904D01*
X128720857Y-109543904D01*
X128797047Y-109582000D01*
X128835142Y-109620095D01*
X128873238Y-109696285D01*
X128873238Y-109886761D01*
X128835142Y-109962952D01*
X128797047Y-110001047D01*
X128720857Y-110039142D01*
X128568476Y-110039142D01*
X128492285Y-110001047D01*
X128454190Y-109962952D01*
X128416095Y-109886761D01*
X128035142Y-110305809D02*
X128035142Y-110343904D01*
X128073238Y-110420095D01*
X128111333Y-110458190D01*
X127730380Y-109620095D02*
X127692285Y-109582000D01*
X127616095Y-109543904D01*
X127425619Y-109543904D01*
X127349428Y-109582000D01*
X127311333Y-109620095D01*
X127273238Y-109696285D01*
X127273238Y-109772476D01*
X127311333Y-109886761D01*
X127768476Y-110343904D01*
X127273238Y-110343904D01*
X127006571Y-109543904D02*
X126511333Y-109543904D01*
X126778000Y-109848666D01*
X126663714Y-109848666D01*
X126587523Y-109886761D01*
X126549428Y-109924857D01*
X126511333Y-110001047D01*
X126511333Y-110191523D01*
X126549428Y-110267714D01*
X126587523Y-110305809D01*
X126663714Y-110343904D01*
X126892285Y-110343904D01*
X126968476Y-110305809D01*
X127006571Y-110267714D01*
X125787523Y-109543904D02*
X126168476Y-109543904D01*
X126206571Y-109924857D01*
X126168476Y-109886761D01*
X126092285Y-109848666D01*
X125901809Y-109848666D01*
X125825619Y-109886761D01*
X125787523Y-109924857D01*
X125749428Y-110001047D01*
X125749428Y-110191523D01*
X125787523Y-110267714D01*
X125825619Y-110305809D01*
X125901809Y-110343904D01*
X126092285Y-110343904D01*
X126168476Y-110305809D01*
X126206571Y-110267714D01*
%TO.C,R7*%
X136778857Y-106749904D02*
X137159809Y-106749904D01*
X137197904Y-107130857D01*
X137159809Y-107092761D01*
X137083619Y-107054666D01*
X136893142Y-107054666D01*
X136816952Y-107092761D01*
X136778857Y-107130857D01*
X136740761Y-107207047D01*
X136740761Y-107397523D01*
X136778857Y-107473714D01*
X136816952Y-107511809D01*
X136893142Y-107549904D01*
X137083619Y-107549904D01*
X137159809Y-107511809D01*
X137197904Y-107473714D01*
X136397904Y-107473714D02*
X136359809Y-107511809D01*
X136397904Y-107549904D01*
X136436000Y-107511809D01*
X136397904Y-107473714D01*
X136397904Y-107549904D01*
X135674095Y-106749904D02*
X135826476Y-106749904D01*
X135902666Y-106788000D01*
X135940761Y-106826095D01*
X136016952Y-106940380D01*
X136055047Y-107092761D01*
X136055047Y-107397523D01*
X136016952Y-107473714D01*
X135978857Y-107511809D01*
X135902666Y-107549904D01*
X135750285Y-107549904D01*
X135674095Y-107511809D01*
X135636000Y-107473714D01*
X135597904Y-107397523D01*
X135597904Y-107207047D01*
X135636000Y-107130857D01*
X135674095Y-107092761D01*
X135750285Y-107054666D01*
X135902666Y-107054666D01*
X135978857Y-107092761D01*
X136016952Y-107130857D01*
X136055047Y-107207047D01*
X134683619Y-107549904D02*
X134493142Y-107549904D01*
X134493142Y-107397523D01*
X134569333Y-107359428D01*
X134645523Y-107283238D01*
X134683619Y-107168952D01*
X134683619Y-106978476D01*
X134645523Y-106864190D01*
X134569333Y-106788000D01*
X134455047Y-106749904D01*
X134302666Y-106749904D01*
X134188380Y-106788000D01*
X134112190Y-106864190D01*
X134074095Y-106978476D01*
X134074095Y-107168952D01*
X134112190Y-107283238D01*
X134188380Y-107359428D01*
X134264571Y-107397523D01*
X134264571Y-107549904D01*
X134074095Y-107549904D01*
%TO.C,R16*%
X165715714Y-117240095D02*
X165677619Y-117202000D01*
X165601428Y-117163904D01*
X165410952Y-117163904D01*
X165334761Y-117202000D01*
X165296666Y-117240095D01*
X165258571Y-117316285D01*
X165258571Y-117392476D01*
X165296666Y-117506761D01*
X165753809Y-117963904D01*
X165258571Y-117963904D01*
X164915714Y-117887714D02*
X164877619Y-117925809D01*
X164915714Y-117963904D01*
X164953809Y-117925809D01*
X164915714Y-117887714D01*
X164915714Y-117963904D01*
X164610952Y-117163904D02*
X164077619Y-117163904D01*
X164420476Y-117963904D01*
X163163333Y-117963904D02*
X163163333Y-117163904D01*
X163087142Y-117659142D02*
X162858571Y-117963904D01*
X162858571Y-117430571D02*
X163163333Y-117735333D01*
X162553809Y-117963904D02*
X162363333Y-117963904D01*
X162363333Y-117811523D01*
X162439523Y-117773428D01*
X162515714Y-117697238D01*
X162553809Y-117582952D01*
X162553809Y-117392476D01*
X162515714Y-117278190D01*
X162439523Y-117202000D01*
X162325238Y-117163904D01*
X162172857Y-117163904D01*
X162058571Y-117202000D01*
X161982380Y-117278190D01*
X161944285Y-117392476D01*
X161944285Y-117582952D01*
X161982380Y-117697238D01*
X162058571Y-117773428D01*
X162134761Y-117811523D01*
X162134761Y-117963904D01*
X161944285Y-117963904D01*
%TO.C,R17*%
X177514095Y-94341904D02*
X177971238Y-94341904D01*
X177742666Y-94341904D02*
X177742666Y-93541904D01*
X177818857Y-93656190D01*
X177895047Y-93732380D01*
X177971238Y-93770476D01*
X177018857Y-93541904D02*
X176942666Y-93541904D01*
X176866476Y-93580000D01*
X176828380Y-93618095D01*
X176790285Y-93694285D01*
X176752190Y-93846666D01*
X176752190Y-94037142D01*
X176790285Y-94189523D01*
X176828380Y-94265714D01*
X176866476Y-94303809D01*
X176942666Y-94341904D01*
X177018857Y-94341904D01*
X177095047Y-94303809D01*
X177133142Y-94265714D01*
X177171238Y-94189523D01*
X177209333Y-94037142D01*
X177209333Y-93846666D01*
X177171238Y-93694285D01*
X177133142Y-93618095D01*
X177095047Y-93580000D01*
X177018857Y-93541904D01*
X175799809Y-94341904D02*
X175799809Y-93541904D01*
X175723619Y-94037142D02*
X175495047Y-94341904D01*
X175495047Y-93808571D02*
X175799809Y-94113333D01*
X175190285Y-94341904D02*
X174999809Y-94341904D01*
X174999809Y-94189523D01*
X175076000Y-94151428D01*
X175152190Y-94075238D01*
X175190285Y-93960952D01*
X175190285Y-93770476D01*
X175152190Y-93656190D01*
X175076000Y-93580000D01*
X174961714Y-93541904D01*
X174809333Y-93541904D01*
X174695047Y-93580000D01*
X174618857Y-93656190D01*
X174580761Y-93770476D01*
X174580761Y-93960952D01*
X174618857Y-94075238D01*
X174695047Y-94151428D01*
X174771238Y-94189523D01*
X174771238Y-94341904D01*
X174580761Y-94341904D01*
%TO.C,R18*%
X184410285Y-95738904D02*
X184676952Y-95357952D01*
X184867428Y-95738904D02*
X184867428Y-94938904D01*
X184562666Y-94938904D01*
X184486476Y-94977000D01*
X184448380Y-95015095D01*
X184410285Y-95091285D01*
X184410285Y-95205571D01*
X184448380Y-95281761D01*
X184486476Y-95319857D01*
X184562666Y-95357952D01*
X184867428Y-95357952D01*
X183648380Y-95738904D02*
X184105523Y-95738904D01*
X183876952Y-95738904D02*
X183876952Y-94938904D01*
X183953142Y-95053190D01*
X184029333Y-95129380D01*
X184105523Y-95167476D01*
X183191238Y-95281761D02*
X183267428Y-95243666D01*
X183305523Y-95205571D01*
X183343619Y-95129380D01*
X183343619Y-95091285D01*
X183305523Y-95015095D01*
X183267428Y-94977000D01*
X183191238Y-94938904D01*
X183038857Y-94938904D01*
X182962666Y-94977000D01*
X182924571Y-95015095D01*
X182886476Y-95091285D01*
X182886476Y-95129380D01*
X182924571Y-95205571D01*
X182962666Y-95243666D01*
X183038857Y-95281761D01*
X183191238Y-95281761D01*
X183267428Y-95319857D01*
X183305523Y-95357952D01*
X183343619Y-95434142D01*
X183343619Y-95586523D01*
X183305523Y-95662714D01*
X183267428Y-95700809D01*
X183191238Y-95738904D01*
X183038857Y-95738904D01*
X182962666Y-95700809D01*
X182924571Y-95662714D01*
X182886476Y-95586523D01*
X182886476Y-95434142D01*
X182924571Y-95357952D01*
X182962666Y-95319857D01*
X183038857Y-95281761D01*
X185134095Y-94341904D02*
X185591238Y-94341904D01*
X185362666Y-94341904D02*
X185362666Y-93541904D01*
X185438857Y-93656190D01*
X185515047Y-93732380D01*
X185591238Y-93770476D01*
X184638857Y-93541904D02*
X184562666Y-93541904D01*
X184486476Y-93580000D01*
X184448380Y-93618095D01*
X184410285Y-93694285D01*
X184372190Y-93846666D01*
X184372190Y-94037142D01*
X184410285Y-94189523D01*
X184448380Y-94265714D01*
X184486476Y-94303809D01*
X184562666Y-94341904D01*
X184638857Y-94341904D01*
X184715047Y-94303809D01*
X184753142Y-94265714D01*
X184791238Y-94189523D01*
X184829333Y-94037142D01*
X184829333Y-93846666D01*
X184791238Y-93694285D01*
X184753142Y-93618095D01*
X184715047Y-93580000D01*
X184638857Y-93541904D01*
X183419809Y-94341904D02*
X183419809Y-93541904D01*
X183343619Y-94037142D02*
X183115047Y-94341904D01*
X183115047Y-93808571D02*
X183419809Y-94113333D01*
X182810285Y-94341904D02*
X182619809Y-94341904D01*
X182619809Y-94189523D01*
X182696000Y-94151428D01*
X182772190Y-94075238D01*
X182810285Y-93960952D01*
X182810285Y-93770476D01*
X182772190Y-93656190D01*
X182696000Y-93580000D01*
X182581714Y-93541904D01*
X182429333Y-93541904D01*
X182315047Y-93580000D01*
X182238857Y-93656190D01*
X182200761Y-93770476D01*
X182200761Y-93960952D01*
X182238857Y-94075238D01*
X182315047Y-94151428D01*
X182391238Y-94189523D01*
X182391238Y-94341904D01*
X182200761Y-94341904D01*
%TO.C,R19*%
X112121904Y-91598904D02*
X112121904Y-91141761D01*
X112121904Y-91370333D02*
X111321904Y-91370333D01*
X111436190Y-91294142D01*
X111512380Y-91217952D01*
X111550476Y-91141761D01*
X111321904Y-92322714D02*
X111321904Y-91941761D01*
X111702857Y-91903666D01*
X111664761Y-91941761D01*
X111626666Y-92017952D01*
X111626666Y-92208428D01*
X111664761Y-92284619D01*
X111702857Y-92322714D01*
X111779047Y-92360809D01*
X111969523Y-92360809D01*
X112045714Y-92322714D01*
X112083809Y-92284619D01*
X112121904Y-92208428D01*
X112121904Y-92017952D01*
X112083809Y-91941761D01*
X112045714Y-91903666D01*
X112121904Y-93313190D02*
X111321904Y-93313190D01*
X111817142Y-93389380D02*
X112121904Y-93617952D01*
X111588571Y-93617952D02*
X111893333Y-93313190D01*
X112121904Y-93922714D02*
X112121904Y-94113190D01*
X111969523Y-94113190D01*
X111931428Y-94037000D01*
X111855238Y-93960809D01*
X111740952Y-93922714D01*
X111550476Y-93922714D01*
X111436190Y-93960809D01*
X111360000Y-94037000D01*
X111321904Y-94151285D01*
X111321904Y-94303666D01*
X111360000Y-94417952D01*
X111436190Y-94494142D01*
X111550476Y-94532238D01*
X111740952Y-94532238D01*
X111855238Y-94494142D01*
X111931428Y-94417952D01*
X111969523Y-94341761D01*
X112121904Y-94341761D01*
X112121904Y-94532238D01*
%TO.C,R28*%
X149269238Y-128543095D02*
X149231142Y-128505000D01*
X149154952Y-128466904D01*
X148964476Y-128466904D01*
X148888285Y-128505000D01*
X148850190Y-128543095D01*
X148812095Y-128619285D01*
X148812095Y-128695476D01*
X148850190Y-128809761D01*
X149307333Y-129266904D01*
X148812095Y-129266904D01*
X148545428Y-128466904D02*
X148012095Y-128466904D01*
X148354952Y-129266904D01*
X147097809Y-129266904D02*
X147097809Y-128466904D01*
X147021619Y-128962142D02*
X146793047Y-129266904D01*
X146793047Y-128733571D02*
X147097809Y-129038333D01*
X146488285Y-129266904D02*
X146297809Y-129266904D01*
X146297809Y-129114523D01*
X146374000Y-129076428D01*
X146450190Y-129000238D01*
X146488285Y-128885952D01*
X146488285Y-128695476D01*
X146450190Y-128581190D01*
X146374000Y-128505000D01*
X146259714Y-128466904D01*
X146107333Y-128466904D01*
X145993047Y-128505000D01*
X145916857Y-128581190D01*
X145878761Y-128695476D01*
X145878761Y-128885952D01*
X145916857Y-129000238D01*
X145993047Y-129076428D01*
X146069238Y-129114523D01*
X146069238Y-129266904D01*
X145878761Y-129266904D01*
%TO.C,R32*%
X119106904Y-93503952D02*
X119106904Y-93046809D01*
X119106904Y-93275380D02*
X118306904Y-93275380D01*
X118421190Y-93199190D01*
X118497380Y-93123000D01*
X118535476Y-93046809D01*
X118306904Y-93999190D02*
X118306904Y-94075380D01*
X118345000Y-94151571D01*
X118383095Y-94189666D01*
X118459285Y-94227761D01*
X118611666Y-94265857D01*
X118802142Y-94265857D01*
X118954523Y-94227761D01*
X119030714Y-94189666D01*
X119068809Y-94151571D01*
X119106904Y-94075380D01*
X119106904Y-93999190D01*
X119068809Y-93923000D01*
X119030714Y-93884904D01*
X118954523Y-93846809D01*
X118802142Y-93808714D01*
X118611666Y-93808714D01*
X118459285Y-93846809D01*
X118383095Y-93884904D01*
X118345000Y-93923000D01*
X118306904Y-93999190D01*
X118306904Y-94761095D02*
X118306904Y-94837285D01*
X118345000Y-94913476D01*
X118383095Y-94951571D01*
X118459285Y-94989666D01*
X118611666Y-95027761D01*
X118802142Y-95027761D01*
X118954523Y-94989666D01*
X119030714Y-94951571D01*
X119068809Y-94913476D01*
X119106904Y-94837285D01*
X119106904Y-94761095D01*
X119068809Y-94684904D01*
X119030714Y-94646809D01*
X118954523Y-94608714D01*
X118802142Y-94570619D01*
X118611666Y-94570619D01*
X118459285Y-94608714D01*
X118383095Y-94646809D01*
X118345000Y-94684904D01*
X118306904Y-94761095D01*
X119106904Y-95980142D02*
X118306904Y-95980142D01*
X118802142Y-96056333D02*
X119106904Y-96284904D01*
X118573571Y-96284904D02*
X118878333Y-95980142D01*
X119106904Y-96589666D02*
X119106904Y-96780142D01*
X118954523Y-96780142D01*
X118916428Y-96703952D01*
X118840238Y-96627761D01*
X118725952Y-96589666D01*
X118535476Y-96589666D01*
X118421190Y-96627761D01*
X118345000Y-96703952D01*
X118306904Y-96818238D01*
X118306904Y-96970619D01*
X118345000Y-97084904D01*
X118421190Y-97161095D01*
X118535476Y-97199190D01*
X118725952Y-97199190D01*
X118840238Y-97161095D01*
X118916428Y-97084904D01*
X118954523Y-97008714D01*
X119106904Y-97008714D01*
X119106904Y-97199190D01*
%TO.C,R33*%
X162274047Y-127869904D02*
X162731190Y-127869904D01*
X162502619Y-127869904D02*
X162502619Y-127069904D01*
X162578809Y-127184190D01*
X162655000Y-127260380D01*
X162731190Y-127298476D01*
X161778809Y-127069904D02*
X161702619Y-127069904D01*
X161626428Y-127108000D01*
X161588333Y-127146095D01*
X161550238Y-127222285D01*
X161512142Y-127374666D01*
X161512142Y-127565142D01*
X161550238Y-127717523D01*
X161588333Y-127793714D01*
X161626428Y-127831809D01*
X161702619Y-127869904D01*
X161778809Y-127869904D01*
X161855000Y-127831809D01*
X161893095Y-127793714D01*
X161931190Y-127717523D01*
X161969285Y-127565142D01*
X161969285Y-127374666D01*
X161931190Y-127222285D01*
X161893095Y-127146095D01*
X161855000Y-127108000D01*
X161778809Y-127069904D01*
X161016904Y-127069904D02*
X160940714Y-127069904D01*
X160864523Y-127108000D01*
X160826428Y-127146095D01*
X160788333Y-127222285D01*
X160750238Y-127374666D01*
X160750238Y-127565142D01*
X160788333Y-127717523D01*
X160826428Y-127793714D01*
X160864523Y-127831809D01*
X160940714Y-127869904D01*
X161016904Y-127869904D01*
X161093095Y-127831809D01*
X161131190Y-127793714D01*
X161169285Y-127717523D01*
X161207380Y-127565142D01*
X161207380Y-127374666D01*
X161169285Y-127222285D01*
X161131190Y-127146095D01*
X161093095Y-127108000D01*
X161016904Y-127069904D01*
X159797857Y-127869904D02*
X159797857Y-127069904D01*
X159721666Y-127565142D02*
X159493095Y-127869904D01*
X159493095Y-127336571D02*
X159797857Y-127641333D01*
X159188333Y-127869904D02*
X158997857Y-127869904D01*
X158997857Y-127717523D01*
X159074047Y-127679428D01*
X159150238Y-127603238D01*
X159188333Y-127488952D01*
X159188333Y-127298476D01*
X159150238Y-127184190D01*
X159074047Y-127108000D01*
X158959761Y-127069904D01*
X158807380Y-127069904D01*
X158693095Y-127108000D01*
X158616904Y-127184190D01*
X158578809Y-127298476D01*
X158578809Y-127488952D01*
X158616904Y-127603238D01*
X158693095Y-127679428D01*
X158769285Y-127717523D01*
X158769285Y-127869904D01*
X158578809Y-127869904D01*
%TO.C,R34*%
X112474047Y-101453904D02*
X112931190Y-101453904D01*
X112702619Y-101453904D02*
X112702619Y-100653904D01*
X112778809Y-100768190D01*
X112855000Y-100844380D01*
X112931190Y-100882476D01*
X112169285Y-100730095D02*
X112131190Y-100692000D01*
X112055000Y-100653904D01*
X111864523Y-100653904D01*
X111788333Y-100692000D01*
X111750238Y-100730095D01*
X111712142Y-100806285D01*
X111712142Y-100882476D01*
X111750238Y-100996761D01*
X112207380Y-101453904D01*
X111712142Y-101453904D01*
X110950238Y-101453904D02*
X111407380Y-101453904D01*
X111178809Y-101453904D02*
X111178809Y-100653904D01*
X111255000Y-100768190D01*
X111331190Y-100844380D01*
X111407380Y-100882476D01*
X109997857Y-101453904D02*
X109997857Y-100653904D01*
X109921666Y-101149142D02*
X109693095Y-101453904D01*
X109693095Y-100920571D02*
X109997857Y-101225333D01*
X109388333Y-101453904D02*
X109197857Y-101453904D01*
X109197857Y-101301523D01*
X109274047Y-101263428D01*
X109350238Y-101187238D01*
X109388333Y-101072952D01*
X109388333Y-100882476D01*
X109350238Y-100768190D01*
X109274047Y-100692000D01*
X109159761Y-100653904D01*
X109007380Y-100653904D01*
X108893095Y-100692000D01*
X108816904Y-100768190D01*
X108778809Y-100882476D01*
X108778809Y-101072952D01*
X108816904Y-101187238D01*
X108893095Y-101263428D01*
X108969285Y-101301523D01*
X108969285Y-101453904D01*
X108778809Y-101453904D01*
%TO.C,R35*%
X149498095Y-115525809D02*
X149460000Y-115563904D01*
X149421904Y-115640095D01*
X149421904Y-115830571D01*
X149460000Y-115906761D01*
X149498095Y-115944857D01*
X149574285Y-115982952D01*
X149650476Y-115982952D01*
X149764761Y-115944857D01*
X150221904Y-115487714D01*
X150221904Y-115982952D01*
X149421904Y-116249619D02*
X149421904Y-116782952D01*
X150221904Y-116440095D01*
X149421904Y-117240095D02*
X149421904Y-117316285D01*
X149460000Y-117392476D01*
X149498095Y-117430571D01*
X149574285Y-117468666D01*
X149726666Y-117506761D01*
X149917142Y-117506761D01*
X150069523Y-117468666D01*
X150145714Y-117430571D01*
X150183809Y-117392476D01*
X150221904Y-117316285D01*
X150221904Y-117240095D01*
X150183809Y-117163904D01*
X150145714Y-117125809D01*
X150069523Y-117087714D01*
X149917142Y-117049619D01*
X149726666Y-117049619D01*
X149574285Y-117087714D01*
X149498095Y-117125809D01*
X149460000Y-117163904D01*
X149421904Y-117240095D01*
X150221904Y-118459142D02*
X149421904Y-118459142D01*
X149917142Y-118535333D02*
X150221904Y-118763904D01*
X149688571Y-118763904D02*
X149993333Y-118459142D01*
X150221904Y-119068666D02*
X150221904Y-119259142D01*
X150069523Y-119259142D01*
X150031428Y-119182952D01*
X149955238Y-119106761D01*
X149840952Y-119068666D01*
X149650476Y-119068666D01*
X149536190Y-119106761D01*
X149460000Y-119182952D01*
X149421904Y-119297238D01*
X149421904Y-119449619D01*
X149460000Y-119563904D01*
X149536190Y-119640095D01*
X149650476Y-119678190D01*
X149840952Y-119678190D01*
X149955238Y-119640095D01*
X150031428Y-119563904D01*
X150069523Y-119487714D01*
X150221904Y-119487714D01*
X150221904Y-119678190D01*
%TO.C,R36*%
X157626095Y-116033809D02*
X157588000Y-116071904D01*
X157549904Y-116148095D01*
X157549904Y-116338571D01*
X157588000Y-116414761D01*
X157626095Y-116452857D01*
X157702285Y-116490952D01*
X157778476Y-116490952D01*
X157892761Y-116452857D01*
X158349904Y-115995714D01*
X158349904Y-116490952D01*
X157549904Y-116757619D02*
X157549904Y-117290952D01*
X158349904Y-116948095D01*
X157549904Y-117748095D02*
X157549904Y-117824285D01*
X157588000Y-117900476D01*
X157626095Y-117938571D01*
X157702285Y-117976666D01*
X157854666Y-118014761D01*
X158045142Y-118014761D01*
X158197523Y-117976666D01*
X158273714Y-117938571D01*
X158311809Y-117900476D01*
X158349904Y-117824285D01*
X158349904Y-117748095D01*
X158311809Y-117671904D01*
X158273714Y-117633809D01*
X158197523Y-117595714D01*
X158045142Y-117557619D01*
X157854666Y-117557619D01*
X157702285Y-117595714D01*
X157626095Y-117633809D01*
X157588000Y-117671904D01*
X157549904Y-117748095D01*
X158349904Y-118967142D02*
X157549904Y-118967142D01*
X158045142Y-119043333D02*
X158349904Y-119271904D01*
X157816571Y-119271904D02*
X158121333Y-118967142D01*
X158349904Y-119576666D02*
X158349904Y-119767142D01*
X158197523Y-119767142D01*
X158159428Y-119690952D01*
X158083238Y-119614761D01*
X157968952Y-119576666D01*
X157778476Y-119576666D01*
X157664190Y-119614761D01*
X157588000Y-119690952D01*
X157549904Y-119805238D01*
X157549904Y-119957619D01*
X157588000Y-120071904D01*
X157664190Y-120148095D01*
X157778476Y-120186190D01*
X157968952Y-120186190D01*
X158083238Y-120148095D01*
X158159428Y-120071904D01*
X158197523Y-119995714D01*
X158349904Y-119995714D01*
X158349904Y-120186190D01*
%TO.C,R3*%
X123037380Y-108527904D02*
X122961190Y-108527904D01*
X122885000Y-108566000D01*
X122846904Y-108604095D01*
X122808809Y-108680285D01*
X122770714Y-108832666D01*
X122770714Y-109023142D01*
X122808809Y-109175523D01*
X122846904Y-109251714D01*
X122885000Y-109289809D01*
X122961190Y-109327904D01*
X123037380Y-109327904D01*
X123113571Y-109289809D01*
X123151666Y-109251714D01*
X123189761Y-109175523D01*
X123227857Y-109023142D01*
X123227857Y-108832666D01*
X123189761Y-108680285D01*
X123151666Y-108604095D01*
X123113571Y-108566000D01*
X123037380Y-108527904D01*
X122427857Y-109251714D02*
X122389761Y-109289809D01*
X122427857Y-109327904D01*
X122465952Y-109289809D01*
X122427857Y-109251714D01*
X122427857Y-109327904D01*
X121665952Y-108527904D02*
X122046904Y-108527904D01*
X122085000Y-108908857D01*
X122046904Y-108870761D01*
X121970714Y-108832666D01*
X121780238Y-108832666D01*
X121704047Y-108870761D01*
X121665952Y-108908857D01*
X121627857Y-108985047D01*
X121627857Y-109175523D01*
X121665952Y-109251714D01*
X121704047Y-109289809D01*
X121780238Y-109327904D01*
X121970714Y-109327904D01*
X122046904Y-109289809D01*
X122085000Y-109251714D01*
X120942142Y-108527904D02*
X121094523Y-108527904D01*
X121170714Y-108566000D01*
X121208809Y-108604095D01*
X121285000Y-108718380D01*
X121323095Y-108870761D01*
X121323095Y-109175523D01*
X121285000Y-109251714D01*
X121246904Y-109289809D01*
X121170714Y-109327904D01*
X121018333Y-109327904D01*
X120942142Y-109289809D01*
X120904047Y-109251714D01*
X120865952Y-109175523D01*
X120865952Y-108985047D01*
X120904047Y-108908857D01*
X120942142Y-108870761D01*
X121018333Y-108832666D01*
X121170714Y-108832666D01*
X121246904Y-108870761D01*
X121285000Y-108908857D01*
X121323095Y-108985047D01*
X119951666Y-109327904D02*
X119761190Y-109327904D01*
X119761190Y-109175523D01*
X119837380Y-109137428D01*
X119913571Y-109061238D01*
X119951666Y-108946952D01*
X119951666Y-108756476D01*
X119913571Y-108642190D01*
X119837380Y-108566000D01*
X119723095Y-108527904D01*
X119570714Y-108527904D01*
X119456428Y-108566000D01*
X119380238Y-108642190D01*
X119342142Y-108756476D01*
X119342142Y-108946952D01*
X119380238Y-109061238D01*
X119456428Y-109137428D01*
X119532619Y-109175523D01*
X119532619Y-109327904D01*
X119342142Y-109327904D01*
%TO.C,R4*%
X115417380Y-108527904D02*
X115341190Y-108527904D01*
X115265000Y-108566000D01*
X115226904Y-108604095D01*
X115188809Y-108680285D01*
X115150714Y-108832666D01*
X115150714Y-109023142D01*
X115188809Y-109175523D01*
X115226904Y-109251714D01*
X115265000Y-109289809D01*
X115341190Y-109327904D01*
X115417380Y-109327904D01*
X115493571Y-109289809D01*
X115531666Y-109251714D01*
X115569761Y-109175523D01*
X115607857Y-109023142D01*
X115607857Y-108832666D01*
X115569761Y-108680285D01*
X115531666Y-108604095D01*
X115493571Y-108566000D01*
X115417380Y-108527904D01*
X114807857Y-109251714D02*
X114769761Y-109289809D01*
X114807857Y-109327904D01*
X114845952Y-109289809D01*
X114807857Y-109251714D01*
X114807857Y-109327904D01*
X114045952Y-108527904D02*
X114426904Y-108527904D01*
X114465000Y-108908857D01*
X114426904Y-108870761D01*
X114350714Y-108832666D01*
X114160238Y-108832666D01*
X114084047Y-108870761D01*
X114045952Y-108908857D01*
X114007857Y-108985047D01*
X114007857Y-109175523D01*
X114045952Y-109251714D01*
X114084047Y-109289809D01*
X114160238Y-109327904D01*
X114350714Y-109327904D01*
X114426904Y-109289809D01*
X114465000Y-109251714D01*
X113322142Y-108527904D02*
X113474523Y-108527904D01*
X113550714Y-108566000D01*
X113588809Y-108604095D01*
X113665000Y-108718380D01*
X113703095Y-108870761D01*
X113703095Y-109175523D01*
X113665000Y-109251714D01*
X113626904Y-109289809D01*
X113550714Y-109327904D01*
X113398333Y-109327904D01*
X113322142Y-109289809D01*
X113284047Y-109251714D01*
X113245952Y-109175523D01*
X113245952Y-108985047D01*
X113284047Y-108908857D01*
X113322142Y-108870761D01*
X113398333Y-108832666D01*
X113550714Y-108832666D01*
X113626904Y-108870761D01*
X113665000Y-108908857D01*
X113703095Y-108985047D01*
X112331666Y-109327904D02*
X112141190Y-109327904D01*
X112141190Y-109175523D01*
X112217380Y-109137428D01*
X112293571Y-109061238D01*
X112331666Y-108946952D01*
X112331666Y-108756476D01*
X112293571Y-108642190D01*
X112217380Y-108566000D01*
X112103095Y-108527904D01*
X111950714Y-108527904D01*
X111836428Y-108566000D01*
X111760238Y-108642190D01*
X111722142Y-108756476D01*
X111722142Y-108946952D01*
X111760238Y-109061238D01*
X111836428Y-109137428D01*
X111912619Y-109175523D01*
X111912619Y-109327904D01*
X111722142Y-109327904D01*
%TO.C,R5*%
X106654380Y-108527904D02*
X106578190Y-108527904D01*
X106502000Y-108566000D01*
X106463904Y-108604095D01*
X106425809Y-108680285D01*
X106387714Y-108832666D01*
X106387714Y-109023142D01*
X106425809Y-109175523D01*
X106463904Y-109251714D01*
X106502000Y-109289809D01*
X106578190Y-109327904D01*
X106654380Y-109327904D01*
X106730571Y-109289809D01*
X106768666Y-109251714D01*
X106806761Y-109175523D01*
X106844857Y-109023142D01*
X106844857Y-108832666D01*
X106806761Y-108680285D01*
X106768666Y-108604095D01*
X106730571Y-108566000D01*
X106654380Y-108527904D01*
X106044857Y-109251714D02*
X106006761Y-109289809D01*
X106044857Y-109327904D01*
X106082952Y-109289809D01*
X106044857Y-109251714D01*
X106044857Y-109327904D01*
X105282952Y-108527904D02*
X105663904Y-108527904D01*
X105702000Y-108908857D01*
X105663904Y-108870761D01*
X105587714Y-108832666D01*
X105397238Y-108832666D01*
X105321047Y-108870761D01*
X105282952Y-108908857D01*
X105244857Y-108985047D01*
X105244857Y-109175523D01*
X105282952Y-109251714D01*
X105321047Y-109289809D01*
X105397238Y-109327904D01*
X105587714Y-109327904D01*
X105663904Y-109289809D01*
X105702000Y-109251714D01*
X104559142Y-108527904D02*
X104711523Y-108527904D01*
X104787714Y-108566000D01*
X104825809Y-108604095D01*
X104902000Y-108718380D01*
X104940095Y-108870761D01*
X104940095Y-109175523D01*
X104902000Y-109251714D01*
X104863904Y-109289809D01*
X104787714Y-109327904D01*
X104635333Y-109327904D01*
X104559142Y-109289809D01*
X104521047Y-109251714D01*
X104482952Y-109175523D01*
X104482952Y-108985047D01*
X104521047Y-108908857D01*
X104559142Y-108870761D01*
X104635333Y-108832666D01*
X104787714Y-108832666D01*
X104863904Y-108870761D01*
X104902000Y-108908857D01*
X104940095Y-108985047D01*
X103568666Y-109327904D02*
X103378190Y-109327904D01*
X103378190Y-109175523D01*
X103454380Y-109137428D01*
X103530571Y-109061238D01*
X103568666Y-108946952D01*
X103568666Y-108756476D01*
X103530571Y-108642190D01*
X103454380Y-108566000D01*
X103340095Y-108527904D01*
X103187714Y-108527904D01*
X103073428Y-108566000D01*
X102997238Y-108642190D01*
X102959142Y-108756476D01*
X102959142Y-108946952D01*
X102997238Y-109061238D01*
X103073428Y-109137428D01*
X103149619Y-109175523D01*
X103149619Y-109327904D01*
X102959142Y-109327904D01*
%TO.C,R6*%
X95097380Y-108273904D02*
X95021190Y-108273904D01*
X94945000Y-108312000D01*
X94906904Y-108350095D01*
X94868809Y-108426285D01*
X94830714Y-108578666D01*
X94830714Y-108769142D01*
X94868809Y-108921523D01*
X94906904Y-108997714D01*
X94945000Y-109035809D01*
X95021190Y-109073904D01*
X95097380Y-109073904D01*
X95173571Y-109035809D01*
X95211666Y-108997714D01*
X95249761Y-108921523D01*
X95287857Y-108769142D01*
X95287857Y-108578666D01*
X95249761Y-108426285D01*
X95211666Y-108350095D01*
X95173571Y-108312000D01*
X95097380Y-108273904D01*
X94487857Y-108997714D02*
X94449761Y-109035809D01*
X94487857Y-109073904D01*
X94525952Y-109035809D01*
X94487857Y-108997714D01*
X94487857Y-109073904D01*
X93725952Y-108273904D02*
X94106904Y-108273904D01*
X94145000Y-108654857D01*
X94106904Y-108616761D01*
X94030714Y-108578666D01*
X93840238Y-108578666D01*
X93764047Y-108616761D01*
X93725952Y-108654857D01*
X93687857Y-108731047D01*
X93687857Y-108921523D01*
X93725952Y-108997714D01*
X93764047Y-109035809D01*
X93840238Y-109073904D01*
X94030714Y-109073904D01*
X94106904Y-109035809D01*
X94145000Y-108997714D01*
X93002142Y-108273904D02*
X93154523Y-108273904D01*
X93230714Y-108312000D01*
X93268809Y-108350095D01*
X93345000Y-108464380D01*
X93383095Y-108616761D01*
X93383095Y-108921523D01*
X93345000Y-108997714D01*
X93306904Y-109035809D01*
X93230714Y-109073904D01*
X93078333Y-109073904D01*
X93002142Y-109035809D01*
X92964047Y-108997714D01*
X92925952Y-108921523D01*
X92925952Y-108731047D01*
X92964047Y-108654857D01*
X93002142Y-108616761D01*
X93078333Y-108578666D01*
X93230714Y-108578666D01*
X93306904Y-108616761D01*
X93345000Y-108654857D01*
X93383095Y-108731047D01*
X92011666Y-109073904D02*
X91821190Y-109073904D01*
X91821190Y-108921523D01*
X91897380Y-108883428D01*
X91973571Y-108807238D01*
X92011666Y-108692952D01*
X92011666Y-108502476D01*
X91973571Y-108388190D01*
X91897380Y-108312000D01*
X91783095Y-108273904D01*
X91630714Y-108273904D01*
X91516428Y-108312000D01*
X91440238Y-108388190D01*
X91402142Y-108502476D01*
X91402142Y-108692952D01*
X91440238Y-108807238D01*
X91516428Y-108883428D01*
X91592619Y-108921523D01*
X91592619Y-109073904D01*
X91402142Y-109073904D01*
%TD*%
M02*
