%FSLAX45Y45*%
G04 Gerber Fmt 4.5, Leading zero omitted, Abs format (unit mm)*
G04 Created by KiCad (PCBNEW (5.1.9)-1) date 2022-12-04 20:32:49*
%MOMM*%
%LPD*%
G01*
G04 APERTURE LIST*
%TA.AperFunction,Profile*%
%ADD10C,0.050000*%
%TD*%
%ADD11C,0.200000*%
%ADD12C,0.300000*%
G04 APERTURE END LIST*
D10*
X20320000Y-13411200D02*
X20320000Y-13347700D01*
X8890000Y-13411200D02*
X20320000Y-13411200D01*
X8890000Y-7378700D02*
X8890000Y-13411200D01*
X20320000Y-7378700D02*
X8890000Y-7378700D01*
X20320000Y-13220700D02*
X20320000Y-13347700D01*
X20320000Y-7378700D02*
X20320000Y-13220700D01*
D11*
X11279150Y-10355900D02*
X11319150Y-10395900D01*
X11319150Y-10355900D02*
X11279150Y-10395900D01*
X11283000Y-10625800D02*
X11323000Y-10665800D01*
X11323000Y-10625800D02*
X11283000Y-10665800D01*
X11333800Y-9936800D02*
X11373800Y-9976800D01*
X11373800Y-9936800D02*
X11333800Y-9976800D01*
X11371900Y-8616000D02*
X11411900Y-8656000D01*
X11411900Y-8616000D02*
X11371900Y-8656000D01*
X11371900Y-8717600D02*
X11411900Y-8757600D01*
X11411900Y-8717600D02*
X11371900Y-8757600D01*
X11371900Y-8819200D02*
X11411900Y-8859200D01*
X11411900Y-8819200D02*
X11371900Y-8859200D01*
X11386200Y-10089200D02*
X11426200Y-10129200D01*
X11426200Y-10089200D02*
X11386200Y-10129200D01*
X11425350Y-9695500D02*
X11465350Y-9735500D01*
X11465350Y-9695500D02*
X11425350Y-9735500D01*
X11435400Y-9073200D02*
X11475400Y-9113200D01*
X11475400Y-9073200D02*
X11435400Y-9113200D01*
X11435400Y-9187500D02*
X11475400Y-9227500D01*
X11475400Y-9187500D02*
X11435400Y-9227500D01*
X11435400Y-9314500D02*
X11475400Y-9354500D01*
X11475400Y-9314500D02*
X11435400Y-9354500D01*
X11498900Y-10800400D02*
X11538900Y-10840400D01*
X11538900Y-10800400D02*
X11498900Y-10840400D01*
X11613200Y-10800400D02*
X11653200Y-10840400D01*
X11653200Y-10800400D02*
X11613200Y-10840400D01*
X11854500Y-9825700D02*
X11894500Y-9865700D01*
X11894500Y-9825700D02*
X11854500Y-9865700D01*
X11854500Y-10025700D02*
X11894500Y-10065700D01*
X11894500Y-10025700D02*
X11854500Y-10065700D01*
X11854500Y-10152700D02*
X11894500Y-10192700D01*
X11894500Y-10152700D02*
X11854500Y-10192700D01*
X11886250Y-10565450D02*
X11926250Y-10605450D01*
X11926250Y-10565450D02*
X11886250Y-10605450D01*
X11941895Y-10240095D02*
X11981895Y-10280095D01*
X11981895Y-10240095D02*
X11941895Y-10280095D01*
X11981500Y-9924100D02*
X12021500Y-9964100D01*
X12021500Y-9924100D02*
X11981500Y-9964100D01*
X11987850Y-10565450D02*
X12027850Y-10605450D01*
X12027850Y-10565450D02*
X11987850Y-10605450D01*
X12032300Y-10800400D02*
X12072300Y-10840400D01*
X12072300Y-10800400D02*
X12032300Y-10840400D01*
X12146600Y-10800400D02*
X12186600Y-10840400D01*
X12186600Y-10800400D02*
X12146600Y-10840400D01*
X12195800Y-8882700D02*
X12235800Y-8922700D01*
X12235800Y-8882700D02*
X12195800Y-8922700D01*
X12197400Y-8743000D02*
X12237400Y-8783000D01*
X12237400Y-8743000D02*
X12197400Y-8783000D01*
X12375200Y-9864450D02*
X12415200Y-9904450D01*
X12415200Y-9864450D02*
X12375200Y-9904450D01*
X12400600Y-10470200D02*
X12440600Y-10510200D01*
X12440600Y-10470200D02*
X12400600Y-10510200D01*
X12464100Y-8743000D02*
X12504100Y-8783000D01*
X12504100Y-8743000D02*
X12464100Y-8783000D01*
X12476800Y-8936700D02*
X12516800Y-8976700D01*
X12516800Y-8936700D02*
X12476800Y-8976700D01*
X12553000Y-9682800D02*
X12593000Y-9722800D01*
X12593000Y-9682800D02*
X12553000Y-9722800D01*
X12553000Y-9860600D02*
X12593000Y-9900600D01*
X12593000Y-9860600D02*
X12553000Y-9900600D01*
X12553000Y-9962200D02*
X12593000Y-10002200D01*
X12593000Y-9962200D02*
X12553000Y-10002200D01*
X12603800Y-10470200D02*
X12643800Y-10510200D01*
X12643800Y-10470200D02*
X12603800Y-10510200D01*
X12629200Y-9606600D02*
X12669200Y-9646600D01*
X12669200Y-9606600D02*
X12629200Y-9646600D01*
X12705400Y-9390700D02*
X12745400Y-9430700D01*
X12745400Y-9390700D02*
X12705400Y-9430700D01*
X12807000Y-9022400D02*
X12847000Y-9062400D01*
X12847000Y-9022400D02*
X12807000Y-9062400D01*
X12807000Y-9390700D02*
X12847000Y-9430700D01*
X12847000Y-9390700D02*
X12807000Y-9430700D01*
X12832400Y-10292400D02*
X12872400Y-10332400D01*
X12872400Y-10292400D02*
X12832400Y-10332400D01*
X12883200Y-10787700D02*
X12923200Y-10827700D01*
X12923200Y-10787700D02*
X12883200Y-10827700D01*
X12911300Y-9390700D02*
X12951300Y-9430700D01*
X12951300Y-9390700D02*
X12911300Y-9430700D01*
X12923400Y-9022400D02*
X12963400Y-9062400D01*
X12963400Y-9022400D02*
X12923400Y-9062400D01*
X12948800Y-10292400D02*
X12988800Y-10332400D01*
X12988800Y-10292400D02*
X12948800Y-10332400D01*
X13048300Y-9022400D02*
X13088300Y-9062400D01*
X13088300Y-9022400D02*
X13048300Y-9062400D01*
X13073700Y-10292400D02*
X13113700Y-10332400D01*
X13113700Y-10292400D02*
X13073700Y-10332400D01*
X13480100Y-10914700D02*
X13520100Y-10954700D01*
X13520100Y-10914700D02*
X13480100Y-10954700D01*
X13480100Y-11041700D02*
X13520100Y-11081700D01*
X13520100Y-11041700D02*
X13480100Y-11081700D01*
X13530900Y-8984300D02*
X13570900Y-9024300D01*
X13570900Y-8984300D02*
X13530900Y-9024300D01*
X13530900Y-9085900D02*
X13570900Y-9125900D01*
X13570900Y-9085900D02*
X13530900Y-9125900D01*
X13543600Y-9644700D02*
X13583600Y-9684700D01*
X13583600Y-9644700D02*
X13543600Y-9684700D01*
X13543600Y-9771700D02*
X13583600Y-9811700D01*
X13583600Y-9771700D02*
X13543600Y-9811700D01*
X13543600Y-10228900D02*
X13583600Y-10268900D01*
X13583600Y-10228900D02*
X13543600Y-10268900D01*
X13543600Y-10343200D02*
X13583600Y-10383200D01*
X13583600Y-10343200D02*
X13543600Y-10383200D01*
X13594400Y-10902000D02*
X13634400Y-10942000D01*
X13634400Y-10902000D02*
X13594400Y-10942000D01*
X13594400Y-11039600D02*
X13634400Y-11079600D01*
X13634400Y-11039600D02*
X13594400Y-11079600D01*
X13645200Y-8971600D02*
X13685200Y-9011600D01*
X13685200Y-8971600D02*
X13645200Y-9011600D01*
X13645200Y-9085900D02*
X13685200Y-9125900D01*
X13685200Y-9085900D02*
X13645200Y-9125900D01*
X13657900Y-9644700D02*
X13697900Y-9684700D01*
X13697900Y-9644700D02*
X13657900Y-9684700D01*
X13657900Y-9771700D02*
X13697900Y-9811700D01*
X13697900Y-9771700D02*
X13657900Y-9811700D01*
X13657900Y-10228900D02*
X13697900Y-10268900D01*
X13697900Y-10228900D02*
X13657900Y-10268900D01*
X13657900Y-10343200D02*
X13697900Y-10383200D01*
X13697900Y-10343200D02*
X13657900Y-10383200D01*
X13784900Y-11460800D02*
X13824900Y-11500800D01*
X13824900Y-11460800D02*
X13784900Y-11500800D01*
X13950000Y-11346500D02*
X13990000Y-11386500D01*
X13990000Y-11346500D02*
X13950000Y-11386500D01*
X15670850Y-9447850D02*
X15710850Y-9487850D01*
X15710850Y-9447850D02*
X15670850Y-9487850D01*
X15759750Y-9536750D02*
X15799750Y-9576750D01*
X15799750Y-9536750D02*
X15759750Y-9576750D01*
X15842300Y-9619300D02*
X15882300Y-9659300D01*
X15882300Y-9619300D02*
X15842300Y-9659300D01*
X16642400Y-10724200D02*
X16682400Y-10764200D01*
X16682400Y-10724200D02*
X16642400Y-10764200D01*
X16988500Y-11867200D02*
X17028500Y-11907200D01*
X17028500Y-11867200D02*
X16988500Y-11907200D01*
X16988500Y-12819700D02*
X17028500Y-12859700D01*
X17028500Y-12819700D02*
X16988500Y-12859700D01*
X17188500Y-11549700D02*
X17228500Y-11589700D01*
X17228500Y-11549700D02*
X17188500Y-11589700D01*
X17188500Y-11867200D02*
X17228500Y-11907200D01*
X17228500Y-11867200D02*
X17188500Y-11907200D01*
X17205500Y-12184700D02*
X17245500Y-12224700D01*
X17245500Y-12184700D02*
X17205500Y-12224700D01*
X17205500Y-12502200D02*
X17245500Y-12542200D01*
X17245500Y-12502200D02*
X17205500Y-12542200D01*
X17442500Y-12511700D02*
X17482500Y-12551700D01*
X17482500Y-12511700D02*
X17442500Y-12551700D01*
X17442500Y-12819700D02*
X17482500Y-12859700D01*
X17482500Y-12819700D02*
X17442500Y-12859700D01*
X17506000Y-9530400D02*
X17546000Y-9570400D01*
X17546000Y-9530400D02*
X17506000Y-9570400D01*
X17683800Y-10724200D02*
X17723800Y-10764200D01*
X17723800Y-10724200D02*
X17683800Y-10764200D01*
X17683800Y-10978200D02*
X17723800Y-11018200D01*
X17723800Y-10978200D02*
X17683800Y-11018200D01*
X18064800Y-8311200D02*
X18104800Y-8351200D01*
X18104800Y-8311200D02*
X18064800Y-8351200D01*
X18064800Y-10851200D02*
X18104800Y-10891200D01*
X18104800Y-10851200D02*
X18064800Y-10891200D01*
X18217200Y-8311200D02*
X18257200Y-8351200D01*
X18257200Y-8311200D02*
X18217200Y-8351200D01*
X18445800Y-8311200D02*
X18485800Y-8351200D01*
X18485800Y-8311200D02*
X18445800Y-8351200D01*
X18469600Y-9530400D02*
X18509600Y-9570400D01*
X18509600Y-9530400D02*
X18469600Y-9570400D01*
X18529500Y-10470200D02*
X18569500Y-10510200D01*
X18569500Y-10470200D02*
X18529500Y-10510200D01*
X18598200Y-8311200D02*
X18638200Y-8351200D01*
X18638200Y-8311200D02*
X18598200Y-8351200D01*
X18826800Y-8311200D02*
X18866800Y-8351200D01*
X18866800Y-8311200D02*
X18826800Y-8351200D01*
X18979200Y-8311200D02*
X19019200Y-8351200D01*
X19019200Y-8311200D02*
X18979200Y-8351200D01*
X19220500Y-9460550D02*
X19260500Y-9500550D01*
X19260500Y-9460550D02*
X19220500Y-9500550D01*
X19233200Y-8184200D02*
X19273200Y-8224200D01*
X19273200Y-8184200D02*
X19233200Y-8224200D01*
X19623700Y-9841550D02*
X19663700Y-9881550D01*
X19663700Y-9841550D02*
X19623700Y-9881550D01*
X20096800Y-12222800D02*
X20136800Y-12262800D01*
X20136800Y-12222800D02*
X20096800Y-12262800D01*
X17563500Y-11582400D02*
G75*
G03*
X17563500Y-11582400I-37500J0D01*
G01*
X17563500Y-11709400D02*
G75*
G03*
X17563500Y-11709400I-37500J0D01*
G01*
X17563500Y-11836400D02*
G75*
G03*
X17563500Y-11836400I-37500J0D01*
G01*
X17462500Y-9746700D02*
X17462500Y-9836700D01*
X17417500Y-9791700D02*
X17507500Y-9791700D01*
X17716500Y-9746700D02*
X17716500Y-9836700D01*
X17671500Y-9791700D02*
X17761500Y-9791700D01*
X18288000Y-9746700D02*
X18288000Y-9836700D01*
X18243000Y-9791700D02*
X18333000Y-9791700D01*
X18542000Y-9746700D02*
X18542000Y-9836700D01*
X18497000Y-9791700D02*
X18587000Y-9791700D01*
X12481356Y-7803056D02*
X12481356Y-7732344D01*
X12410644Y-7732344D01*
X12410644Y-7803056D01*
X12481356Y-7803056D01*
X12481356Y-8303056D02*
X12481356Y-8232344D01*
X12410644Y-8232344D01*
X12410644Y-8303056D01*
X12481356Y-8303056D01*
X14005356Y-7803056D02*
X14005356Y-7732344D01*
X13934644Y-7732344D01*
X13934644Y-7803056D01*
X14005356Y-7803056D01*
X14005356Y-8303056D02*
X14005356Y-8232344D01*
X13934644Y-8232344D01*
X13934644Y-8303056D01*
X14005356Y-8303056D01*
X14487956Y-12303556D02*
X14487956Y-12232844D01*
X14417244Y-12232844D01*
X14417244Y-12303556D01*
X14487956Y-12303556D01*
X14487956Y-12557556D02*
X14487956Y-12486844D01*
X14417244Y-12486844D01*
X14417244Y-12557556D01*
X14487956Y-12557556D01*
X15275356Y-12049556D02*
X15275356Y-11978844D01*
X15204644Y-11978844D01*
X15204644Y-12049556D01*
X15275356Y-12049556D01*
X15275356Y-12549556D02*
X15275356Y-12478844D01*
X15204644Y-12478844D01*
X15204644Y-12549556D01*
X15275356Y-12549556D01*
X16418356Y-12049556D02*
X16418356Y-11978844D01*
X16347644Y-11978844D01*
X16347644Y-12049556D01*
X16418356Y-12049556D01*
X16418356Y-12549556D02*
X16418356Y-12478844D01*
X16347644Y-12478844D01*
X16347644Y-12549556D01*
X16418356Y-12549556D01*
X18259856Y-11668556D02*
X18259856Y-11597844D01*
X18189144Y-11597844D01*
X18189144Y-11668556D01*
X18259856Y-11668556D01*
X18509856Y-11668556D02*
X18509856Y-11597844D01*
X18439144Y-11597844D01*
X18439144Y-11668556D01*
X18509856Y-11668556D01*
X18759856Y-11668556D02*
X18759856Y-11597844D01*
X18689144Y-11597844D01*
X18689144Y-11668556D01*
X18759856Y-11668556D01*
X19847356Y-11795556D02*
X19847356Y-11724844D01*
X19776644Y-11724844D01*
X19776644Y-11795556D01*
X19847356Y-11795556D01*
X19847356Y-12049556D02*
X19847356Y-11978844D01*
X19776644Y-11978844D01*
X19776644Y-12049556D01*
X19847356Y-12049556D01*
X14097000Y-12069200D02*
X14152000Y-12014200D01*
X14097000Y-11959200D01*
X14042000Y-12014200D01*
X14097000Y-12069200D01*
X14097000Y-12323200D02*
X14152000Y-12268200D01*
X14097000Y-12213200D01*
X14042000Y-12268200D01*
X14097000Y-12323200D01*
X14097000Y-12577200D02*
X14152000Y-12522200D01*
X14097000Y-12467200D01*
X14042000Y-12522200D01*
X14097000Y-12577200D01*
X15303500Y-8068700D02*
X15358500Y-8013700D01*
X15303500Y-7958700D01*
X15248500Y-8013700D01*
X15303500Y-8068700D01*
X15303500Y-8322700D02*
X15358500Y-8267700D01*
X15303500Y-8212700D01*
X15248500Y-8267700D01*
X15303500Y-8322700D01*
X15303500Y-8576700D02*
X15358500Y-8521700D01*
X15303500Y-8466700D01*
X15248500Y-8521700D01*
X15303500Y-8576700D01*
X17589500Y-8068700D02*
X17644500Y-8013700D01*
X17589500Y-7958700D01*
X17534500Y-8013700D01*
X17589500Y-8068700D01*
X17589500Y-8322700D02*
X17644500Y-8267700D01*
X17589500Y-8212700D01*
X17534500Y-8267700D01*
X17589500Y-8322700D01*
X17589500Y-8576700D02*
X17644500Y-8521700D01*
X17589500Y-8466700D01*
X17534500Y-8521700D01*
X17589500Y-8576700D01*
X18910200Y-10412700D02*
X18965200Y-10357700D01*
X18910200Y-10302700D01*
X18855200Y-10357700D01*
X18910200Y-10412700D01*
X18910200Y-11312700D02*
X18965200Y-11257700D01*
X18910200Y-11202700D01*
X18855200Y-11257700D01*
X18910200Y-11312700D01*
X19115200Y-10562700D02*
X19170200Y-10507700D01*
X19115200Y-10452700D01*
X19060200Y-10507700D01*
X19115200Y-10562700D01*
X19115200Y-10862700D02*
X19170200Y-10807700D01*
X19115200Y-10752700D01*
X19060200Y-10807700D01*
X19115200Y-10862700D01*
X19115200Y-11162700D02*
X19170200Y-11107700D01*
X19115200Y-11052700D01*
X19060200Y-11107700D01*
X19115200Y-11162700D01*
X19645200Y-10562700D02*
X19700200Y-10507700D01*
X19645200Y-10452700D01*
X19590200Y-10507700D01*
X19645200Y-10562700D01*
X19645200Y-10862700D02*
X19700200Y-10807700D01*
X19645200Y-10752700D01*
X19590200Y-10807700D01*
X19645200Y-10862700D01*
X19645200Y-11162700D02*
X19700200Y-11107700D01*
X19645200Y-11052700D01*
X19590200Y-11107700D01*
X19645200Y-11162700D01*
X19850200Y-10412700D02*
X19905200Y-10357700D01*
X19850200Y-10302700D01*
X19795200Y-10357700D01*
X19850200Y-10412700D01*
X19850200Y-11312700D02*
X19905200Y-11257700D01*
X19850200Y-11202700D01*
X19795200Y-11257700D01*
X19850200Y-11312700D01*
X9274500Y-11065200D02*
X9394500Y-11185200D01*
X9394500Y-11065200D02*
X9274500Y-11185200D01*
X9394500Y-11125200D02*
G75*
G03*
X9394500Y-11125200I-60000J0D01*
G01*
X9274500Y-13097200D02*
X9394500Y-13217200D01*
X9394500Y-13097200D02*
X9274500Y-13217200D01*
X9394500Y-13157200D02*
G75*
G03*
X9394500Y-13157200I-60000J0D01*
G01*
X10544500Y-11065200D02*
X10664500Y-11185200D01*
X10664500Y-11065200D02*
X10544500Y-11185200D01*
X10664500Y-11125200D02*
G75*
G03*
X10664500Y-11125200I-60000J0D01*
G01*
X10544500Y-13097200D02*
X10664500Y-13217200D01*
X10664500Y-13097200D02*
X10544500Y-13217200D01*
X10664500Y-13157200D02*
G75*
G03*
X10664500Y-13157200I-60000J0D01*
G01*
X11306500Y-11065200D02*
X11426500Y-11185200D01*
X11426500Y-11065200D02*
X11306500Y-11185200D01*
X11426500Y-11125200D02*
G75*
G03*
X11426500Y-11125200I-60000J0D01*
G01*
X11306500Y-13097200D02*
X11426500Y-13217200D01*
X11426500Y-13097200D02*
X11306500Y-13217200D01*
X11426500Y-13157200D02*
G75*
G03*
X11426500Y-13157200I-60000J0D01*
G01*
X12068500Y-11065200D02*
X12188500Y-11185200D01*
X12188500Y-11065200D02*
X12068500Y-11185200D01*
X12188500Y-11125200D02*
G75*
G03*
X12188500Y-11125200I-60000J0D01*
G01*
X12068500Y-13097200D02*
X12188500Y-13217200D01*
X12188500Y-13097200D02*
X12068500Y-13217200D01*
X12188500Y-13157200D02*
G75*
G03*
X12188500Y-13157200I-60000J0D01*
G01*
X16522000Y-7806700D02*
X16752000Y-8036700D01*
X16752000Y-7806700D02*
X16522000Y-8036700D01*
X16637000Y-7806700D02*
X16637000Y-8036700D01*
X16522000Y-7921700D02*
X16752000Y-7921700D01*
X16062000Y-7696700D02*
X16312000Y-7946700D01*
X16312000Y-7696700D02*
X16062000Y-7946700D01*
X16275389Y-7910089D02*
X16275389Y-7733311D01*
X16098611Y-7733311D01*
X16098611Y-7910089D01*
X16275389Y-7910089D01*
X16962000Y-7696700D02*
X17212000Y-7946700D01*
X17212000Y-7696700D02*
X16962000Y-7946700D01*
X17175389Y-7910089D02*
X17175389Y-7733311D01*
X16998611Y-7733311D01*
X16998611Y-7910089D01*
X17175389Y-7910089D01*
X9639000Y-7619700D02*
X9919000Y-7899700D01*
X9919000Y-7619700D02*
X9639000Y-7899700D01*
X9779000Y-7899700D02*
X9919000Y-7759700D01*
X9779000Y-7619700D01*
X9639000Y-7759700D01*
X9779000Y-7899700D01*
X9639000Y-10159700D02*
X9919000Y-10439700D01*
X9919000Y-10159700D02*
X9639000Y-10439700D01*
X9779000Y-10439700D02*
X9919000Y-10299700D01*
X9779000Y-10159700D01*
X9639000Y-10299700D01*
X9779000Y-10439700D01*
X19799000Y-7619700D02*
X20079000Y-7899700D01*
X20079000Y-7619700D02*
X19799000Y-7899700D01*
X19939000Y-7899700D02*
X20079000Y-7759700D01*
X19939000Y-7619700D01*
X19799000Y-7759700D01*
X19939000Y-7899700D01*
X19799000Y-12699700D02*
X20079000Y-12979700D01*
X20079000Y-12699700D02*
X19799000Y-12979700D01*
X19939000Y-12979700D02*
X20079000Y-12839700D01*
X19939000Y-12699700D01*
X19799000Y-12839700D01*
X19939000Y-12979700D01*
X16637000Y-8371700D02*
X16637000Y-8671700D01*
X16487000Y-8521700D02*
X16787000Y-8521700D01*
X16787000Y-8521700D02*
G75*
G03*
X16787000Y-8521700I-150000J0D01*
G01*
X10236170Y-12483870D02*
X10236170Y-12052530D01*
X9804830Y-12052530D01*
X9804830Y-12483870D01*
X10236170Y-12483870D01*
X10325500Y-12268200D02*
G75*
G03*
X10325500Y-12268200I-305000J0D01*
G01*
X13233170Y-12483870D02*
X13233170Y-12052530D01*
X12801830Y-12052530D01*
X12801830Y-12483870D01*
X13233170Y-12483870D01*
X13322500Y-12268200D02*
G75*
G03*
X13322500Y-12268200I-305000J0D01*
G01*
D12*
X9173928Y-13879414D02*
X9173928Y-13579414D01*
X9245357Y-13579414D01*
X9288214Y-13593700D01*
X9316786Y-13622271D01*
X9331071Y-13650843D01*
X9345357Y-13707986D01*
X9345357Y-13750843D01*
X9331071Y-13807986D01*
X9316786Y-13836557D01*
X9288214Y-13865129D01*
X9245357Y-13879414D01*
X9173928Y-13879414D01*
X9473928Y-13879414D02*
X9473928Y-13679414D01*
X9473928Y-13736557D02*
X9488214Y-13707986D01*
X9502500Y-13693700D01*
X9531071Y-13679414D01*
X9559643Y-13679414D01*
X9659643Y-13879414D02*
X9659643Y-13679414D01*
X9659643Y-13579414D02*
X9645357Y-13593700D01*
X9659643Y-13607986D01*
X9673928Y-13593700D01*
X9659643Y-13579414D01*
X9659643Y-13607986D01*
X9845357Y-13879414D02*
X9816786Y-13865129D01*
X9802500Y-13836557D01*
X9802500Y-13579414D01*
X10002500Y-13879414D02*
X9973928Y-13865129D01*
X9959643Y-13836557D01*
X9959643Y-13579414D01*
X10345357Y-13879414D02*
X10345357Y-13579414D01*
X10445357Y-13793700D01*
X10545357Y-13579414D01*
X10545357Y-13879414D01*
X10816786Y-13879414D02*
X10816786Y-13722271D01*
X10802500Y-13693700D01*
X10773928Y-13679414D01*
X10716786Y-13679414D01*
X10688214Y-13693700D01*
X10816786Y-13865129D02*
X10788214Y-13879414D01*
X10716786Y-13879414D01*
X10688214Y-13865129D01*
X10673928Y-13836557D01*
X10673928Y-13807986D01*
X10688214Y-13779414D01*
X10716786Y-13765129D01*
X10788214Y-13765129D01*
X10816786Y-13750843D01*
X10959643Y-13679414D02*
X10959643Y-13979414D01*
X10959643Y-13693700D02*
X10988214Y-13679414D01*
X11045357Y-13679414D01*
X11073928Y-13693700D01*
X11088214Y-13707986D01*
X11102500Y-13736557D01*
X11102500Y-13822271D01*
X11088214Y-13850843D01*
X11073928Y-13865129D01*
X11045357Y-13879414D01*
X10988214Y-13879414D01*
X10959643Y-13865129D01*
X11231071Y-13850843D02*
X11245357Y-13865129D01*
X11231071Y-13879414D01*
X11216786Y-13865129D01*
X11231071Y-13850843D01*
X11231071Y-13879414D01*
X11231071Y-13693700D02*
X11245357Y-13707986D01*
X11231071Y-13722271D01*
X11216786Y-13707986D01*
X11231071Y-13693700D01*
X11231071Y-13722271D01*
X8847500Y-14353700D02*
X8887500Y-14393700D01*
X8887500Y-14353700D02*
X8847500Y-14393700D01*
X9231071Y-14209414D02*
X9259643Y-14209414D01*
X9288214Y-14223700D01*
X9302500Y-14237986D01*
X9316786Y-14266557D01*
X9331071Y-14323700D01*
X9331071Y-14395129D01*
X9316786Y-14452271D01*
X9302500Y-14480843D01*
X9288214Y-14495129D01*
X9259643Y-14509414D01*
X9231071Y-14509414D01*
X9202500Y-14495129D01*
X9188214Y-14480843D01*
X9173928Y-14452271D01*
X9159643Y-14395129D01*
X9159643Y-14323700D01*
X9173928Y-14266557D01*
X9188214Y-14237986D01*
X9202500Y-14223700D01*
X9231071Y-14209414D01*
X9459643Y-14480843D02*
X9473928Y-14495129D01*
X9459643Y-14509414D01*
X9445357Y-14495129D01*
X9459643Y-14480843D01*
X9459643Y-14509414D01*
X9731071Y-14309414D02*
X9731071Y-14509414D01*
X9659643Y-14195129D02*
X9588214Y-14409414D01*
X9773928Y-14409414D01*
X9945357Y-14209414D02*
X9973928Y-14209414D01*
X10002500Y-14223700D01*
X10016786Y-14237986D01*
X10031071Y-14266557D01*
X10045357Y-14323700D01*
X10045357Y-14395129D01*
X10031071Y-14452271D01*
X10016786Y-14480843D01*
X10002500Y-14495129D01*
X9973928Y-14509414D01*
X9945357Y-14509414D01*
X9916786Y-14495129D01*
X9902500Y-14480843D01*
X9888214Y-14452271D01*
X9873928Y-14395129D01*
X9873928Y-14323700D01*
X9888214Y-14266557D01*
X9902500Y-14237986D01*
X9916786Y-14223700D01*
X9945357Y-14209414D01*
X10173928Y-14509414D02*
X10173928Y-14309414D01*
X10173928Y-14337986D02*
X10188214Y-14323700D01*
X10216786Y-14309414D01*
X10259643Y-14309414D01*
X10288214Y-14323700D01*
X10302500Y-14352271D01*
X10302500Y-14509414D01*
X10302500Y-14352271D02*
X10316786Y-14323700D01*
X10345357Y-14309414D01*
X10388214Y-14309414D01*
X10416786Y-14323700D01*
X10431071Y-14352271D01*
X10431071Y-14509414D01*
X10573928Y-14509414D02*
X10573928Y-14309414D01*
X10573928Y-14337986D02*
X10588214Y-14323700D01*
X10616786Y-14309414D01*
X10659643Y-14309414D01*
X10688214Y-14323700D01*
X10702500Y-14352271D01*
X10702500Y-14509414D01*
X10702500Y-14352271D02*
X10716786Y-14323700D01*
X10745357Y-14309414D01*
X10788214Y-14309414D01*
X10816786Y-14323700D01*
X10831071Y-14352271D01*
X10831071Y-14509414D01*
X11416786Y-14195129D02*
X11159643Y-14580843D01*
X11802500Y-14209414D02*
X11831071Y-14209414D01*
X11859643Y-14223700D01*
X11873928Y-14237986D01*
X11888214Y-14266557D01*
X11902500Y-14323700D01*
X11902500Y-14395129D01*
X11888214Y-14452271D01*
X11873928Y-14480843D01*
X11859643Y-14495129D01*
X11831071Y-14509414D01*
X11802500Y-14509414D01*
X11773928Y-14495129D01*
X11759643Y-14480843D01*
X11745357Y-14452271D01*
X11731071Y-14395129D01*
X11731071Y-14323700D01*
X11745357Y-14266557D01*
X11759643Y-14237986D01*
X11773928Y-14223700D01*
X11802500Y-14209414D01*
X12031071Y-14480843D02*
X12045357Y-14495129D01*
X12031071Y-14509414D01*
X12016786Y-14495129D01*
X12031071Y-14480843D01*
X12031071Y-14509414D01*
X12231071Y-14209414D02*
X12259643Y-14209414D01*
X12288214Y-14223700D01*
X12302500Y-14237986D01*
X12316786Y-14266557D01*
X12331071Y-14323700D01*
X12331071Y-14395129D01*
X12316786Y-14452271D01*
X12302500Y-14480843D01*
X12288214Y-14495129D01*
X12259643Y-14509414D01*
X12231071Y-14509414D01*
X12202500Y-14495129D01*
X12188214Y-14480843D01*
X12173928Y-14452271D01*
X12159643Y-14395129D01*
X12159643Y-14323700D01*
X12173928Y-14266557D01*
X12188214Y-14237986D01*
X12202500Y-14223700D01*
X12231071Y-14209414D01*
X12616786Y-14509414D02*
X12445357Y-14509414D01*
X12531071Y-14509414D02*
X12531071Y-14209414D01*
X12502500Y-14252271D01*
X12473928Y-14280843D01*
X12445357Y-14295129D01*
X12873928Y-14209414D02*
X12816786Y-14209414D01*
X12788214Y-14223700D01*
X12773928Y-14237986D01*
X12745357Y-14280843D01*
X12731071Y-14337986D01*
X12731071Y-14452271D01*
X12745357Y-14480843D01*
X12759643Y-14495129D01*
X12788214Y-14509414D01*
X12845357Y-14509414D01*
X12873928Y-14495129D01*
X12888214Y-14480843D01*
X12902500Y-14452271D01*
X12902500Y-14380843D01*
X12888214Y-14352271D01*
X12873928Y-14337986D01*
X12845357Y-14323700D01*
X12788214Y-14323700D01*
X12759643Y-14337986D01*
X12745357Y-14352271D01*
X12731071Y-14380843D01*
X13016786Y-14209414D02*
X13016786Y-14266557D01*
X13131071Y-14209414D02*
X13131071Y-14266557D01*
X13573928Y-14623700D02*
X13559643Y-14609414D01*
X13531071Y-14566557D01*
X13516786Y-14537986D01*
X13502500Y-14495129D01*
X13488214Y-14423700D01*
X13488214Y-14366557D01*
X13502500Y-14295129D01*
X13516786Y-14252271D01*
X13531071Y-14223700D01*
X13559643Y-14180843D01*
X13573928Y-14166557D01*
X13731071Y-14337986D02*
X13702500Y-14323700D01*
X13688214Y-14309414D01*
X13673928Y-14280843D01*
X13673928Y-14266557D01*
X13688214Y-14237986D01*
X13702500Y-14223700D01*
X13731071Y-14209414D01*
X13788214Y-14209414D01*
X13816786Y-14223700D01*
X13831071Y-14237986D01*
X13845357Y-14266557D01*
X13845357Y-14280843D01*
X13831071Y-14309414D01*
X13816786Y-14323700D01*
X13788214Y-14337986D01*
X13731071Y-14337986D01*
X13702500Y-14352271D01*
X13688214Y-14366557D01*
X13673928Y-14395129D01*
X13673928Y-14452271D01*
X13688214Y-14480843D01*
X13702500Y-14495129D01*
X13731071Y-14509414D01*
X13788214Y-14509414D01*
X13816786Y-14495129D01*
X13831071Y-14480843D01*
X13845357Y-14452271D01*
X13845357Y-14395129D01*
X13831071Y-14366557D01*
X13816786Y-14352271D01*
X13788214Y-14337986D01*
X13988214Y-14509414D02*
X14045357Y-14509414D01*
X14073928Y-14495129D01*
X14088214Y-14480843D01*
X14116786Y-14437986D01*
X14131071Y-14380843D01*
X14131071Y-14266557D01*
X14116786Y-14237986D01*
X14102500Y-14223700D01*
X14073928Y-14209414D01*
X14016786Y-14209414D01*
X13988214Y-14223700D01*
X13973928Y-14237986D01*
X13959643Y-14266557D01*
X13959643Y-14337986D01*
X13973928Y-14366557D01*
X13988214Y-14380843D01*
X14016786Y-14395129D01*
X14073928Y-14395129D01*
X14102500Y-14380843D01*
X14116786Y-14366557D01*
X14131071Y-14337986D01*
X14488214Y-14509414D02*
X14488214Y-14209414D01*
X14616786Y-14509414D02*
X14616786Y-14352271D01*
X14602500Y-14323700D01*
X14573928Y-14309414D01*
X14531071Y-14309414D01*
X14502500Y-14323700D01*
X14488214Y-14337986D01*
X14802500Y-14509414D02*
X14773928Y-14495129D01*
X14759643Y-14480843D01*
X14745357Y-14452271D01*
X14745357Y-14366557D01*
X14759643Y-14337986D01*
X14773928Y-14323700D01*
X14802500Y-14309414D01*
X14845357Y-14309414D01*
X14873928Y-14323700D01*
X14888214Y-14337986D01*
X14902500Y-14366557D01*
X14902500Y-14452271D01*
X14888214Y-14480843D01*
X14873928Y-14495129D01*
X14845357Y-14509414D01*
X14802500Y-14509414D01*
X15073928Y-14509414D02*
X15045357Y-14495129D01*
X15031071Y-14466557D01*
X15031071Y-14209414D01*
X15302500Y-14495129D02*
X15273928Y-14509414D01*
X15216786Y-14509414D01*
X15188214Y-14495129D01*
X15173928Y-14466557D01*
X15173928Y-14352271D01*
X15188214Y-14323700D01*
X15216786Y-14309414D01*
X15273928Y-14309414D01*
X15302500Y-14323700D01*
X15316786Y-14352271D01*
X15316786Y-14380843D01*
X15173928Y-14409414D01*
X15431071Y-14495129D02*
X15459643Y-14509414D01*
X15516786Y-14509414D01*
X15545357Y-14495129D01*
X15559643Y-14466557D01*
X15559643Y-14452271D01*
X15545357Y-14423700D01*
X15516786Y-14409414D01*
X15473928Y-14409414D01*
X15445357Y-14395129D01*
X15431071Y-14366557D01*
X15431071Y-14352271D01*
X15445357Y-14323700D01*
X15473928Y-14309414D01*
X15516786Y-14309414D01*
X15545357Y-14323700D01*
X15659643Y-14623700D02*
X15673928Y-14609414D01*
X15702500Y-14566557D01*
X15716786Y-14537986D01*
X15731071Y-14495129D01*
X15745357Y-14423700D01*
X15745357Y-14366557D01*
X15731071Y-14295129D01*
X15716786Y-14252271D01*
X15702500Y-14223700D01*
X15673928Y-14180843D01*
X15659643Y-14166557D01*
X8887500Y-14769700D02*
G75*
G03*
X8887500Y-14769700I-37500J0D01*
G01*
X9231071Y-14605414D02*
X9259643Y-14605414D01*
X9288214Y-14619700D01*
X9302500Y-14633986D01*
X9316786Y-14662557D01*
X9331071Y-14719700D01*
X9331071Y-14791129D01*
X9316786Y-14848271D01*
X9302500Y-14876843D01*
X9288214Y-14891129D01*
X9259643Y-14905414D01*
X9231071Y-14905414D01*
X9202500Y-14891129D01*
X9188214Y-14876843D01*
X9173928Y-14848271D01*
X9159643Y-14791129D01*
X9159643Y-14719700D01*
X9173928Y-14662557D01*
X9188214Y-14633986D01*
X9202500Y-14619700D01*
X9231071Y-14605414D01*
X9459643Y-14876843D02*
X9473928Y-14891129D01*
X9459643Y-14905414D01*
X9445357Y-14891129D01*
X9459643Y-14876843D01*
X9459643Y-14905414D01*
X9573928Y-14605414D02*
X9773928Y-14605414D01*
X9645357Y-14905414D01*
X10031071Y-14605414D02*
X9888214Y-14605414D01*
X9873928Y-14748271D01*
X9888214Y-14733986D01*
X9916786Y-14719700D01*
X9988214Y-14719700D01*
X10016786Y-14733986D01*
X10031071Y-14748271D01*
X10045357Y-14776843D01*
X10045357Y-14848271D01*
X10031071Y-14876843D01*
X10016786Y-14891129D01*
X9988214Y-14905414D01*
X9916786Y-14905414D01*
X9888214Y-14891129D01*
X9873928Y-14876843D01*
X10173928Y-14905414D02*
X10173928Y-14705414D01*
X10173928Y-14733986D02*
X10188214Y-14719700D01*
X10216786Y-14705414D01*
X10259643Y-14705414D01*
X10288214Y-14719700D01*
X10302500Y-14748271D01*
X10302500Y-14905414D01*
X10302500Y-14748271D02*
X10316786Y-14719700D01*
X10345357Y-14705414D01*
X10388214Y-14705414D01*
X10416786Y-14719700D01*
X10431071Y-14748271D01*
X10431071Y-14905414D01*
X10573928Y-14905414D02*
X10573928Y-14705414D01*
X10573928Y-14733986D02*
X10588214Y-14719700D01*
X10616786Y-14705414D01*
X10659643Y-14705414D01*
X10688214Y-14719700D01*
X10702500Y-14748271D01*
X10702500Y-14905414D01*
X10702500Y-14748271D02*
X10716786Y-14719700D01*
X10745357Y-14705414D01*
X10788214Y-14705414D01*
X10816786Y-14719700D01*
X10831071Y-14748271D01*
X10831071Y-14905414D01*
X11416786Y-14591129D02*
X11159643Y-14976843D01*
X11802500Y-14605414D02*
X11831071Y-14605414D01*
X11859643Y-14619700D01*
X11873928Y-14633986D01*
X11888214Y-14662557D01*
X11902500Y-14719700D01*
X11902500Y-14791129D01*
X11888214Y-14848271D01*
X11873928Y-14876843D01*
X11859643Y-14891129D01*
X11831071Y-14905414D01*
X11802500Y-14905414D01*
X11773928Y-14891129D01*
X11759643Y-14876843D01*
X11745357Y-14848271D01*
X11731071Y-14791129D01*
X11731071Y-14719700D01*
X11745357Y-14662557D01*
X11759643Y-14633986D01*
X11773928Y-14619700D01*
X11802500Y-14605414D01*
X12031071Y-14876843D02*
X12045357Y-14891129D01*
X12031071Y-14905414D01*
X12016786Y-14891129D01*
X12031071Y-14876843D01*
X12031071Y-14905414D01*
X12231071Y-14605414D02*
X12259643Y-14605414D01*
X12288214Y-14619700D01*
X12302500Y-14633986D01*
X12316786Y-14662557D01*
X12331071Y-14719700D01*
X12331071Y-14791129D01*
X12316786Y-14848271D01*
X12302500Y-14876843D01*
X12288214Y-14891129D01*
X12259643Y-14905414D01*
X12231071Y-14905414D01*
X12202500Y-14891129D01*
X12188214Y-14876843D01*
X12173928Y-14848271D01*
X12159643Y-14791129D01*
X12159643Y-14719700D01*
X12173928Y-14662557D01*
X12188214Y-14633986D01*
X12202500Y-14619700D01*
X12231071Y-14605414D01*
X12431071Y-14605414D02*
X12616786Y-14605414D01*
X12516786Y-14719700D01*
X12559643Y-14719700D01*
X12588214Y-14733986D01*
X12602500Y-14748271D01*
X12616786Y-14776843D01*
X12616786Y-14848271D01*
X12602500Y-14876843D01*
X12588214Y-14891129D01*
X12559643Y-14905414D01*
X12473928Y-14905414D01*
X12445357Y-14891129D01*
X12431071Y-14876843D01*
X12802500Y-14605414D02*
X12831071Y-14605414D01*
X12859643Y-14619700D01*
X12873928Y-14633986D01*
X12888214Y-14662557D01*
X12902500Y-14719700D01*
X12902500Y-14791129D01*
X12888214Y-14848271D01*
X12873928Y-14876843D01*
X12859643Y-14891129D01*
X12831071Y-14905414D01*
X12802500Y-14905414D01*
X12773928Y-14891129D01*
X12759643Y-14876843D01*
X12745357Y-14848271D01*
X12731071Y-14791129D01*
X12731071Y-14719700D01*
X12745357Y-14662557D01*
X12759643Y-14633986D01*
X12773928Y-14619700D01*
X12802500Y-14605414D01*
X13016786Y-14605414D02*
X13016786Y-14662557D01*
X13131071Y-14605414D02*
X13131071Y-14662557D01*
X13573928Y-15019700D02*
X13559643Y-15005414D01*
X13531071Y-14962557D01*
X13516786Y-14933986D01*
X13502500Y-14891129D01*
X13488214Y-14819700D01*
X13488214Y-14762557D01*
X13502500Y-14691129D01*
X13516786Y-14648271D01*
X13531071Y-14619700D01*
X13559643Y-14576843D01*
X13573928Y-14562557D01*
X13659643Y-14605414D02*
X13845357Y-14605414D01*
X13745357Y-14719700D01*
X13788214Y-14719700D01*
X13816786Y-14733986D01*
X13831071Y-14748271D01*
X13845357Y-14776843D01*
X13845357Y-14848271D01*
X13831071Y-14876843D01*
X13816786Y-14891129D01*
X13788214Y-14905414D01*
X13702500Y-14905414D01*
X13673928Y-14891129D01*
X13659643Y-14876843D01*
X14202500Y-14905414D02*
X14202500Y-14605414D01*
X14331071Y-14905414D02*
X14331071Y-14748271D01*
X14316786Y-14719700D01*
X14288214Y-14705414D01*
X14245357Y-14705414D01*
X14216786Y-14719700D01*
X14202500Y-14733986D01*
X14516786Y-14905414D02*
X14488214Y-14891129D01*
X14473928Y-14876843D01*
X14459643Y-14848271D01*
X14459643Y-14762557D01*
X14473928Y-14733986D01*
X14488214Y-14719700D01*
X14516786Y-14705414D01*
X14559643Y-14705414D01*
X14588214Y-14719700D01*
X14602500Y-14733986D01*
X14616786Y-14762557D01*
X14616786Y-14848271D01*
X14602500Y-14876843D01*
X14588214Y-14891129D01*
X14559643Y-14905414D01*
X14516786Y-14905414D01*
X14788214Y-14905414D02*
X14759643Y-14891129D01*
X14745357Y-14862557D01*
X14745357Y-14605414D01*
X15016786Y-14891129D02*
X14988214Y-14905414D01*
X14931071Y-14905414D01*
X14902500Y-14891129D01*
X14888214Y-14862557D01*
X14888214Y-14748271D01*
X14902500Y-14719700D01*
X14931071Y-14705414D01*
X14988214Y-14705414D01*
X15016786Y-14719700D01*
X15031071Y-14748271D01*
X15031071Y-14776843D01*
X14888214Y-14805414D01*
X15145357Y-14891129D02*
X15173928Y-14905414D01*
X15231071Y-14905414D01*
X15259643Y-14891129D01*
X15273928Y-14862557D01*
X15273928Y-14848271D01*
X15259643Y-14819700D01*
X15231071Y-14805414D01*
X15188214Y-14805414D01*
X15159643Y-14791129D01*
X15145357Y-14762557D01*
X15145357Y-14748271D01*
X15159643Y-14719700D01*
X15188214Y-14705414D01*
X15231071Y-14705414D01*
X15259643Y-14719700D01*
X15373928Y-15019700D02*
X15388214Y-15005414D01*
X15416786Y-14962557D01*
X15431071Y-14933986D01*
X15445357Y-14891129D01*
X15459643Y-14819700D01*
X15459643Y-14762557D01*
X15445357Y-14691129D01*
X15431071Y-14648271D01*
X15416786Y-14619700D01*
X15388214Y-14576843D01*
X15373928Y-14562557D01*
X8842500Y-15120700D02*
X8842500Y-15210700D01*
X8797500Y-15165700D02*
X8887500Y-15165700D01*
X9231071Y-15001414D02*
X9259643Y-15001414D01*
X9288214Y-15015700D01*
X9302500Y-15029986D01*
X9316786Y-15058557D01*
X9331071Y-15115700D01*
X9331071Y-15187129D01*
X9316786Y-15244271D01*
X9302500Y-15272843D01*
X9288214Y-15287129D01*
X9259643Y-15301414D01*
X9231071Y-15301414D01*
X9202500Y-15287129D01*
X9188214Y-15272843D01*
X9173928Y-15244271D01*
X9159643Y-15187129D01*
X9159643Y-15115700D01*
X9173928Y-15058557D01*
X9188214Y-15029986D01*
X9202500Y-15015700D01*
X9231071Y-15001414D01*
X9459643Y-15272843D02*
X9473928Y-15287129D01*
X9459643Y-15301414D01*
X9445357Y-15287129D01*
X9459643Y-15272843D01*
X9459643Y-15301414D01*
X9616786Y-15301414D02*
X9673928Y-15301414D01*
X9702500Y-15287129D01*
X9716786Y-15272843D01*
X9745357Y-15229986D01*
X9759643Y-15172843D01*
X9759643Y-15058557D01*
X9745357Y-15029986D01*
X9731071Y-15015700D01*
X9702500Y-15001414D01*
X9645357Y-15001414D01*
X9616786Y-15015700D01*
X9602500Y-15029986D01*
X9588214Y-15058557D01*
X9588214Y-15129986D01*
X9602500Y-15158557D01*
X9616786Y-15172843D01*
X9645357Y-15187129D01*
X9702500Y-15187129D01*
X9731071Y-15172843D01*
X9745357Y-15158557D01*
X9759643Y-15129986D01*
X9945357Y-15001414D02*
X9973928Y-15001414D01*
X10002500Y-15015700D01*
X10016786Y-15029986D01*
X10031071Y-15058557D01*
X10045357Y-15115700D01*
X10045357Y-15187129D01*
X10031071Y-15244271D01*
X10016786Y-15272843D01*
X10002500Y-15287129D01*
X9973928Y-15301414D01*
X9945357Y-15301414D01*
X9916786Y-15287129D01*
X9902500Y-15272843D01*
X9888214Y-15244271D01*
X9873928Y-15187129D01*
X9873928Y-15115700D01*
X9888214Y-15058557D01*
X9902500Y-15029986D01*
X9916786Y-15015700D01*
X9945357Y-15001414D01*
X10173928Y-15301414D02*
X10173928Y-15101414D01*
X10173928Y-15129986D02*
X10188214Y-15115700D01*
X10216786Y-15101414D01*
X10259643Y-15101414D01*
X10288214Y-15115700D01*
X10302500Y-15144271D01*
X10302500Y-15301414D01*
X10302500Y-15144271D02*
X10316786Y-15115700D01*
X10345357Y-15101414D01*
X10388214Y-15101414D01*
X10416786Y-15115700D01*
X10431071Y-15144271D01*
X10431071Y-15301414D01*
X10573928Y-15301414D02*
X10573928Y-15101414D01*
X10573928Y-15129986D02*
X10588214Y-15115700D01*
X10616786Y-15101414D01*
X10659643Y-15101414D01*
X10688214Y-15115700D01*
X10702500Y-15144271D01*
X10702500Y-15301414D01*
X10702500Y-15144271D02*
X10716786Y-15115700D01*
X10745357Y-15101414D01*
X10788214Y-15101414D01*
X10816786Y-15115700D01*
X10831071Y-15144271D01*
X10831071Y-15301414D01*
X11416786Y-14987129D02*
X11159643Y-15372843D01*
X11802500Y-15001414D02*
X11831071Y-15001414D01*
X11859643Y-15015700D01*
X11873928Y-15029986D01*
X11888214Y-15058557D01*
X11902500Y-15115700D01*
X11902500Y-15187129D01*
X11888214Y-15244271D01*
X11873928Y-15272843D01*
X11859643Y-15287129D01*
X11831071Y-15301414D01*
X11802500Y-15301414D01*
X11773928Y-15287129D01*
X11759643Y-15272843D01*
X11745357Y-15244271D01*
X11731071Y-15187129D01*
X11731071Y-15115700D01*
X11745357Y-15058557D01*
X11759643Y-15029986D01*
X11773928Y-15015700D01*
X11802500Y-15001414D01*
X12031071Y-15272843D02*
X12045357Y-15287129D01*
X12031071Y-15301414D01*
X12016786Y-15287129D01*
X12031071Y-15272843D01*
X12031071Y-15301414D01*
X12231071Y-15001414D02*
X12259643Y-15001414D01*
X12288214Y-15015700D01*
X12302500Y-15029986D01*
X12316786Y-15058557D01*
X12331071Y-15115700D01*
X12331071Y-15187129D01*
X12316786Y-15244271D01*
X12302500Y-15272843D01*
X12288214Y-15287129D01*
X12259643Y-15301414D01*
X12231071Y-15301414D01*
X12202500Y-15287129D01*
X12188214Y-15272843D01*
X12173928Y-15244271D01*
X12159643Y-15187129D01*
X12159643Y-15115700D01*
X12173928Y-15058557D01*
X12188214Y-15029986D01*
X12202500Y-15015700D01*
X12231071Y-15001414D01*
X12431071Y-15001414D02*
X12616786Y-15001414D01*
X12516786Y-15115700D01*
X12559643Y-15115700D01*
X12588214Y-15129986D01*
X12602500Y-15144271D01*
X12616786Y-15172843D01*
X12616786Y-15244271D01*
X12602500Y-15272843D01*
X12588214Y-15287129D01*
X12559643Y-15301414D01*
X12473928Y-15301414D01*
X12445357Y-15287129D01*
X12431071Y-15272843D01*
X12888214Y-15001414D02*
X12745357Y-15001414D01*
X12731071Y-15144271D01*
X12745357Y-15129986D01*
X12773928Y-15115700D01*
X12845357Y-15115700D01*
X12873928Y-15129986D01*
X12888214Y-15144271D01*
X12902500Y-15172843D01*
X12902500Y-15244271D01*
X12888214Y-15272843D01*
X12873928Y-15287129D01*
X12845357Y-15301414D01*
X12773928Y-15301414D01*
X12745357Y-15287129D01*
X12731071Y-15272843D01*
X13016786Y-15001414D02*
X13016786Y-15058557D01*
X13131071Y-15001414D02*
X13131071Y-15058557D01*
X13573928Y-15415700D02*
X13559643Y-15401414D01*
X13531071Y-15358557D01*
X13516786Y-15329986D01*
X13502500Y-15287129D01*
X13488214Y-15215700D01*
X13488214Y-15158557D01*
X13502500Y-15087129D01*
X13516786Y-15044271D01*
X13531071Y-15015700D01*
X13559643Y-14972843D01*
X13573928Y-14958557D01*
X13816786Y-15101414D02*
X13816786Y-15301414D01*
X13745357Y-14987129D02*
X13673928Y-15201414D01*
X13859643Y-15201414D01*
X14202500Y-15301414D02*
X14202500Y-15001414D01*
X14331071Y-15301414D02*
X14331071Y-15144271D01*
X14316786Y-15115700D01*
X14288214Y-15101414D01*
X14245357Y-15101414D01*
X14216786Y-15115700D01*
X14202500Y-15129986D01*
X14516786Y-15301414D02*
X14488214Y-15287129D01*
X14473928Y-15272843D01*
X14459643Y-15244271D01*
X14459643Y-15158557D01*
X14473928Y-15129986D01*
X14488214Y-15115700D01*
X14516786Y-15101414D01*
X14559643Y-15101414D01*
X14588214Y-15115700D01*
X14602500Y-15129986D01*
X14616786Y-15158557D01*
X14616786Y-15244271D01*
X14602500Y-15272843D01*
X14588214Y-15287129D01*
X14559643Y-15301414D01*
X14516786Y-15301414D01*
X14788214Y-15301414D02*
X14759643Y-15287129D01*
X14745357Y-15258557D01*
X14745357Y-15001414D01*
X15016786Y-15287129D02*
X14988214Y-15301414D01*
X14931071Y-15301414D01*
X14902500Y-15287129D01*
X14888214Y-15258557D01*
X14888214Y-15144271D01*
X14902500Y-15115700D01*
X14931071Y-15101414D01*
X14988214Y-15101414D01*
X15016786Y-15115700D01*
X15031071Y-15144271D01*
X15031071Y-15172843D01*
X14888214Y-15201414D01*
X15145357Y-15287129D02*
X15173928Y-15301414D01*
X15231071Y-15301414D01*
X15259643Y-15287129D01*
X15273928Y-15258557D01*
X15273928Y-15244271D01*
X15259643Y-15215700D01*
X15231071Y-15201414D01*
X15188214Y-15201414D01*
X15159643Y-15187129D01*
X15145357Y-15158557D01*
X15145357Y-15144271D01*
X15159643Y-15115700D01*
X15188214Y-15101414D01*
X15231071Y-15101414D01*
X15259643Y-15115700D01*
X15373928Y-15415700D02*
X15388214Y-15401414D01*
X15416786Y-15358557D01*
X15431071Y-15329986D01*
X15445357Y-15287129D01*
X15459643Y-15215700D01*
X15459643Y-15158557D01*
X15445357Y-15087129D01*
X15431071Y-15044271D01*
X15416786Y-15015700D01*
X15388214Y-14972843D01*
X15373928Y-14958557D01*
X8872856Y-15597056D02*
X8872856Y-15526344D01*
X8802144Y-15526344D01*
X8802144Y-15597056D01*
X8872856Y-15597056D01*
X9331071Y-15697414D02*
X9159643Y-15697414D01*
X9245357Y-15697414D02*
X9245357Y-15397414D01*
X9216786Y-15440271D01*
X9188214Y-15468843D01*
X9159643Y-15483129D01*
X9459643Y-15668843D02*
X9473928Y-15683129D01*
X9459643Y-15697414D01*
X9445357Y-15683129D01*
X9459643Y-15668843D01*
X9459643Y-15697414D01*
X9659643Y-15397414D02*
X9688214Y-15397414D01*
X9716786Y-15411700D01*
X9731071Y-15425986D01*
X9745357Y-15454557D01*
X9759643Y-15511700D01*
X9759643Y-15583129D01*
X9745357Y-15640271D01*
X9731071Y-15668843D01*
X9716786Y-15683129D01*
X9688214Y-15697414D01*
X9659643Y-15697414D01*
X9631071Y-15683129D01*
X9616786Y-15668843D01*
X9602500Y-15640271D01*
X9588214Y-15583129D01*
X9588214Y-15511700D01*
X9602500Y-15454557D01*
X9616786Y-15425986D01*
X9631071Y-15411700D01*
X9659643Y-15397414D01*
X9945357Y-15397414D02*
X9973928Y-15397414D01*
X10002500Y-15411700D01*
X10016786Y-15425986D01*
X10031071Y-15454557D01*
X10045357Y-15511700D01*
X10045357Y-15583129D01*
X10031071Y-15640271D01*
X10016786Y-15668843D01*
X10002500Y-15683129D01*
X9973928Y-15697414D01*
X9945357Y-15697414D01*
X9916786Y-15683129D01*
X9902500Y-15668843D01*
X9888214Y-15640271D01*
X9873928Y-15583129D01*
X9873928Y-15511700D01*
X9888214Y-15454557D01*
X9902500Y-15425986D01*
X9916786Y-15411700D01*
X9945357Y-15397414D01*
X10173928Y-15697414D02*
X10173928Y-15497414D01*
X10173928Y-15525986D02*
X10188214Y-15511700D01*
X10216786Y-15497414D01*
X10259643Y-15497414D01*
X10288214Y-15511700D01*
X10302500Y-15540271D01*
X10302500Y-15697414D01*
X10302500Y-15540271D02*
X10316786Y-15511700D01*
X10345357Y-15497414D01*
X10388214Y-15497414D01*
X10416786Y-15511700D01*
X10431071Y-15540271D01*
X10431071Y-15697414D01*
X10573928Y-15697414D02*
X10573928Y-15497414D01*
X10573928Y-15525986D02*
X10588214Y-15511700D01*
X10616786Y-15497414D01*
X10659643Y-15497414D01*
X10688214Y-15511700D01*
X10702500Y-15540271D01*
X10702500Y-15697414D01*
X10702500Y-15540271D02*
X10716786Y-15511700D01*
X10745357Y-15497414D01*
X10788214Y-15497414D01*
X10816786Y-15511700D01*
X10831071Y-15540271D01*
X10831071Y-15697414D01*
X11416786Y-15383129D02*
X11159643Y-15768843D01*
X11802500Y-15397414D02*
X11831071Y-15397414D01*
X11859643Y-15411700D01*
X11873928Y-15425986D01*
X11888214Y-15454557D01*
X11902500Y-15511700D01*
X11902500Y-15583129D01*
X11888214Y-15640271D01*
X11873928Y-15668843D01*
X11859643Y-15683129D01*
X11831071Y-15697414D01*
X11802500Y-15697414D01*
X11773928Y-15683129D01*
X11759643Y-15668843D01*
X11745357Y-15640271D01*
X11731071Y-15583129D01*
X11731071Y-15511700D01*
X11745357Y-15454557D01*
X11759643Y-15425986D01*
X11773928Y-15411700D01*
X11802500Y-15397414D01*
X12031071Y-15668843D02*
X12045357Y-15683129D01*
X12031071Y-15697414D01*
X12016786Y-15683129D01*
X12031071Y-15668843D01*
X12031071Y-15697414D01*
X12231071Y-15397414D02*
X12259643Y-15397414D01*
X12288214Y-15411700D01*
X12302500Y-15425986D01*
X12316786Y-15454557D01*
X12331071Y-15511700D01*
X12331071Y-15583129D01*
X12316786Y-15640271D01*
X12302500Y-15668843D01*
X12288214Y-15683129D01*
X12259643Y-15697414D01*
X12231071Y-15697414D01*
X12202500Y-15683129D01*
X12188214Y-15668843D01*
X12173928Y-15640271D01*
X12159643Y-15583129D01*
X12159643Y-15511700D01*
X12173928Y-15454557D01*
X12188214Y-15425986D01*
X12202500Y-15411700D01*
X12231071Y-15397414D01*
X12431071Y-15397414D02*
X12616786Y-15397414D01*
X12516786Y-15511700D01*
X12559643Y-15511700D01*
X12588214Y-15525986D01*
X12602500Y-15540271D01*
X12616786Y-15568843D01*
X12616786Y-15640271D01*
X12602500Y-15668843D01*
X12588214Y-15683129D01*
X12559643Y-15697414D01*
X12473928Y-15697414D01*
X12445357Y-15683129D01*
X12431071Y-15668843D01*
X12759643Y-15697414D02*
X12816786Y-15697414D01*
X12845357Y-15683129D01*
X12859643Y-15668843D01*
X12888214Y-15625986D01*
X12902500Y-15568843D01*
X12902500Y-15454557D01*
X12888214Y-15425986D01*
X12873928Y-15411700D01*
X12845357Y-15397414D01*
X12788214Y-15397414D01*
X12759643Y-15411700D01*
X12745357Y-15425986D01*
X12731071Y-15454557D01*
X12731071Y-15525986D01*
X12745357Y-15554557D01*
X12759643Y-15568843D01*
X12788214Y-15583129D01*
X12845357Y-15583129D01*
X12873928Y-15568843D01*
X12888214Y-15554557D01*
X12902500Y-15525986D01*
X13016786Y-15397414D02*
X13016786Y-15454557D01*
X13131071Y-15397414D02*
X13131071Y-15454557D01*
X13573928Y-15811700D02*
X13559643Y-15797414D01*
X13531071Y-15754557D01*
X13516786Y-15725986D01*
X13502500Y-15683129D01*
X13488214Y-15611700D01*
X13488214Y-15554557D01*
X13502500Y-15483129D01*
X13516786Y-15440271D01*
X13531071Y-15411700D01*
X13559643Y-15368843D01*
X13573928Y-15354557D01*
X13845357Y-15697414D02*
X13673928Y-15697414D01*
X13759643Y-15697414D02*
X13759643Y-15397414D01*
X13731071Y-15440271D01*
X13702500Y-15468843D01*
X13673928Y-15483129D01*
X14116786Y-15397414D02*
X13973928Y-15397414D01*
X13959643Y-15540271D01*
X13973928Y-15525986D01*
X14002500Y-15511700D01*
X14073928Y-15511700D01*
X14102500Y-15525986D01*
X14116786Y-15540271D01*
X14131071Y-15568843D01*
X14131071Y-15640271D01*
X14116786Y-15668843D01*
X14102500Y-15683129D01*
X14073928Y-15697414D01*
X14002500Y-15697414D01*
X13973928Y-15683129D01*
X13959643Y-15668843D01*
X14488214Y-15697414D02*
X14488214Y-15397414D01*
X14616786Y-15697414D02*
X14616786Y-15540271D01*
X14602500Y-15511700D01*
X14573928Y-15497414D01*
X14531071Y-15497414D01*
X14502500Y-15511700D01*
X14488214Y-15525986D01*
X14802500Y-15697414D02*
X14773928Y-15683129D01*
X14759643Y-15668843D01*
X14745357Y-15640271D01*
X14745357Y-15554557D01*
X14759643Y-15525986D01*
X14773928Y-15511700D01*
X14802500Y-15497414D01*
X14845357Y-15497414D01*
X14873928Y-15511700D01*
X14888214Y-15525986D01*
X14902500Y-15554557D01*
X14902500Y-15640271D01*
X14888214Y-15668843D01*
X14873928Y-15683129D01*
X14845357Y-15697414D01*
X14802500Y-15697414D01*
X15073928Y-15697414D02*
X15045357Y-15683129D01*
X15031071Y-15654557D01*
X15031071Y-15397414D01*
X15302500Y-15683129D02*
X15273928Y-15697414D01*
X15216786Y-15697414D01*
X15188214Y-15683129D01*
X15173928Y-15654557D01*
X15173928Y-15540271D01*
X15188214Y-15511700D01*
X15216786Y-15497414D01*
X15273928Y-15497414D01*
X15302500Y-15511700D01*
X15316786Y-15540271D01*
X15316786Y-15568843D01*
X15173928Y-15597414D01*
X15431071Y-15683129D02*
X15459643Y-15697414D01*
X15516786Y-15697414D01*
X15545357Y-15683129D01*
X15559643Y-15654557D01*
X15559643Y-15640271D01*
X15545357Y-15611700D01*
X15516786Y-15597414D01*
X15473928Y-15597414D01*
X15445357Y-15583129D01*
X15431071Y-15554557D01*
X15431071Y-15540271D01*
X15445357Y-15511700D01*
X15473928Y-15497414D01*
X15516786Y-15497414D01*
X15545357Y-15511700D01*
X15659643Y-15811700D02*
X15673928Y-15797414D01*
X15702500Y-15754557D01*
X15716786Y-15725986D01*
X15731071Y-15683129D01*
X15745357Y-15611700D01*
X15745357Y-15554557D01*
X15731071Y-15483129D01*
X15716786Y-15440271D01*
X15702500Y-15411700D01*
X15673928Y-15368843D01*
X15659643Y-15354557D01*
X8832500Y-16012700D02*
X8887500Y-15957700D01*
X8832500Y-15902700D01*
X8777500Y-15957700D01*
X8832500Y-16012700D01*
X9331071Y-16093414D02*
X9159643Y-16093414D01*
X9245357Y-16093414D02*
X9245357Y-15793414D01*
X9216786Y-15836271D01*
X9188214Y-15864843D01*
X9159643Y-15879129D01*
X9459643Y-16064843D02*
X9473928Y-16079129D01*
X9459643Y-16093414D01*
X9445357Y-16079129D01*
X9459643Y-16064843D01*
X9459643Y-16093414D01*
X9759643Y-16093414D02*
X9588214Y-16093414D01*
X9673928Y-16093414D02*
X9673928Y-15793414D01*
X9645357Y-15836271D01*
X9616786Y-15864843D01*
X9588214Y-15879129D01*
X9945357Y-15793414D02*
X9973928Y-15793414D01*
X10002500Y-15807700D01*
X10016786Y-15821986D01*
X10031071Y-15850557D01*
X10045357Y-15907700D01*
X10045357Y-15979129D01*
X10031071Y-16036271D01*
X10016786Y-16064843D01*
X10002500Y-16079129D01*
X9973928Y-16093414D01*
X9945357Y-16093414D01*
X9916786Y-16079129D01*
X9902500Y-16064843D01*
X9888214Y-16036271D01*
X9873928Y-15979129D01*
X9873928Y-15907700D01*
X9888214Y-15850557D01*
X9902500Y-15821986D01*
X9916786Y-15807700D01*
X9945357Y-15793414D01*
X10173928Y-16093414D02*
X10173928Y-15893414D01*
X10173928Y-15921986D02*
X10188214Y-15907700D01*
X10216786Y-15893414D01*
X10259643Y-15893414D01*
X10288214Y-15907700D01*
X10302500Y-15936271D01*
X10302500Y-16093414D01*
X10302500Y-15936271D02*
X10316786Y-15907700D01*
X10345357Y-15893414D01*
X10388214Y-15893414D01*
X10416786Y-15907700D01*
X10431071Y-15936271D01*
X10431071Y-16093414D01*
X10573928Y-16093414D02*
X10573928Y-15893414D01*
X10573928Y-15921986D02*
X10588214Y-15907700D01*
X10616786Y-15893414D01*
X10659643Y-15893414D01*
X10688214Y-15907700D01*
X10702500Y-15936271D01*
X10702500Y-16093414D01*
X10702500Y-15936271D02*
X10716786Y-15907700D01*
X10745357Y-15893414D01*
X10788214Y-15893414D01*
X10816786Y-15907700D01*
X10831071Y-15936271D01*
X10831071Y-16093414D01*
X11416786Y-15779129D02*
X11159643Y-16164843D01*
X11802500Y-15793414D02*
X11831071Y-15793414D01*
X11859643Y-15807700D01*
X11873928Y-15821986D01*
X11888214Y-15850557D01*
X11902500Y-15907700D01*
X11902500Y-15979129D01*
X11888214Y-16036271D01*
X11873928Y-16064843D01*
X11859643Y-16079129D01*
X11831071Y-16093414D01*
X11802500Y-16093414D01*
X11773928Y-16079129D01*
X11759643Y-16064843D01*
X11745357Y-16036271D01*
X11731071Y-15979129D01*
X11731071Y-15907700D01*
X11745357Y-15850557D01*
X11759643Y-15821986D01*
X11773928Y-15807700D01*
X11802500Y-15793414D01*
X12031071Y-16064843D02*
X12045357Y-16079129D01*
X12031071Y-16093414D01*
X12016786Y-16079129D01*
X12031071Y-16064843D01*
X12031071Y-16093414D01*
X12231071Y-15793414D02*
X12259643Y-15793414D01*
X12288214Y-15807700D01*
X12302500Y-15821986D01*
X12316786Y-15850557D01*
X12331071Y-15907700D01*
X12331071Y-15979129D01*
X12316786Y-16036271D01*
X12302500Y-16064843D01*
X12288214Y-16079129D01*
X12259643Y-16093414D01*
X12231071Y-16093414D01*
X12202500Y-16079129D01*
X12188214Y-16064843D01*
X12173928Y-16036271D01*
X12159643Y-15979129D01*
X12159643Y-15907700D01*
X12173928Y-15850557D01*
X12188214Y-15821986D01*
X12202500Y-15807700D01*
X12231071Y-15793414D01*
X12588214Y-15893414D02*
X12588214Y-16093414D01*
X12516786Y-15779129D02*
X12445357Y-15993414D01*
X12631071Y-15993414D01*
X12716786Y-15793414D02*
X12902500Y-15793414D01*
X12802500Y-15907700D01*
X12845357Y-15907700D01*
X12873928Y-15921986D01*
X12888214Y-15936271D01*
X12902500Y-15964843D01*
X12902500Y-16036271D01*
X12888214Y-16064843D01*
X12873928Y-16079129D01*
X12845357Y-16093414D01*
X12759643Y-16093414D01*
X12731071Y-16079129D01*
X12716786Y-16064843D01*
X13016786Y-15793414D02*
X13016786Y-15850557D01*
X13131071Y-15793414D02*
X13131071Y-15850557D01*
X13573928Y-16207700D02*
X13559643Y-16193414D01*
X13531071Y-16150557D01*
X13516786Y-16121986D01*
X13502500Y-16079129D01*
X13488214Y-16007700D01*
X13488214Y-15950557D01*
X13502500Y-15879129D01*
X13516786Y-15836271D01*
X13531071Y-15807700D01*
X13559643Y-15764843D01*
X13573928Y-15750557D01*
X13845357Y-16093414D02*
X13673928Y-16093414D01*
X13759643Y-16093414D02*
X13759643Y-15793414D01*
X13731071Y-15836271D01*
X13702500Y-15864843D01*
X13673928Y-15879129D01*
X13988214Y-16093414D02*
X14045357Y-16093414D01*
X14073928Y-16079129D01*
X14088214Y-16064843D01*
X14116786Y-16021986D01*
X14131071Y-15964843D01*
X14131071Y-15850557D01*
X14116786Y-15821986D01*
X14102500Y-15807700D01*
X14073928Y-15793414D01*
X14016786Y-15793414D01*
X13988214Y-15807700D01*
X13973928Y-15821986D01*
X13959643Y-15850557D01*
X13959643Y-15921986D01*
X13973928Y-15950557D01*
X13988214Y-15964843D01*
X14016786Y-15979129D01*
X14073928Y-15979129D01*
X14102500Y-15964843D01*
X14116786Y-15950557D01*
X14131071Y-15921986D01*
X14488214Y-16093414D02*
X14488214Y-15793414D01*
X14616786Y-16093414D02*
X14616786Y-15936271D01*
X14602500Y-15907700D01*
X14573928Y-15893414D01*
X14531071Y-15893414D01*
X14502500Y-15907700D01*
X14488214Y-15921986D01*
X14802500Y-16093414D02*
X14773928Y-16079129D01*
X14759643Y-16064843D01*
X14745357Y-16036271D01*
X14745357Y-15950557D01*
X14759643Y-15921986D01*
X14773928Y-15907700D01*
X14802500Y-15893414D01*
X14845357Y-15893414D01*
X14873928Y-15907700D01*
X14888214Y-15921986D01*
X14902500Y-15950557D01*
X14902500Y-16036271D01*
X14888214Y-16064843D01*
X14873928Y-16079129D01*
X14845357Y-16093414D01*
X14802500Y-16093414D01*
X15073928Y-16093414D02*
X15045357Y-16079129D01*
X15031071Y-16050557D01*
X15031071Y-15793414D01*
X15302500Y-16079129D02*
X15273928Y-16093414D01*
X15216786Y-16093414D01*
X15188214Y-16079129D01*
X15173928Y-16050557D01*
X15173928Y-15936271D01*
X15188214Y-15907700D01*
X15216786Y-15893414D01*
X15273928Y-15893414D01*
X15302500Y-15907700D01*
X15316786Y-15936271D01*
X15316786Y-15964843D01*
X15173928Y-15993414D01*
X15431071Y-16079129D02*
X15459643Y-16093414D01*
X15516786Y-16093414D01*
X15545357Y-16079129D01*
X15559643Y-16050557D01*
X15559643Y-16036271D01*
X15545357Y-16007700D01*
X15516786Y-15993414D01*
X15473928Y-15993414D01*
X15445357Y-15979129D01*
X15431071Y-15950557D01*
X15431071Y-15936271D01*
X15445357Y-15907700D01*
X15473928Y-15893414D01*
X15516786Y-15893414D01*
X15545357Y-15907700D01*
X15659643Y-16207700D02*
X15673928Y-16193414D01*
X15702500Y-16150557D01*
X15716786Y-16121986D01*
X15731071Y-16079129D01*
X15745357Y-16007700D01*
X15745357Y-15950557D01*
X15731071Y-15879129D01*
X15716786Y-15836271D01*
X15702500Y-15807700D01*
X15673928Y-15764843D01*
X15659643Y-15750557D01*
X8767500Y-16293700D02*
X8887500Y-16413700D01*
X8887500Y-16293700D02*
X8767500Y-16413700D01*
X8887500Y-16353700D02*
G75*
G03*
X8887500Y-16353700I-60000J0D01*
G01*
X9331071Y-16489414D02*
X9159643Y-16489414D01*
X9245357Y-16489414D02*
X9245357Y-16189414D01*
X9216786Y-16232271D01*
X9188214Y-16260843D01*
X9159643Y-16275129D01*
X9459643Y-16460843D02*
X9473928Y-16475129D01*
X9459643Y-16489414D01*
X9445357Y-16475129D01*
X9459643Y-16460843D01*
X9459643Y-16489414D01*
X9588214Y-16217986D02*
X9602500Y-16203700D01*
X9631071Y-16189414D01*
X9702500Y-16189414D01*
X9731071Y-16203700D01*
X9745357Y-16217986D01*
X9759643Y-16246557D01*
X9759643Y-16275129D01*
X9745357Y-16317986D01*
X9573928Y-16489414D01*
X9759643Y-16489414D01*
X9945357Y-16189414D02*
X9973928Y-16189414D01*
X10002500Y-16203700D01*
X10016786Y-16217986D01*
X10031071Y-16246557D01*
X10045357Y-16303700D01*
X10045357Y-16375129D01*
X10031071Y-16432271D01*
X10016786Y-16460843D01*
X10002500Y-16475129D01*
X9973928Y-16489414D01*
X9945357Y-16489414D01*
X9916786Y-16475129D01*
X9902500Y-16460843D01*
X9888214Y-16432271D01*
X9873928Y-16375129D01*
X9873928Y-16303700D01*
X9888214Y-16246557D01*
X9902500Y-16217986D01*
X9916786Y-16203700D01*
X9945357Y-16189414D01*
X10173928Y-16489414D02*
X10173928Y-16289414D01*
X10173928Y-16317986D02*
X10188214Y-16303700D01*
X10216786Y-16289414D01*
X10259643Y-16289414D01*
X10288214Y-16303700D01*
X10302500Y-16332271D01*
X10302500Y-16489414D01*
X10302500Y-16332271D02*
X10316786Y-16303700D01*
X10345357Y-16289414D01*
X10388214Y-16289414D01*
X10416786Y-16303700D01*
X10431071Y-16332271D01*
X10431071Y-16489414D01*
X10573928Y-16489414D02*
X10573928Y-16289414D01*
X10573928Y-16317986D02*
X10588214Y-16303700D01*
X10616786Y-16289414D01*
X10659643Y-16289414D01*
X10688214Y-16303700D01*
X10702500Y-16332271D01*
X10702500Y-16489414D01*
X10702500Y-16332271D02*
X10716786Y-16303700D01*
X10745357Y-16289414D01*
X10788214Y-16289414D01*
X10816786Y-16303700D01*
X10831071Y-16332271D01*
X10831071Y-16489414D01*
X11416786Y-16175129D02*
X11159643Y-16560843D01*
X11802500Y-16189414D02*
X11831071Y-16189414D01*
X11859643Y-16203700D01*
X11873928Y-16217986D01*
X11888214Y-16246557D01*
X11902500Y-16303700D01*
X11902500Y-16375129D01*
X11888214Y-16432271D01*
X11873928Y-16460843D01*
X11859643Y-16475129D01*
X11831071Y-16489414D01*
X11802500Y-16489414D01*
X11773928Y-16475129D01*
X11759643Y-16460843D01*
X11745357Y-16432271D01*
X11731071Y-16375129D01*
X11731071Y-16303700D01*
X11745357Y-16246557D01*
X11759643Y-16217986D01*
X11773928Y-16203700D01*
X11802500Y-16189414D01*
X12031071Y-16460843D02*
X12045357Y-16475129D01*
X12031071Y-16489414D01*
X12016786Y-16475129D01*
X12031071Y-16460843D01*
X12031071Y-16489414D01*
X12231071Y-16189414D02*
X12259643Y-16189414D01*
X12288214Y-16203700D01*
X12302500Y-16217986D01*
X12316786Y-16246557D01*
X12331071Y-16303700D01*
X12331071Y-16375129D01*
X12316786Y-16432271D01*
X12302500Y-16460843D01*
X12288214Y-16475129D01*
X12259643Y-16489414D01*
X12231071Y-16489414D01*
X12202500Y-16475129D01*
X12188214Y-16460843D01*
X12173928Y-16432271D01*
X12159643Y-16375129D01*
X12159643Y-16303700D01*
X12173928Y-16246557D01*
X12188214Y-16217986D01*
X12202500Y-16203700D01*
X12231071Y-16189414D01*
X12588214Y-16289414D02*
X12588214Y-16489414D01*
X12516786Y-16175129D02*
X12445357Y-16389414D01*
X12631071Y-16389414D01*
X12716786Y-16189414D02*
X12916786Y-16189414D01*
X12788214Y-16489414D01*
X13016786Y-16189414D02*
X13016786Y-16246557D01*
X13131071Y-16189414D02*
X13131071Y-16246557D01*
X13573928Y-16603700D02*
X13559643Y-16589414D01*
X13531071Y-16546557D01*
X13516786Y-16517986D01*
X13502500Y-16475129D01*
X13488214Y-16403700D01*
X13488214Y-16346557D01*
X13502500Y-16275129D01*
X13516786Y-16232271D01*
X13531071Y-16203700D01*
X13559643Y-16160843D01*
X13573928Y-16146557D01*
X13731071Y-16317986D02*
X13702500Y-16303700D01*
X13688214Y-16289414D01*
X13673928Y-16260843D01*
X13673928Y-16246557D01*
X13688214Y-16217986D01*
X13702500Y-16203700D01*
X13731071Y-16189414D01*
X13788214Y-16189414D01*
X13816786Y-16203700D01*
X13831071Y-16217986D01*
X13845357Y-16246557D01*
X13845357Y-16260843D01*
X13831071Y-16289414D01*
X13816786Y-16303700D01*
X13788214Y-16317986D01*
X13731071Y-16317986D01*
X13702500Y-16332271D01*
X13688214Y-16346557D01*
X13673928Y-16375129D01*
X13673928Y-16432271D01*
X13688214Y-16460843D01*
X13702500Y-16475129D01*
X13731071Y-16489414D01*
X13788214Y-16489414D01*
X13816786Y-16475129D01*
X13831071Y-16460843D01*
X13845357Y-16432271D01*
X13845357Y-16375129D01*
X13831071Y-16346557D01*
X13816786Y-16332271D01*
X13788214Y-16317986D01*
X14202500Y-16489414D02*
X14202500Y-16189414D01*
X14331071Y-16489414D02*
X14331071Y-16332271D01*
X14316786Y-16303700D01*
X14288214Y-16289414D01*
X14245357Y-16289414D01*
X14216786Y-16303700D01*
X14202500Y-16317986D01*
X14516786Y-16489414D02*
X14488214Y-16475129D01*
X14473928Y-16460843D01*
X14459643Y-16432271D01*
X14459643Y-16346557D01*
X14473928Y-16317986D01*
X14488214Y-16303700D01*
X14516786Y-16289414D01*
X14559643Y-16289414D01*
X14588214Y-16303700D01*
X14602500Y-16317986D01*
X14616786Y-16346557D01*
X14616786Y-16432271D01*
X14602500Y-16460843D01*
X14588214Y-16475129D01*
X14559643Y-16489414D01*
X14516786Y-16489414D01*
X14788214Y-16489414D02*
X14759643Y-16475129D01*
X14745357Y-16446557D01*
X14745357Y-16189414D01*
X15016786Y-16475129D02*
X14988214Y-16489414D01*
X14931071Y-16489414D01*
X14902500Y-16475129D01*
X14888214Y-16446557D01*
X14888214Y-16332271D01*
X14902500Y-16303700D01*
X14931071Y-16289414D01*
X14988214Y-16289414D01*
X15016786Y-16303700D01*
X15031071Y-16332271D01*
X15031071Y-16360843D01*
X14888214Y-16389414D01*
X15145357Y-16475129D02*
X15173928Y-16489414D01*
X15231071Y-16489414D01*
X15259643Y-16475129D01*
X15273928Y-16446557D01*
X15273928Y-16432271D01*
X15259643Y-16403700D01*
X15231071Y-16389414D01*
X15188214Y-16389414D01*
X15159643Y-16375129D01*
X15145357Y-16346557D01*
X15145357Y-16332271D01*
X15159643Y-16303700D01*
X15188214Y-16289414D01*
X15231071Y-16289414D01*
X15259643Y-16303700D01*
X15373928Y-16603700D02*
X15388214Y-16589414D01*
X15416786Y-16546557D01*
X15431071Y-16517986D01*
X15445357Y-16475129D01*
X15459643Y-16403700D01*
X15459643Y-16346557D01*
X15445357Y-16275129D01*
X15431071Y-16232271D01*
X15416786Y-16203700D01*
X15388214Y-16160843D01*
X15373928Y-16146557D01*
X8657500Y-16634700D02*
X8887500Y-16864700D01*
X8887500Y-16634700D02*
X8657500Y-16864700D01*
X8772500Y-16634700D02*
X8772500Y-16864700D01*
X8657500Y-16749700D02*
X8887500Y-16749700D01*
X9159643Y-16613986D02*
X9173928Y-16599700D01*
X9202500Y-16585414D01*
X9273928Y-16585414D01*
X9302500Y-16599700D01*
X9316786Y-16613986D01*
X9331071Y-16642557D01*
X9331071Y-16671129D01*
X9316786Y-16713986D01*
X9145357Y-16885414D01*
X9331071Y-16885414D01*
X9459643Y-16856843D02*
X9473928Y-16871129D01*
X9459643Y-16885414D01*
X9445357Y-16871129D01*
X9459643Y-16856843D01*
X9459643Y-16885414D01*
X9573928Y-16585414D02*
X9759643Y-16585414D01*
X9659643Y-16699700D01*
X9702500Y-16699700D01*
X9731071Y-16713986D01*
X9745357Y-16728271D01*
X9759643Y-16756843D01*
X9759643Y-16828272D01*
X9745357Y-16856843D01*
X9731071Y-16871129D01*
X9702500Y-16885414D01*
X9616786Y-16885414D01*
X9588214Y-16871129D01*
X9573928Y-16856843D01*
X9945357Y-16585414D02*
X9973928Y-16585414D01*
X10002500Y-16599700D01*
X10016786Y-16613986D01*
X10031071Y-16642557D01*
X10045357Y-16699700D01*
X10045357Y-16771129D01*
X10031071Y-16828272D01*
X10016786Y-16856843D01*
X10002500Y-16871129D01*
X9973928Y-16885414D01*
X9945357Y-16885414D01*
X9916786Y-16871129D01*
X9902500Y-16856843D01*
X9888214Y-16828272D01*
X9873928Y-16771129D01*
X9873928Y-16699700D01*
X9888214Y-16642557D01*
X9902500Y-16613986D01*
X9916786Y-16599700D01*
X9945357Y-16585414D01*
X10173928Y-16885414D02*
X10173928Y-16685414D01*
X10173928Y-16713986D02*
X10188214Y-16699700D01*
X10216786Y-16685414D01*
X10259643Y-16685414D01*
X10288214Y-16699700D01*
X10302500Y-16728271D01*
X10302500Y-16885414D01*
X10302500Y-16728271D02*
X10316786Y-16699700D01*
X10345357Y-16685414D01*
X10388214Y-16685414D01*
X10416786Y-16699700D01*
X10431071Y-16728271D01*
X10431071Y-16885414D01*
X10573928Y-16885414D02*
X10573928Y-16685414D01*
X10573928Y-16713986D02*
X10588214Y-16699700D01*
X10616786Y-16685414D01*
X10659643Y-16685414D01*
X10688214Y-16699700D01*
X10702500Y-16728271D01*
X10702500Y-16885414D01*
X10702500Y-16728271D02*
X10716786Y-16699700D01*
X10745357Y-16685414D01*
X10788214Y-16685414D01*
X10816786Y-16699700D01*
X10831071Y-16728271D01*
X10831071Y-16885414D01*
X11416786Y-16571129D02*
X11159643Y-16956843D01*
X11802500Y-16585414D02*
X11831071Y-16585414D01*
X11859643Y-16599700D01*
X11873928Y-16613986D01*
X11888214Y-16642557D01*
X11902500Y-16699700D01*
X11902500Y-16771129D01*
X11888214Y-16828272D01*
X11873928Y-16856843D01*
X11859643Y-16871129D01*
X11831071Y-16885414D01*
X11802500Y-16885414D01*
X11773928Y-16871129D01*
X11759643Y-16856843D01*
X11745357Y-16828272D01*
X11731071Y-16771129D01*
X11731071Y-16699700D01*
X11745357Y-16642557D01*
X11759643Y-16613986D01*
X11773928Y-16599700D01*
X11802500Y-16585414D01*
X12031071Y-16856843D02*
X12045357Y-16871129D01*
X12031071Y-16885414D01*
X12016786Y-16871129D01*
X12031071Y-16856843D01*
X12031071Y-16885414D01*
X12231071Y-16585414D02*
X12259643Y-16585414D01*
X12288214Y-16599700D01*
X12302500Y-16613986D01*
X12316786Y-16642557D01*
X12331071Y-16699700D01*
X12331071Y-16771129D01*
X12316786Y-16828272D01*
X12302500Y-16856843D01*
X12288214Y-16871129D01*
X12259643Y-16885414D01*
X12231071Y-16885414D01*
X12202500Y-16871129D01*
X12188214Y-16856843D01*
X12173928Y-16828272D01*
X12159643Y-16771129D01*
X12159643Y-16699700D01*
X12173928Y-16642557D01*
X12188214Y-16613986D01*
X12202500Y-16599700D01*
X12231071Y-16585414D01*
X12473928Y-16885414D02*
X12531071Y-16885414D01*
X12559643Y-16871129D01*
X12573928Y-16856843D01*
X12602500Y-16813986D01*
X12616786Y-16756843D01*
X12616786Y-16642557D01*
X12602500Y-16613986D01*
X12588214Y-16599700D01*
X12559643Y-16585414D01*
X12502500Y-16585414D01*
X12473928Y-16599700D01*
X12459643Y-16613986D01*
X12445357Y-16642557D01*
X12445357Y-16713986D01*
X12459643Y-16742557D01*
X12473928Y-16756843D01*
X12502500Y-16771129D01*
X12559643Y-16771129D01*
X12588214Y-16756843D01*
X12602500Y-16742557D01*
X12616786Y-16713986D01*
X12902500Y-16885414D02*
X12731071Y-16885414D01*
X12816786Y-16885414D02*
X12816786Y-16585414D01*
X12788214Y-16628271D01*
X12759643Y-16656843D01*
X12731071Y-16671129D01*
X13016786Y-16585414D02*
X13016786Y-16642557D01*
X13131071Y-16585414D02*
X13131071Y-16642557D01*
X13573928Y-16999700D02*
X13559643Y-16985414D01*
X13531071Y-16942557D01*
X13516786Y-16913986D01*
X13502500Y-16871129D01*
X13488214Y-16799700D01*
X13488214Y-16742557D01*
X13502500Y-16671129D01*
X13516786Y-16628271D01*
X13531071Y-16599700D01*
X13559643Y-16556843D01*
X13573928Y-16542557D01*
X13845357Y-16885414D02*
X13673928Y-16885414D01*
X13759643Y-16885414D02*
X13759643Y-16585414D01*
X13731071Y-16628271D01*
X13702500Y-16656843D01*
X13673928Y-16671129D01*
X14202500Y-16885414D02*
X14202500Y-16585414D01*
X14331071Y-16885414D02*
X14331071Y-16728271D01*
X14316786Y-16699700D01*
X14288214Y-16685414D01*
X14245357Y-16685414D01*
X14216786Y-16699700D01*
X14202500Y-16713986D01*
X14516786Y-16885414D02*
X14488214Y-16871129D01*
X14473928Y-16856843D01*
X14459643Y-16828272D01*
X14459643Y-16742557D01*
X14473928Y-16713986D01*
X14488214Y-16699700D01*
X14516786Y-16685414D01*
X14559643Y-16685414D01*
X14588214Y-16699700D01*
X14602500Y-16713986D01*
X14616786Y-16742557D01*
X14616786Y-16828272D01*
X14602500Y-16856843D01*
X14588214Y-16871129D01*
X14559643Y-16885414D01*
X14516786Y-16885414D01*
X14788214Y-16885414D02*
X14759643Y-16871129D01*
X14745357Y-16842557D01*
X14745357Y-16585414D01*
X15016786Y-16871129D02*
X14988214Y-16885414D01*
X14931071Y-16885414D01*
X14902500Y-16871129D01*
X14888214Y-16842557D01*
X14888214Y-16728271D01*
X14902500Y-16699700D01*
X14931071Y-16685414D01*
X14988214Y-16685414D01*
X15016786Y-16699700D01*
X15031071Y-16728271D01*
X15031071Y-16756843D01*
X14888214Y-16785414D01*
X15131071Y-16999700D02*
X15145357Y-16985414D01*
X15173928Y-16942557D01*
X15188214Y-16913986D01*
X15202500Y-16871129D01*
X15216786Y-16799700D01*
X15216786Y-16742557D01*
X15202500Y-16671129D01*
X15188214Y-16628271D01*
X15173928Y-16599700D01*
X15145357Y-16556843D01*
X15131071Y-16542557D01*
X8637500Y-17020700D02*
X8887500Y-17270700D01*
X8887500Y-17020700D02*
X8637500Y-17270700D01*
X8850889Y-17234089D02*
X8850889Y-17057311D01*
X8674111Y-17057311D01*
X8674111Y-17234089D01*
X8850889Y-17234089D01*
X9159643Y-17009986D02*
X9173928Y-16995700D01*
X9202500Y-16981414D01*
X9273928Y-16981414D01*
X9302500Y-16995700D01*
X9316786Y-17009986D01*
X9331071Y-17038557D01*
X9331071Y-17067129D01*
X9316786Y-17109986D01*
X9145357Y-17281414D01*
X9331071Y-17281414D01*
X9459643Y-17252843D02*
X9473928Y-17267129D01*
X9459643Y-17281414D01*
X9445357Y-17267129D01*
X9459643Y-17252843D01*
X9459643Y-17281414D01*
X9745357Y-16981414D02*
X9602500Y-16981414D01*
X9588214Y-17124272D01*
X9602500Y-17109986D01*
X9631071Y-17095700D01*
X9702500Y-17095700D01*
X9731071Y-17109986D01*
X9745357Y-17124272D01*
X9759643Y-17152843D01*
X9759643Y-17224272D01*
X9745357Y-17252843D01*
X9731071Y-17267129D01*
X9702500Y-17281414D01*
X9631071Y-17281414D01*
X9602500Y-17267129D01*
X9588214Y-17252843D01*
X9945357Y-16981414D02*
X9973928Y-16981414D01*
X10002500Y-16995700D01*
X10016786Y-17009986D01*
X10031071Y-17038557D01*
X10045357Y-17095700D01*
X10045357Y-17167129D01*
X10031071Y-17224272D01*
X10016786Y-17252843D01*
X10002500Y-17267129D01*
X9973928Y-17281414D01*
X9945357Y-17281414D01*
X9916786Y-17267129D01*
X9902500Y-17252843D01*
X9888214Y-17224272D01*
X9873928Y-17167129D01*
X9873928Y-17095700D01*
X9888214Y-17038557D01*
X9902500Y-17009986D01*
X9916786Y-16995700D01*
X9945357Y-16981414D01*
X10173928Y-17281414D02*
X10173928Y-17081414D01*
X10173928Y-17109986D02*
X10188214Y-17095700D01*
X10216786Y-17081414D01*
X10259643Y-17081414D01*
X10288214Y-17095700D01*
X10302500Y-17124272D01*
X10302500Y-17281414D01*
X10302500Y-17124272D02*
X10316786Y-17095700D01*
X10345357Y-17081414D01*
X10388214Y-17081414D01*
X10416786Y-17095700D01*
X10431071Y-17124272D01*
X10431071Y-17281414D01*
X10573928Y-17281414D02*
X10573928Y-17081414D01*
X10573928Y-17109986D02*
X10588214Y-17095700D01*
X10616786Y-17081414D01*
X10659643Y-17081414D01*
X10688214Y-17095700D01*
X10702500Y-17124272D01*
X10702500Y-17281414D01*
X10702500Y-17124272D02*
X10716786Y-17095700D01*
X10745357Y-17081414D01*
X10788214Y-17081414D01*
X10816786Y-17095700D01*
X10831071Y-17124272D01*
X10831071Y-17281414D01*
X11416786Y-16967129D02*
X11159643Y-17352843D01*
X11802500Y-16981414D02*
X11831071Y-16981414D01*
X11859643Y-16995700D01*
X11873928Y-17009986D01*
X11888214Y-17038557D01*
X11902500Y-17095700D01*
X11902500Y-17167129D01*
X11888214Y-17224272D01*
X11873928Y-17252843D01*
X11859643Y-17267129D01*
X11831071Y-17281414D01*
X11802500Y-17281414D01*
X11773928Y-17267129D01*
X11759643Y-17252843D01*
X11745357Y-17224272D01*
X11731071Y-17167129D01*
X11731071Y-17095700D01*
X11745357Y-17038557D01*
X11759643Y-17009986D01*
X11773928Y-16995700D01*
X11802500Y-16981414D01*
X12031071Y-17252843D02*
X12045357Y-17267129D01*
X12031071Y-17281414D01*
X12016786Y-17267129D01*
X12031071Y-17252843D01*
X12031071Y-17281414D01*
X12231071Y-16981414D02*
X12259643Y-16981414D01*
X12288214Y-16995700D01*
X12302500Y-17009986D01*
X12316786Y-17038557D01*
X12331071Y-17095700D01*
X12331071Y-17167129D01*
X12316786Y-17224272D01*
X12302500Y-17252843D01*
X12288214Y-17267129D01*
X12259643Y-17281414D01*
X12231071Y-17281414D01*
X12202500Y-17267129D01*
X12188214Y-17252843D01*
X12173928Y-17224272D01*
X12159643Y-17167129D01*
X12159643Y-17095700D01*
X12173928Y-17038557D01*
X12188214Y-17009986D01*
X12202500Y-16995700D01*
X12231071Y-16981414D01*
X12473928Y-17281414D02*
X12531071Y-17281414D01*
X12559643Y-17267129D01*
X12573928Y-17252843D01*
X12602500Y-17209986D01*
X12616786Y-17152843D01*
X12616786Y-17038557D01*
X12602500Y-17009986D01*
X12588214Y-16995700D01*
X12559643Y-16981414D01*
X12502500Y-16981414D01*
X12473928Y-16995700D01*
X12459643Y-17009986D01*
X12445357Y-17038557D01*
X12445357Y-17109986D01*
X12459643Y-17138557D01*
X12473928Y-17152843D01*
X12502500Y-17167129D01*
X12559643Y-17167129D01*
X12588214Y-17152843D01*
X12602500Y-17138557D01*
X12616786Y-17109986D01*
X12788214Y-17109986D02*
X12759643Y-17095700D01*
X12745357Y-17081414D01*
X12731071Y-17052843D01*
X12731071Y-17038557D01*
X12745357Y-17009986D01*
X12759643Y-16995700D01*
X12788214Y-16981414D01*
X12845357Y-16981414D01*
X12873928Y-16995700D01*
X12888214Y-17009986D01*
X12902500Y-17038557D01*
X12902500Y-17052843D01*
X12888214Y-17081414D01*
X12873928Y-17095700D01*
X12845357Y-17109986D01*
X12788214Y-17109986D01*
X12759643Y-17124272D01*
X12745357Y-17138557D01*
X12731071Y-17167129D01*
X12731071Y-17224272D01*
X12745357Y-17252843D01*
X12759643Y-17267129D01*
X12788214Y-17281414D01*
X12845357Y-17281414D01*
X12873928Y-17267129D01*
X12888214Y-17252843D01*
X12902500Y-17224272D01*
X12902500Y-17167129D01*
X12888214Y-17138557D01*
X12873928Y-17124272D01*
X12845357Y-17109986D01*
X13016786Y-16981414D02*
X13016786Y-17038557D01*
X13131071Y-16981414D02*
X13131071Y-17038557D01*
X13573928Y-17395700D02*
X13559643Y-17381414D01*
X13531071Y-17338557D01*
X13516786Y-17309986D01*
X13502500Y-17267129D01*
X13488214Y-17195700D01*
X13488214Y-17138557D01*
X13502500Y-17067129D01*
X13516786Y-17024272D01*
X13531071Y-16995700D01*
X13559643Y-16952843D01*
X13573928Y-16938557D01*
X13673928Y-17009986D02*
X13688214Y-16995700D01*
X13716786Y-16981414D01*
X13788214Y-16981414D01*
X13816786Y-16995700D01*
X13831071Y-17009986D01*
X13845357Y-17038557D01*
X13845357Y-17067129D01*
X13831071Y-17109986D01*
X13659643Y-17281414D01*
X13845357Y-17281414D01*
X14202500Y-17281414D02*
X14202500Y-16981414D01*
X14331071Y-17281414D02*
X14331071Y-17124272D01*
X14316786Y-17095700D01*
X14288214Y-17081414D01*
X14245357Y-17081414D01*
X14216786Y-17095700D01*
X14202500Y-17109986D01*
X14516786Y-17281414D02*
X14488214Y-17267129D01*
X14473928Y-17252843D01*
X14459643Y-17224272D01*
X14459643Y-17138557D01*
X14473928Y-17109986D01*
X14488214Y-17095700D01*
X14516786Y-17081414D01*
X14559643Y-17081414D01*
X14588214Y-17095700D01*
X14602500Y-17109986D01*
X14616786Y-17138557D01*
X14616786Y-17224272D01*
X14602500Y-17252843D01*
X14588214Y-17267129D01*
X14559643Y-17281414D01*
X14516786Y-17281414D01*
X14788214Y-17281414D02*
X14759643Y-17267129D01*
X14745357Y-17238557D01*
X14745357Y-16981414D01*
X15016786Y-17267129D02*
X14988214Y-17281414D01*
X14931071Y-17281414D01*
X14902500Y-17267129D01*
X14888214Y-17238557D01*
X14888214Y-17124272D01*
X14902500Y-17095700D01*
X14931071Y-17081414D01*
X14988214Y-17081414D01*
X15016786Y-17095700D01*
X15031071Y-17124272D01*
X15031071Y-17152843D01*
X14888214Y-17181414D01*
X15145357Y-17267129D02*
X15173928Y-17281414D01*
X15231071Y-17281414D01*
X15259643Y-17267129D01*
X15273928Y-17238557D01*
X15273928Y-17224272D01*
X15259643Y-17195700D01*
X15231071Y-17181414D01*
X15188214Y-17181414D01*
X15159643Y-17167129D01*
X15145357Y-17138557D01*
X15145357Y-17124272D01*
X15159643Y-17095700D01*
X15188214Y-17081414D01*
X15231071Y-17081414D01*
X15259643Y-17095700D01*
X15373928Y-17395700D02*
X15388214Y-17381414D01*
X15416786Y-17338557D01*
X15431071Y-17309986D01*
X15445357Y-17267129D01*
X15459643Y-17195700D01*
X15459643Y-17138557D01*
X15445357Y-17067129D01*
X15431071Y-17024272D01*
X15416786Y-16995700D01*
X15388214Y-16952843D01*
X15373928Y-16938557D01*
X8607500Y-17401700D02*
X8887500Y-17681700D01*
X8887500Y-17401700D02*
X8607500Y-17681700D01*
X8747500Y-17681700D02*
X8887500Y-17541700D01*
X8747500Y-17401700D01*
X8607500Y-17541700D01*
X8747500Y-17681700D01*
X9159643Y-17405986D02*
X9173928Y-17391700D01*
X9202500Y-17377414D01*
X9273928Y-17377414D01*
X9302500Y-17391700D01*
X9316786Y-17405986D01*
X9331071Y-17434557D01*
X9331071Y-17463129D01*
X9316786Y-17505986D01*
X9145357Y-17677414D01*
X9331071Y-17677414D01*
X9459643Y-17648843D02*
X9473928Y-17663129D01*
X9459643Y-17677414D01*
X9445357Y-17663129D01*
X9459643Y-17648843D01*
X9459643Y-17677414D01*
X9645357Y-17505986D02*
X9616786Y-17491700D01*
X9602500Y-17477414D01*
X9588214Y-17448843D01*
X9588214Y-17434557D01*
X9602500Y-17405986D01*
X9616786Y-17391700D01*
X9645357Y-17377414D01*
X9702500Y-17377414D01*
X9731071Y-17391700D01*
X9745357Y-17405986D01*
X9759643Y-17434557D01*
X9759643Y-17448843D01*
X9745357Y-17477414D01*
X9731071Y-17491700D01*
X9702500Y-17505986D01*
X9645357Y-17505986D01*
X9616786Y-17520272D01*
X9602500Y-17534557D01*
X9588214Y-17563129D01*
X9588214Y-17620272D01*
X9602500Y-17648843D01*
X9616786Y-17663129D01*
X9645357Y-17677414D01*
X9702500Y-17677414D01*
X9731071Y-17663129D01*
X9745357Y-17648843D01*
X9759643Y-17620272D01*
X9759643Y-17563129D01*
X9745357Y-17534557D01*
X9731071Y-17520272D01*
X9702500Y-17505986D01*
X9945357Y-17377414D02*
X9973928Y-17377414D01*
X10002500Y-17391700D01*
X10016786Y-17405986D01*
X10031071Y-17434557D01*
X10045357Y-17491700D01*
X10045357Y-17563129D01*
X10031071Y-17620272D01*
X10016786Y-17648843D01*
X10002500Y-17663129D01*
X9973928Y-17677414D01*
X9945357Y-17677414D01*
X9916786Y-17663129D01*
X9902500Y-17648843D01*
X9888214Y-17620272D01*
X9873928Y-17563129D01*
X9873928Y-17491700D01*
X9888214Y-17434557D01*
X9902500Y-17405986D01*
X9916786Y-17391700D01*
X9945357Y-17377414D01*
X10173928Y-17677414D02*
X10173928Y-17477414D01*
X10173928Y-17505986D02*
X10188214Y-17491700D01*
X10216786Y-17477414D01*
X10259643Y-17477414D01*
X10288214Y-17491700D01*
X10302500Y-17520272D01*
X10302500Y-17677414D01*
X10302500Y-17520272D02*
X10316786Y-17491700D01*
X10345357Y-17477414D01*
X10388214Y-17477414D01*
X10416786Y-17491700D01*
X10431071Y-17520272D01*
X10431071Y-17677414D01*
X10573928Y-17677414D02*
X10573928Y-17477414D01*
X10573928Y-17505986D02*
X10588214Y-17491700D01*
X10616786Y-17477414D01*
X10659643Y-17477414D01*
X10688214Y-17491700D01*
X10702500Y-17520272D01*
X10702500Y-17677414D01*
X10702500Y-17520272D02*
X10716786Y-17491700D01*
X10745357Y-17477414D01*
X10788214Y-17477414D01*
X10816786Y-17491700D01*
X10831071Y-17520272D01*
X10831071Y-17677414D01*
X11416786Y-17363129D02*
X11159643Y-17748843D01*
X11802500Y-17377414D02*
X11831071Y-17377414D01*
X11859643Y-17391700D01*
X11873928Y-17405986D01*
X11888214Y-17434557D01*
X11902500Y-17491700D01*
X11902500Y-17563129D01*
X11888214Y-17620272D01*
X11873928Y-17648843D01*
X11859643Y-17663129D01*
X11831071Y-17677414D01*
X11802500Y-17677414D01*
X11773928Y-17663129D01*
X11759643Y-17648843D01*
X11745357Y-17620272D01*
X11731071Y-17563129D01*
X11731071Y-17491700D01*
X11745357Y-17434557D01*
X11759643Y-17405986D01*
X11773928Y-17391700D01*
X11802500Y-17377414D01*
X12031071Y-17648843D02*
X12045357Y-17663129D01*
X12031071Y-17677414D01*
X12016786Y-17663129D01*
X12031071Y-17648843D01*
X12031071Y-17677414D01*
X12331071Y-17677414D02*
X12159643Y-17677414D01*
X12245357Y-17677414D02*
X12245357Y-17377414D01*
X12216786Y-17420272D01*
X12188214Y-17448843D01*
X12159643Y-17463129D01*
X12616786Y-17677414D02*
X12445357Y-17677414D01*
X12531071Y-17677414D02*
X12531071Y-17377414D01*
X12502500Y-17420272D01*
X12473928Y-17448843D01*
X12445357Y-17463129D01*
X12802500Y-17377414D02*
X12831071Y-17377414D01*
X12859643Y-17391700D01*
X12873928Y-17405986D01*
X12888214Y-17434557D01*
X12902500Y-17491700D01*
X12902500Y-17563129D01*
X12888214Y-17620272D01*
X12873928Y-17648843D01*
X12859643Y-17663129D01*
X12831071Y-17677414D01*
X12802500Y-17677414D01*
X12773928Y-17663129D01*
X12759643Y-17648843D01*
X12745357Y-17620272D01*
X12731071Y-17563129D01*
X12731071Y-17491700D01*
X12745357Y-17434557D01*
X12759643Y-17405986D01*
X12773928Y-17391700D01*
X12802500Y-17377414D01*
X13016786Y-17377414D02*
X13016786Y-17434557D01*
X13131071Y-17377414D02*
X13131071Y-17434557D01*
X13573928Y-17791700D02*
X13559643Y-17777414D01*
X13531071Y-17734557D01*
X13516786Y-17705986D01*
X13502500Y-17663129D01*
X13488214Y-17591700D01*
X13488214Y-17534557D01*
X13502500Y-17463129D01*
X13516786Y-17420272D01*
X13531071Y-17391700D01*
X13559643Y-17348843D01*
X13573928Y-17334557D01*
X13816786Y-17477414D02*
X13816786Y-17677414D01*
X13745357Y-17363129D02*
X13673928Y-17577414D01*
X13859643Y-17577414D01*
X14202500Y-17677414D02*
X14202500Y-17377414D01*
X14331071Y-17677414D02*
X14331071Y-17520272D01*
X14316786Y-17491700D01*
X14288214Y-17477414D01*
X14245357Y-17477414D01*
X14216786Y-17491700D01*
X14202500Y-17505986D01*
X14516786Y-17677414D02*
X14488214Y-17663129D01*
X14473928Y-17648843D01*
X14459643Y-17620272D01*
X14459643Y-17534557D01*
X14473928Y-17505986D01*
X14488214Y-17491700D01*
X14516786Y-17477414D01*
X14559643Y-17477414D01*
X14588214Y-17491700D01*
X14602500Y-17505986D01*
X14616786Y-17534557D01*
X14616786Y-17620272D01*
X14602500Y-17648843D01*
X14588214Y-17663129D01*
X14559643Y-17677414D01*
X14516786Y-17677414D01*
X14788214Y-17677414D02*
X14759643Y-17663129D01*
X14745357Y-17634557D01*
X14745357Y-17377414D01*
X15016786Y-17663129D02*
X14988214Y-17677414D01*
X14931071Y-17677414D01*
X14902500Y-17663129D01*
X14888214Y-17634557D01*
X14888214Y-17520272D01*
X14902500Y-17491700D01*
X14931071Y-17477414D01*
X14988214Y-17477414D01*
X15016786Y-17491700D01*
X15031071Y-17520272D01*
X15031071Y-17548843D01*
X14888214Y-17577414D01*
X15145357Y-17663129D02*
X15173928Y-17677414D01*
X15231071Y-17677414D01*
X15259643Y-17663129D01*
X15273928Y-17634557D01*
X15273928Y-17620272D01*
X15259643Y-17591700D01*
X15231071Y-17577414D01*
X15188214Y-17577414D01*
X15159643Y-17563129D01*
X15145357Y-17534557D01*
X15145357Y-17520272D01*
X15159643Y-17491700D01*
X15188214Y-17477414D01*
X15231071Y-17477414D01*
X15259643Y-17491700D01*
X15373928Y-17791700D02*
X15388214Y-17777414D01*
X15416786Y-17734557D01*
X15431071Y-17705986D01*
X15445357Y-17663129D01*
X15459643Y-17591700D01*
X15459643Y-17534557D01*
X15445357Y-17463129D01*
X15431071Y-17420272D01*
X15416786Y-17391700D01*
X15388214Y-17348843D01*
X15373928Y-17334557D01*
X8737500Y-17801700D02*
X8737500Y-18101700D01*
X8587500Y-17951700D02*
X8887500Y-17951700D01*
X8887500Y-17951700D02*
G75*
G03*
X8887500Y-17951700I-150000J0D01*
G01*
X9145357Y-17787414D02*
X9331071Y-17787414D01*
X9231071Y-17901700D01*
X9273928Y-17901700D01*
X9302500Y-17915986D01*
X9316786Y-17930272D01*
X9331071Y-17958843D01*
X9331071Y-18030272D01*
X9316786Y-18058843D01*
X9302500Y-18073129D01*
X9273928Y-18087414D01*
X9188214Y-18087414D01*
X9159643Y-18073129D01*
X9145357Y-18058843D01*
X9459643Y-18058843D02*
X9473928Y-18073129D01*
X9459643Y-18087414D01*
X9445357Y-18073129D01*
X9459643Y-18058843D01*
X9459643Y-18087414D01*
X9659643Y-17787414D02*
X9688214Y-17787414D01*
X9716786Y-17801700D01*
X9731071Y-17815986D01*
X9745357Y-17844557D01*
X9759643Y-17901700D01*
X9759643Y-17973129D01*
X9745357Y-18030272D01*
X9731071Y-18058843D01*
X9716786Y-18073129D01*
X9688214Y-18087414D01*
X9659643Y-18087414D01*
X9631071Y-18073129D01*
X9616786Y-18058843D01*
X9602500Y-18030272D01*
X9588214Y-17973129D01*
X9588214Y-17901700D01*
X9602500Y-17844557D01*
X9616786Y-17815986D01*
X9631071Y-17801700D01*
X9659643Y-17787414D01*
X9945357Y-17787414D02*
X9973928Y-17787414D01*
X10002500Y-17801700D01*
X10016786Y-17815986D01*
X10031071Y-17844557D01*
X10045357Y-17901700D01*
X10045357Y-17973129D01*
X10031071Y-18030272D01*
X10016786Y-18058843D01*
X10002500Y-18073129D01*
X9973928Y-18087414D01*
X9945357Y-18087414D01*
X9916786Y-18073129D01*
X9902500Y-18058843D01*
X9888214Y-18030272D01*
X9873928Y-17973129D01*
X9873928Y-17901700D01*
X9888214Y-17844557D01*
X9902500Y-17815986D01*
X9916786Y-17801700D01*
X9945357Y-17787414D01*
X10173928Y-18087414D02*
X10173928Y-17887414D01*
X10173928Y-17915986D02*
X10188214Y-17901700D01*
X10216786Y-17887414D01*
X10259643Y-17887414D01*
X10288214Y-17901700D01*
X10302500Y-17930272D01*
X10302500Y-18087414D01*
X10302500Y-17930272D02*
X10316786Y-17901700D01*
X10345357Y-17887414D01*
X10388214Y-17887414D01*
X10416786Y-17901700D01*
X10431071Y-17930272D01*
X10431071Y-18087414D01*
X10573928Y-18087414D02*
X10573928Y-17887414D01*
X10573928Y-17915986D02*
X10588214Y-17901700D01*
X10616786Y-17887414D01*
X10659643Y-17887414D01*
X10688214Y-17901700D01*
X10702500Y-17930272D01*
X10702500Y-18087414D01*
X10702500Y-17930272D02*
X10716786Y-17901700D01*
X10745357Y-17887414D01*
X10788214Y-17887414D01*
X10816786Y-17901700D01*
X10831071Y-17930272D01*
X10831071Y-18087414D01*
X11416786Y-17773129D02*
X11159643Y-18158843D01*
X11802500Y-17787414D02*
X11831071Y-17787414D01*
X11859643Y-17801700D01*
X11873928Y-17815986D01*
X11888214Y-17844557D01*
X11902500Y-17901700D01*
X11902500Y-17973129D01*
X11888214Y-18030272D01*
X11873928Y-18058843D01*
X11859643Y-18073129D01*
X11831071Y-18087414D01*
X11802500Y-18087414D01*
X11773928Y-18073129D01*
X11759643Y-18058843D01*
X11745357Y-18030272D01*
X11731071Y-17973129D01*
X11731071Y-17901700D01*
X11745357Y-17844557D01*
X11759643Y-17815986D01*
X11773928Y-17801700D01*
X11802500Y-17787414D01*
X12031071Y-18058843D02*
X12045357Y-18073129D01*
X12031071Y-18087414D01*
X12016786Y-18073129D01*
X12031071Y-18058843D01*
X12031071Y-18087414D01*
X12331071Y-18087414D02*
X12159643Y-18087414D01*
X12245357Y-18087414D02*
X12245357Y-17787414D01*
X12216786Y-17830272D01*
X12188214Y-17858843D01*
X12159643Y-17873129D01*
X12616786Y-18087414D02*
X12445357Y-18087414D01*
X12531071Y-18087414D02*
X12531071Y-17787414D01*
X12502500Y-17830272D01*
X12473928Y-17858843D01*
X12445357Y-17873129D01*
X12788214Y-17915986D02*
X12759643Y-17901700D01*
X12745357Y-17887414D01*
X12731071Y-17858843D01*
X12731071Y-17844557D01*
X12745357Y-17815986D01*
X12759643Y-17801700D01*
X12788214Y-17787414D01*
X12845357Y-17787414D01*
X12873928Y-17801700D01*
X12888214Y-17815986D01*
X12902500Y-17844557D01*
X12902500Y-17858843D01*
X12888214Y-17887414D01*
X12873928Y-17901700D01*
X12845357Y-17915986D01*
X12788214Y-17915986D01*
X12759643Y-17930272D01*
X12745357Y-17944557D01*
X12731071Y-17973129D01*
X12731071Y-18030272D01*
X12745357Y-18058843D01*
X12759643Y-18073129D01*
X12788214Y-18087414D01*
X12845357Y-18087414D01*
X12873928Y-18073129D01*
X12888214Y-18058843D01*
X12902500Y-18030272D01*
X12902500Y-17973129D01*
X12888214Y-17944557D01*
X12873928Y-17930272D01*
X12845357Y-17915986D01*
X13016786Y-17787414D02*
X13016786Y-17844557D01*
X13131071Y-17787414D02*
X13131071Y-17844557D01*
X13573928Y-18201700D02*
X13559643Y-18187414D01*
X13531071Y-18144557D01*
X13516786Y-18115986D01*
X13502500Y-18073129D01*
X13488214Y-18001700D01*
X13488214Y-17944557D01*
X13502500Y-17873129D01*
X13516786Y-17830272D01*
X13531071Y-17801700D01*
X13559643Y-17758843D01*
X13573928Y-17744557D01*
X13845357Y-18087414D02*
X13673928Y-18087414D01*
X13759643Y-18087414D02*
X13759643Y-17787414D01*
X13731071Y-17830272D01*
X13702500Y-17858843D01*
X13673928Y-17873129D01*
X14202500Y-18087414D02*
X14202500Y-17787414D01*
X14331071Y-18087414D02*
X14331071Y-17930272D01*
X14316786Y-17901700D01*
X14288214Y-17887414D01*
X14245357Y-17887414D01*
X14216786Y-17901700D01*
X14202500Y-17915986D01*
X14516786Y-18087414D02*
X14488214Y-18073129D01*
X14473928Y-18058843D01*
X14459643Y-18030272D01*
X14459643Y-17944557D01*
X14473928Y-17915986D01*
X14488214Y-17901700D01*
X14516786Y-17887414D01*
X14559643Y-17887414D01*
X14588214Y-17901700D01*
X14602500Y-17915986D01*
X14616786Y-17944557D01*
X14616786Y-18030272D01*
X14602500Y-18058843D01*
X14588214Y-18073129D01*
X14559643Y-18087414D01*
X14516786Y-18087414D01*
X14788214Y-18087414D02*
X14759643Y-18073129D01*
X14745357Y-18044557D01*
X14745357Y-17787414D01*
X15016786Y-18073129D02*
X14988214Y-18087414D01*
X14931071Y-18087414D01*
X14902500Y-18073129D01*
X14888214Y-18044557D01*
X14888214Y-17930272D01*
X14902500Y-17901700D01*
X14931071Y-17887414D01*
X14988214Y-17887414D01*
X15016786Y-17901700D01*
X15031071Y-17930272D01*
X15031071Y-17958843D01*
X14888214Y-17987414D01*
X15131071Y-18201700D02*
X15145357Y-18187414D01*
X15173928Y-18144557D01*
X15188214Y-18115986D01*
X15202500Y-18073129D01*
X15216786Y-18001700D01*
X15216786Y-17944557D01*
X15202500Y-17873129D01*
X15188214Y-17830272D01*
X15173928Y-17801700D01*
X15145357Y-17758843D01*
X15131071Y-17744557D01*
X8798170Y-18597370D02*
X8798170Y-18166031D01*
X8366830Y-18166031D01*
X8366830Y-18597370D01*
X8798170Y-18597370D01*
X8887500Y-18381700D02*
G75*
G03*
X8887500Y-18381700I-305000J0D01*
G01*
X9302500Y-18217414D02*
X9245357Y-18217414D01*
X9216786Y-18231700D01*
X9202500Y-18245986D01*
X9173928Y-18288843D01*
X9159643Y-18345986D01*
X9159643Y-18460272D01*
X9173928Y-18488843D01*
X9188214Y-18503129D01*
X9216786Y-18517414D01*
X9273928Y-18517414D01*
X9302500Y-18503129D01*
X9316786Y-18488843D01*
X9331071Y-18460272D01*
X9331071Y-18388843D01*
X9316786Y-18360272D01*
X9302500Y-18345986D01*
X9273928Y-18331700D01*
X9216786Y-18331700D01*
X9188214Y-18345986D01*
X9173928Y-18360272D01*
X9159643Y-18388843D01*
X9459643Y-18488843D02*
X9473928Y-18503129D01*
X9459643Y-18517414D01*
X9445357Y-18503129D01*
X9459643Y-18488843D01*
X9459643Y-18517414D01*
X9759643Y-18517414D02*
X9588214Y-18517414D01*
X9673928Y-18517414D02*
X9673928Y-18217414D01*
X9645357Y-18260272D01*
X9616786Y-18288843D01*
X9588214Y-18303129D01*
X9945357Y-18217414D02*
X9973928Y-18217414D01*
X10002500Y-18231700D01*
X10016786Y-18245986D01*
X10031071Y-18274557D01*
X10045357Y-18331700D01*
X10045357Y-18403129D01*
X10031071Y-18460272D01*
X10016786Y-18488843D01*
X10002500Y-18503129D01*
X9973928Y-18517414D01*
X9945357Y-18517414D01*
X9916786Y-18503129D01*
X9902500Y-18488843D01*
X9888214Y-18460272D01*
X9873928Y-18403129D01*
X9873928Y-18331700D01*
X9888214Y-18274557D01*
X9902500Y-18245986D01*
X9916786Y-18231700D01*
X9945357Y-18217414D01*
X10173928Y-18517414D02*
X10173928Y-18317414D01*
X10173928Y-18345986D02*
X10188214Y-18331700D01*
X10216786Y-18317414D01*
X10259643Y-18317414D01*
X10288214Y-18331700D01*
X10302500Y-18360272D01*
X10302500Y-18517414D01*
X10302500Y-18360272D02*
X10316786Y-18331700D01*
X10345357Y-18317414D01*
X10388214Y-18317414D01*
X10416786Y-18331700D01*
X10431071Y-18360272D01*
X10431071Y-18517414D01*
X10573928Y-18517414D02*
X10573928Y-18317414D01*
X10573928Y-18345986D02*
X10588214Y-18331700D01*
X10616786Y-18317414D01*
X10659643Y-18317414D01*
X10688214Y-18331700D01*
X10702500Y-18360272D01*
X10702500Y-18517414D01*
X10702500Y-18360272D02*
X10716786Y-18331700D01*
X10745357Y-18317414D01*
X10788214Y-18317414D01*
X10816786Y-18331700D01*
X10831071Y-18360272D01*
X10831071Y-18517414D01*
X11416786Y-18203129D02*
X11159643Y-18588843D01*
X11802500Y-18217414D02*
X11831071Y-18217414D01*
X11859643Y-18231700D01*
X11873928Y-18245986D01*
X11888214Y-18274557D01*
X11902500Y-18331700D01*
X11902500Y-18403129D01*
X11888214Y-18460272D01*
X11873928Y-18488843D01*
X11859643Y-18503129D01*
X11831071Y-18517414D01*
X11802500Y-18517414D01*
X11773928Y-18503129D01*
X11759643Y-18488843D01*
X11745357Y-18460272D01*
X11731071Y-18403129D01*
X11731071Y-18331700D01*
X11745357Y-18274557D01*
X11759643Y-18245986D01*
X11773928Y-18231700D01*
X11802500Y-18217414D01*
X12031071Y-18488843D02*
X12045357Y-18503129D01*
X12031071Y-18517414D01*
X12016786Y-18503129D01*
X12031071Y-18488843D01*
X12031071Y-18517414D01*
X12159643Y-18245986D02*
X12173928Y-18231700D01*
X12202500Y-18217414D01*
X12273928Y-18217414D01*
X12302500Y-18231700D01*
X12316786Y-18245986D01*
X12331071Y-18274557D01*
X12331071Y-18303129D01*
X12316786Y-18345986D01*
X12145357Y-18517414D01*
X12331071Y-18517414D01*
X12588214Y-18317414D02*
X12588214Y-18517414D01*
X12516786Y-18203129D02*
X12445357Y-18417414D01*
X12631071Y-18417414D01*
X12802500Y-18217414D02*
X12831071Y-18217414D01*
X12859643Y-18231700D01*
X12873928Y-18245986D01*
X12888214Y-18274557D01*
X12902500Y-18331700D01*
X12902500Y-18403129D01*
X12888214Y-18460272D01*
X12873928Y-18488843D01*
X12859643Y-18503129D01*
X12831071Y-18517414D01*
X12802500Y-18517414D01*
X12773928Y-18503129D01*
X12759643Y-18488843D01*
X12745357Y-18460272D01*
X12731071Y-18403129D01*
X12731071Y-18331700D01*
X12745357Y-18274557D01*
X12759643Y-18245986D01*
X12773928Y-18231700D01*
X12802500Y-18217414D01*
X13016786Y-18217414D02*
X13016786Y-18274557D01*
X13131071Y-18217414D02*
X13131071Y-18274557D01*
X13573928Y-18631700D02*
X13559643Y-18617414D01*
X13531071Y-18574557D01*
X13516786Y-18545986D01*
X13502500Y-18503129D01*
X13488214Y-18431700D01*
X13488214Y-18374557D01*
X13502500Y-18303129D01*
X13516786Y-18260272D01*
X13531071Y-18231700D01*
X13559643Y-18188843D01*
X13573928Y-18174557D01*
X13673928Y-18245986D02*
X13688214Y-18231700D01*
X13716786Y-18217414D01*
X13788214Y-18217414D01*
X13816786Y-18231700D01*
X13831071Y-18245986D01*
X13845357Y-18274557D01*
X13845357Y-18303129D01*
X13831071Y-18345986D01*
X13659643Y-18517414D01*
X13845357Y-18517414D01*
X14202500Y-18517414D02*
X14202500Y-18217414D01*
X14331071Y-18517414D02*
X14331071Y-18360272D01*
X14316786Y-18331700D01*
X14288214Y-18317414D01*
X14245357Y-18317414D01*
X14216786Y-18331700D01*
X14202500Y-18345986D01*
X14516786Y-18517414D02*
X14488214Y-18503129D01*
X14473928Y-18488843D01*
X14459643Y-18460272D01*
X14459643Y-18374557D01*
X14473928Y-18345986D01*
X14488214Y-18331700D01*
X14516786Y-18317414D01*
X14559643Y-18317414D01*
X14588214Y-18331700D01*
X14602500Y-18345986D01*
X14616786Y-18374557D01*
X14616786Y-18460272D01*
X14602500Y-18488843D01*
X14588214Y-18503129D01*
X14559643Y-18517414D01*
X14516786Y-18517414D01*
X14788214Y-18517414D02*
X14759643Y-18503129D01*
X14745357Y-18474557D01*
X14745357Y-18217414D01*
X15016786Y-18503129D02*
X14988214Y-18517414D01*
X14931071Y-18517414D01*
X14902500Y-18503129D01*
X14888214Y-18474557D01*
X14888214Y-18360272D01*
X14902500Y-18331700D01*
X14931071Y-18317414D01*
X14988214Y-18317414D01*
X15016786Y-18331700D01*
X15031071Y-18360272D01*
X15031071Y-18388843D01*
X14888214Y-18417414D01*
X15145357Y-18503129D02*
X15173928Y-18517414D01*
X15231071Y-18517414D01*
X15259643Y-18503129D01*
X15273928Y-18474557D01*
X15273928Y-18460272D01*
X15259643Y-18431700D01*
X15231071Y-18417414D01*
X15188214Y-18417414D01*
X15159643Y-18403129D01*
X15145357Y-18374557D01*
X15145357Y-18360272D01*
X15159643Y-18331700D01*
X15188214Y-18317414D01*
X15231071Y-18317414D01*
X15259643Y-18331700D01*
X15373928Y-18631700D02*
X15388214Y-18617414D01*
X15416786Y-18574557D01*
X15431071Y-18545986D01*
X15445357Y-18503129D01*
X15459643Y-18431700D01*
X15459643Y-18374557D01*
X15445357Y-18303129D01*
X15431071Y-18260272D01*
X15416786Y-18231700D01*
X15388214Y-18188843D01*
X15373928Y-18174557D01*
M02*
