%TF.GenerationSoftware,KiCad,Pcbnew,(5.1.9)-1*%
%TF.CreationDate,2022-12-04T20:34:53-06:00*%
%TF.ProjectId,Battery_Charger_V1,42617474-6572-4795-9f43-686172676572,rev?*%
%TF.SameCoordinates,Original*%
%TF.FileFunction,Soldermask,Bot*%
%TF.FilePolarity,Negative*%
%FSLAX46Y46*%
G04 Gerber Fmt 4.6, Leading zero omitted, Abs format (unit mm)*
G04 Created by KiCad (PCBNEW (5.1.9)-1) date 2022-12-04 20:34:53*
%MOMM*%
%LPD*%
G01*
G04 APERTURE LIST*
%ADD10C,1.700000*%
%ADD11C,2.000000*%
%ADD12R,2.000000X2.000000*%
%ADD13C,10.160000*%
%ADD14R,1.800000X1.800000*%
%ADD15C,1.800000*%
%ADD16R,1.500000X1.050000*%
%ADD17R,1.500000X2.400000*%
%ADD18C,0.100000*%
%ADD19R,0.900000X0.800000*%
%ADD20R,4.000000X4.000000*%
%ADD21C,3.300000*%
%ADD22C,3.500000*%
%ADD23C,1.600000*%
%ADD24R,1.700000X1.700000*%
%ADD25O,1.700000X1.700000*%
%ADD26C,4.800000*%
%ADD27R,2.000000X1.905000*%
%ADD28O,2.000000X1.905000*%
%ADD29O,1.500000X1.050000*%
%ADD30C,4.000000*%
%ADD31C,2.400000*%
%ADD32O,2.400000X2.400000*%
G04 APERTURE END LIST*
D10*
%TO.C,SW1*%
X198502000Y-103577000D03*
X198502000Y-112577000D03*
X189102000Y-103577000D03*
X189102000Y-112577000D03*
X196452000Y-105077000D03*
X196452000Y-108077000D03*
X196452000Y-111077000D03*
X191152000Y-105077000D03*
X191152000Y-108077000D03*
X191152000Y-111077000D03*
%TD*%
D11*
%TO.C,C23*%
X124460000Y-77677000D03*
D12*
X124460000Y-82677000D03*
%TD*%
D13*
%TO.C,BT1*%
X130175000Y-122682000D03*
X100205000Y-122682000D03*
%TD*%
%TO.C,C1*%
G36*
G01*
X116716000Y-96917500D02*
X116716000Y-97392500D01*
G75*
G02*
X116478500Y-97630000I-237500J0D01*
G01*
X115878500Y-97630000D01*
G75*
G02*
X115641000Y-97392500I0J237500D01*
G01*
X115641000Y-96917500D01*
G75*
G02*
X115878500Y-96680000I237500J0D01*
G01*
X116478500Y-96680000D01*
G75*
G02*
X116716000Y-96917500I0J-237500D01*
G01*
G37*
G36*
G01*
X114991000Y-96917500D02*
X114991000Y-97392500D01*
G75*
G02*
X114753500Y-97630000I-237500J0D01*
G01*
X114153500Y-97630000D01*
G75*
G02*
X113916000Y-97392500I0J237500D01*
G01*
X113916000Y-96917500D01*
G75*
G02*
X114153500Y-96680000I237500J0D01*
G01*
X114753500Y-96680000D01*
G75*
G02*
X114991000Y-96917500I0J-237500D01*
G01*
G37*
%TD*%
%TO.C,C2*%
G36*
G01*
X116589000Y-95266500D02*
X116589000Y-95741500D01*
G75*
G02*
X116351500Y-95979000I-237500J0D01*
G01*
X115751500Y-95979000D01*
G75*
G02*
X115514000Y-95741500I0J237500D01*
G01*
X115514000Y-95266500D01*
G75*
G02*
X115751500Y-95029000I237500J0D01*
G01*
X116351500Y-95029000D01*
G75*
G02*
X116589000Y-95266500I0J-237500D01*
G01*
G37*
G36*
G01*
X114864000Y-95266500D02*
X114864000Y-95741500D01*
G75*
G02*
X114626500Y-95979000I-237500J0D01*
G01*
X114026500Y-95979000D01*
G75*
G02*
X113789000Y-95741500I0J237500D01*
G01*
X113789000Y-95266500D01*
G75*
G02*
X114026500Y-95029000I237500J0D01*
G01*
X114626500Y-95029000D01*
G75*
G02*
X114864000Y-95266500I0J-237500D01*
G01*
G37*
%TD*%
%TO.C,C4*%
G36*
G01*
X116687000Y-105951000D02*
X116687000Y-106901000D01*
G75*
G02*
X116437000Y-107151000I-250000J0D01*
G01*
X115762000Y-107151000D01*
G75*
G02*
X115512000Y-106901000I0J250000D01*
G01*
X115512000Y-105951000D01*
G75*
G02*
X115762000Y-105701000I250000J0D01*
G01*
X116437000Y-105701000D01*
G75*
G02*
X116687000Y-105951000I0J-250000D01*
G01*
G37*
G36*
G01*
X114612000Y-105951000D02*
X114612000Y-106901000D01*
G75*
G02*
X114362000Y-107151000I-250000J0D01*
G01*
X113687000Y-107151000D01*
G75*
G02*
X113437000Y-106901000I0J250000D01*
G01*
X113437000Y-105951000D01*
G75*
G02*
X113687000Y-105701000I250000J0D01*
G01*
X114362000Y-105701000D01*
G75*
G02*
X114612000Y-105951000I0J-250000D01*
G01*
G37*
%TD*%
%TO.C,C8*%
G36*
G01*
X116687000Y-98585000D02*
X116687000Y-99535000D01*
G75*
G02*
X116437000Y-99785000I-250000J0D01*
G01*
X115762000Y-99785000D01*
G75*
G02*
X115512000Y-99535000I0J250000D01*
G01*
X115512000Y-98585000D01*
G75*
G02*
X115762000Y-98335000I250000J0D01*
G01*
X116437000Y-98335000D01*
G75*
G02*
X116687000Y-98585000I0J-250000D01*
G01*
G37*
G36*
G01*
X114612000Y-98585000D02*
X114612000Y-99535000D01*
G75*
G02*
X114362000Y-99785000I-250000J0D01*
G01*
X113687000Y-99785000D01*
G75*
G02*
X113437000Y-99535000I0J250000D01*
G01*
X113437000Y-98585000D01*
G75*
G02*
X113687000Y-98335000I250000J0D01*
G01*
X114362000Y-98335000D01*
G75*
G02*
X114612000Y-98585000I0J-250000D01*
G01*
G37*
%TD*%
%TO.C,C16*%
G36*
G01*
X154289998Y-120457000D02*
X155590002Y-120457000D01*
G75*
G02*
X155840000Y-120706998I0J-249998D01*
G01*
X155840000Y-121532002D01*
G75*
G02*
X155590002Y-121782000I-249998J0D01*
G01*
X154289998Y-121782000D01*
G75*
G02*
X154040000Y-121532002I0J249998D01*
G01*
X154040000Y-120706998D01*
G75*
G02*
X154289998Y-120457000I249998J0D01*
G01*
G37*
G36*
G01*
X154289998Y-123582000D02*
X155590002Y-123582000D01*
G75*
G02*
X155840000Y-123831998I0J-249998D01*
G01*
X155840000Y-124657002D01*
G75*
G02*
X155590002Y-124907000I-249998J0D01*
G01*
X154289998Y-124907000D01*
G75*
G02*
X154040000Y-124657002I0J249998D01*
G01*
X154040000Y-123831998D01*
G75*
G02*
X154289998Y-123582000I249998J0D01*
G01*
G37*
%TD*%
%TO.C,C20*%
G36*
G01*
X115454000Y-104859002D02*
X115454000Y-102658998D01*
G75*
G02*
X115703998Y-102409000I249998J0D01*
G01*
X116529002Y-102409000D01*
G75*
G02*
X116779000Y-102658998I0J-249998D01*
G01*
X116779000Y-104859002D01*
G75*
G02*
X116529002Y-105109000I-249998J0D01*
G01*
X115703998Y-105109000D01*
G75*
G02*
X115454000Y-104859002I0J249998D01*
G01*
G37*
G36*
G01*
X112329000Y-104859002D02*
X112329000Y-102658998D01*
G75*
G02*
X112578998Y-102409000I249998J0D01*
G01*
X113404002Y-102409000D01*
G75*
G02*
X113654000Y-102658998I0J-249998D01*
G01*
X113654000Y-104859002D01*
G75*
G02*
X113404002Y-105109000I-249998J0D01*
G01*
X112578998Y-105109000D01*
G75*
G02*
X112329000Y-104859002I0J249998D01*
G01*
G37*
%TD*%
%TO.C,C21*%
G36*
G01*
X118533998Y-101953500D02*
X120734002Y-101953500D01*
G75*
G02*
X120984000Y-102203498I0J-249998D01*
G01*
X120984000Y-103028502D01*
G75*
G02*
X120734002Y-103278500I-249998J0D01*
G01*
X118533998Y-103278500D01*
G75*
G02*
X118284000Y-103028502I0J249998D01*
G01*
X118284000Y-102203498D01*
G75*
G02*
X118533998Y-101953500I249998J0D01*
G01*
G37*
G36*
G01*
X118533998Y-105078500D02*
X120734002Y-105078500D01*
G75*
G02*
X120984000Y-105328498I0J-249998D01*
G01*
X120984000Y-106153502D01*
G75*
G02*
X120734002Y-106403500I-249998J0D01*
G01*
X118533998Y-106403500D01*
G75*
G02*
X118284000Y-106153502I0J249998D01*
G01*
X118284000Y-105328498D01*
G75*
G02*
X118533998Y-105078500I249998J0D01*
G01*
G37*
%TD*%
D12*
%TO.C,C22*%
X139700000Y-82677000D03*
D11*
X139700000Y-77677000D03*
%TD*%
%TO.C,C24*%
X163830000Y-125142000D03*
D12*
X163830000Y-120142000D03*
%TD*%
%TO.C,C25*%
X152400000Y-120142000D03*
D11*
X152400000Y-125142000D03*
%TD*%
D14*
%TO.C,D1*%
X174625000Y-97917000D03*
D15*
X177165000Y-97917000D03*
%TD*%
%TO.C,D2*%
X182880000Y-97917000D03*
D14*
X185420000Y-97917000D03*
%TD*%
D16*
%TO.C,D3*%
X121920000Y-100585000D03*
D17*
X121920000Y-98210000D03*
%TD*%
%TO.C,D4*%
X122682000Y-105244000D03*
D16*
X122682000Y-102869000D03*
%TD*%
D18*
%TO.C,D5*%
G36*
X134994000Y-90296000D02*
G01*
X137294000Y-90296000D01*
X136694000Y-93896000D01*
X135594000Y-93896000D01*
X134994000Y-90296000D01*
G37*
G36*
X137294000Y-99696000D02*
G01*
X134994000Y-99696000D01*
X135594000Y-96096000D01*
X136694000Y-96096000D01*
X137294000Y-99696000D01*
G37*
%TD*%
%TO.C,D7*%
G36*
X137294000Y-112396000D02*
G01*
X134994000Y-112396000D01*
X135594000Y-108796000D01*
X136694000Y-108796000D01*
X137294000Y-112396000D01*
G37*
G36*
X134994000Y-102996000D02*
G01*
X137294000Y-102996000D01*
X136694000Y-106596000D01*
X135594000Y-106596000D01*
X134994000Y-102996000D01*
G37*
%TD*%
D19*
%TO.C,D9*%
X129778000Y-106492000D03*
X129778000Y-108392000D03*
X127778000Y-107442000D03*
%TD*%
D20*
%TO.C,J1*%
X166370000Y-85217000D03*
D21*
X166370000Y-79217000D03*
D22*
X170870000Y-78217000D03*
X161870000Y-78217000D03*
D23*
X166370000Y-76217000D03*
%TD*%
D24*
%TO.C,J2*%
X144526000Y-125222000D03*
D25*
X144526000Y-122682000D03*
%TD*%
D26*
%TO.C,J3*%
X199390000Y-77597000D03*
%TD*%
%TO.C,J4*%
X199390000Y-128397000D03*
%TD*%
%TO.C,J5*%
X97790000Y-77597000D03*
%TD*%
%TO.C,J6*%
X97790000Y-102997000D03*
%TD*%
D27*
%TO.C,Q1*%
X153035000Y-80137000D03*
D28*
X153035000Y-82677000D03*
X153035000Y-85217000D03*
%TD*%
D27*
%TO.C,Q2*%
X140970000Y-125222000D03*
D28*
X140970000Y-122682000D03*
X140970000Y-120142000D03*
%TD*%
D29*
%TO.C,Q7*%
X175260000Y-117094000D03*
X175260000Y-118364000D03*
D16*
X175260000Y-115824000D03*
%TD*%
%TO.C,R7*%
G36*
G01*
X133038001Y-106772000D02*
X132137999Y-106772000D01*
G75*
G02*
X131888000Y-106522001I0J249999D01*
G01*
X131888000Y-105821999D01*
G75*
G02*
X132137999Y-105572000I249999J0D01*
G01*
X133038001Y-105572000D01*
G75*
G02*
X133288000Y-105821999I0J-249999D01*
G01*
X133288000Y-106522001D01*
G75*
G02*
X133038001Y-106772000I-249999J0D01*
G01*
G37*
G36*
G01*
X133038001Y-108772000D02*
X132137999Y-108772000D01*
G75*
G02*
X131888000Y-108522001I0J249999D01*
G01*
X131888000Y-107821999D01*
G75*
G02*
X132137999Y-107572000I249999J0D01*
G01*
X133038001Y-107572000D01*
G75*
G02*
X133288000Y-107821999I0J-249999D01*
G01*
X133288000Y-108522001D01*
G75*
G02*
X133038001Y-108772000I-249999J0D01*
G01*
G37*
%TD*%
%TO.C,R16*%
G36*
G01*
X160204999Y-118002000D02*
X161105001Y-118002000D01*
G75*
G02*
X161355000Y-118251999I0J-249999D01*
G01*
X161355000Y-118952001D01*
G75*
G02*
X161105001Y-119202000I-249999J0D01*
G01*
X160204999Y-119202000D01*
G75*
G02*
X159955000Y-118952001I0J249999D01*
G01*
X159955000Y-118251999D01*
G75*
G02*
X160204999Y-118002000I249999J0D01*
G01*
G37*
G36*
G01*
X160204999Y-116002000D02*
X161105001Y-116002000D01*
G75*
G02*
X161355000Y-116251999I0J-249999D01*
G01*
X161355000Y-116952001D01*
G75*
G02*
X161105001Y-117202000I-249999J0D01*
G01*
X160204999Y-117202000D01*
G75*
G02*
X159955000Y-116952001I0J249999D01*
G01*
X159955000Y-116251999D01*
G75*
G02*
X160204999Y-116002000I249999J0D01*
G01*
G37*
%TD*%
%TO.C,R17*%
G36*
G01*
X175876000Y-95053999D02*
X175876000Y-95954001D01*
G75*
G02*
X175626001Y-96204000I-249999J0D01*
G01*
X174925999Y-96204000D01*
G75*
G02*
X174676000Y-95954001I0J249999D01*
G01*
X174676000Y-95053999D01*
G75*
G02*
X174925999Y-94804000I249999J0D01*
G01*
X175626001Y-94804000D01*
G75*
G02*
X175876000Y-95053999I0J-249999D01*
G01*
G37*
G36*
G01*
X177876000Y-95053999D02*
X177876000Y-95954001D01*
G75*
G02*
X177626001Y-96204000I-249999J0D01*
G01*
X176925999Y-96204000D01*
G75*
G02*
X176676000Y-95954001I0J249999D01*
G01*
X176676000Y-95053999D01*
G75*
G02*
X176925999Y-94804000I249999J0D01*
G01*
X177626001Y-94804000D01*
G75*
G02*
X177876000Y-95053999I0J-249999D01*
G01*
G37*
%TD*%
%TO.C,R18*%
G36*
G01*
X182296000Y-95954001D02*
X182296000Y-95053999D01*
G75*
G02*
X182545999Y-94804000I249999J0D01*
G01*
X183246001Y-94804000D01*
G75*
G02*
X183496000Y-95053999I0J-249999D01*
G01*
X183496000Y-95954001D01*
G75*
G02*
X183246001Y-96204000I-249999J0D01*
G01*
X182545999Y-96204000D01*
G75*
G02*
X182296000Y-95954001I0J249999D01*
G01*
G37*
G36*
G01*
X184296000Y-95954001D02*
X184296000Y-95053999D01*
G75*
G02*
X184545999Y-94804000I249999J0D01*
G01*
X185246001Y-94804000D01*
G75*
G02*
X185496000Y-95053999I0J-249999D01*
G01*
X185496000Y-95954001D01*
G75*
G02*
X185246001Y-96204000I-249999J0D01*
G01*
X184545999Y-96204000D01*
G75*
G02*
X184296000Y-95954001I0J249999D01*
G01*
G37*
%TD*%
%TO.C,R19*%
G36*
G01*
X112210001Y-99644000D02*
X111309999Y-99644000D01*
G75*
G02*
X111060000Y-99394001I0J249999D01*
G01*
X111060000Y-98693999D01*
G75*
G02*
X111309999Y-98444000I249999J0D01*
G01*
X112210001Y-98444000D01*
G75*
G02*
X112460000Y-98693999I0J-249999D01*
G01*
X112460000Y-99394001D01*
G75*
G02*
X112210001Y-99644000I-249999J0D01*
G01*
G37*
G36*
G01*
X112210001Y-97644000D02*
X111309999Y-97644000D01*
G75*
G02*
X111060000Y-97394001I0J249999D01*
G01*
X111060000Y-96693999D01*
G75*
G02*
X111309999Y-96444000I249999J0D01*
G01*
X112210001Y-96444000D01*
G75*
G02*
X112460000Y-96693999I0J-249999D01*
G01*
X112460000Y-97394001D01*
G75*
G02*
X112210001Y-97644000I-249999J0D01*
G01*
G37*
%TD*%
%TO.C,R28*%
G36*
G01*
X147123999Y-126654000D02*
X148024001Y-126654000D01*
G75*
G02*
X148274000Y-126903999I0J-249999D01*
G01*
X148274000Y-127604001D01*
G75*
G02*
X148024001Y-127854000I-249999J0D01*
G01*
X147123999Y-127854000D01*
G75*
G02*
X146874000Y-127604001I0J249999D01*
G01*
X146874000Y-126903999D01*
G75*
G02*
X147123999Y-126654000I249999J0D01*
G01*
G37*
G36*
G01*
X147123999Y-124654000D02*
X148024001Y-124654000D01*
G75*
G02*
X148274000Y-124903999I0J-249999D01*
G01*
X148274000Y-125604001D01*
G75*
G02*
X148024001Y-125854000I-249999J0D01*
G01*
X147123999Y-125854000D01*
G75*
G02*
X146874000Y-125604001I0J249999D01*
G01*
X146874000Y-124903999D01*
G75*
G02*
X147123999Y-124654000I249999J0D01*
G01*
G37*
%TD*%
%TO.C,R32*%
G36*
G01*
X118294999Y-99857000D02*
X119195001Y-99857000D01*
G75*
G02*
X119445000Y-100106999I0J-249999D01*
G01*
X119445000Y-100807001D01*
G75*
G02*
X119195001Y-101057000I-249999J0D01*
G01*
X118294999Y-101057000D01*
G75*
G02*
X118045000Y-100807001I0J249999D01*
G01*
X118045000Y-100106999D01*
G75*
G02*
X118294999Y-99857000I249999J0D01*
G01*
G37*
G36*
G01*
X118294999Y-97857000D02*
X119195001Y-97857000D01*
G75*
G02*
X119445000Y-98106999I0J-249999D01*
G01*
X119445000Y-98807001D01*
G75*
G02*
X119195001Y-99057000I-249999J0D01*
G01*
X118294999Y-99057000D01*
G75*
G02*
X118045000Y-98807001I0J249999D01*
G01*
X118045000Y-98106999D01*
G75*
G02*
X118294999Y-97857000I249999J0D01*
G01*
G37*
%TD*%
%TO.C,R33*%
G36*
G01*
X160204999Y-123257000D02*
X161105001Y-123257000D01*
G75*
G02*
X161355000Y-123506999I0J-249999D01*
G01*
X161355000Y-124207001D01*
G75*
G02*
X161105001Y-124457000I-249999J0D01*
G01*
X160204999Y-124457000D01*
G75*
G02*
X159955000Y-124207001I0J249999D01*
G01*
X159955000Y-123506999D01*
G75*
G02*
X160204999Y-123257000I249999J0D01*
G01*
G37*
G36*
G01*
X160204999Y-125257000D02*
X161105001Y-125257000D01*
G75*
G02*
X161355000Y-125506999I0J-249999D01*
G01*
X161355000Y-126207001D01*
G75*
G02*
X161105001Y-126457000I-249999J0D01*
G01*
X160204999Y-126457000D01*
G75*
G02*
X159955000Y-126207001I0J249999D01*
G01*
X159955000Y-125506999D01*
G75*
G02*
X160204999Y-125257000I249999J0D01*
G01*
G37*
%TD*%
%TO.C,R34*%
G36*
G01*
X113462000Y-101542001D02*
X113462000Y-100641999D01*
G75*
G02*
X113711999Y-100392000I249999J0D01*
G01*
X114412001Y-100392000D01*
G75*
G02*
X114662000Y-100641999I0J-249999D01*
G01*
X114662000Y-101542001D01*
G75*
G02*
X114412001Y-101792000I-249999J0D01*
G01*
X113711999Y-101792000D01*
G75*
G02*
X113462000Y-101542001I0J249999D01*
G01*
G37*
G36*
G01*
X115462000Y-101542001D02*
X115462000Y-100641999D01*
G75*
G02*
X115711999Y-100392000I249999J0D01*
G01*
X116412001Y-100392000D01*
G75*
G02*
X116662000Y-100641999I0J-249999D01*
G01*
X116662000Y-101542001D01*
G75*
G02*
X116412001Y-101792000I-249999J0D01*
G01*
X115711999Y-101792000D01*
G75*
G02*
X115462000Y-101542001I0J249999D01*
G01*
G37*
%TD*%
%TO.C,R35*%
G36*
G01*
X150310001Y-123520000D02*
X149409999Y-123520000D01*
G75*
G02*
X149160000Y-123270001I0J249999D01*
G01*
X149160000Y-122569999D01*
G75*
G02*
X149409999Y-122320000I249999J0D01*
G01*
X150310001Y-122320000D01*
G75*
G02*
X150560000Y-122569999I0J-249999D01*
G01*
X150560000Y-123270001D01*
G75*
G02*
X150310001Y-123520000I-249999J0D01*
G01*
G37*
G36*
G01*
X150310001Y-121520000D02*
X149409999Y-121520000D01*
G75*
G02*
X149160000Y-121270001I0J249999D01*
G01*
X149160000Y-120569999D01*
G75*
G02*
X149409999Y-120320000I249999J0D01*
G01*
X150310001Y-120320000D01*
G75*
G02*
X150560000Y-120569999I0J-249999D01*
G01*
X150560000Y-121270001D01*
G75*
G02*
X150310001Y-121520000I-249999J0D01*
G01*
G37*
%TD*%
%TO.C,R36*%
G36*
G01*
X157664999Y-123082000D02*
X158565001Y-123082000D01*
G75*
G02*
X158815000Y-123331999I0J-249999D01*
G01*
X158815000Y-124032001D01*
G75*
G02*
X158565001Y-124282000I-249999J0D01*
G01*
X157664999Y-124282000D01*
G75*
G02*
X157415000Y-124032001I0J249999D01*
G01*
X157415000Y-123331999D01*
G75*
G02*
X157664999Y-123082000I249999J0D01*
G01*
G37*
G36*
G01*
X157664999Y-121082000D02*
X158565001Y-121082000D01*
G75*
G02*
X158815000Y-121331999I0J-249999D01*
G01*
X158815000Y-122032001D01*
G75*
G02*
X158565001Y-122282000I-249999J0D01*
G01*
X157664999Y-122282000D01*
G75*
G02*
X157415000Y-122032001I0J249999D01*
G01*
X157415000Y-121331999D01*
G75*
G02*
X157664999Y-121082000I249999J0D01*
G01*
G37*
%TD*%
D15*
%TO.C,RV1*%
X187245000Y-116332000D03*
X184745000Y-116332000D03*
X182245000Y-116332000D03*
D30*
X189145000Y-123332000D03*
X180345000Y-123332000D03*
%TD*%
D25*
%TO.C,TH1*%
X198120000Y-117602000D03*
D24*
X198120000Y-120142000D03*
%TD*%
D28*
%TO.C,U1*%
X175895000Y-85217000D03*
X175895000Y-82677000D03*
D27*
X175895000Y-80137000D03*
%TD*%
D31*
%TO.C,R3*%
X121285000Y-131572000D03*
D32*
X121285000Y-111252000D03*
%TD*%
D31*
%TO.C,R4*%
X113665000Y-131572000D03*
D32*
X113665000Y-111252000D03*
%TD*%
%TO.C,R5*%
X106045000Y-111252000D03*
D31*
X106045000Y-131572000D03*
%TD*%
D32*
%TO.C,R6*%
X93345000Y-111252000D03*
D31*
X93345000Y-131572000D03*
%TD*%
M02*
