M48
; DRILL file {KiCad (5.1.9)-1} date 12/04/22 20:32:49
; FORMAT={-:-/ absolute / inch / decimal}
; #@! TF.CreationDate,2022-12-04T20:32:49-06:00
; #@! TF.GenerationSoftware,Kicad,Pcbnew,(5.1.9)-1
; #@! TF.FileFunction,Plated,1,2,PTH
FMAT,2
INCH
T1C0.0157
T2C0.0295
T3C0.0354
T4C0.0394
T5C0.0433
T6C0.0472
T7C0.0906
T8C0.0984
T9C0.1102
T10C0.1181
T11C0.2402
%
G90
G05
T1
X4.4485Y-4.085
X4.45Y-4.1913
X4.47Y-3.92
X4.485Y-3.4
X4.485Y-3.44
X4.485Y-3.48
X4.4906Y-3.98
X4.506Y-3.825
X4.51Y-3.58
X4.51Y-3.625
X4.51Y-3.675
X4.535Y-4.26
X4.58Y-4.26
X4.675Y-3.8763
X4.675Y-3.955
X4.675Y-4.005
X4.6875Y-4.1675
X4.7094Y-4.0394
X4.725Y-3.915
X4.7275Y-4.1675
X4.745Y-4.26
X4.79Y-4.26
X4.8094Y-3.505
X4.81Y-3.45
X4.88Y-3.8915
X4.89Y-4.13
X4.915Y-3.45
X4.92Y-3.5263
X4.95Y-3.82
X4.95Y-3.89
X4.95Y-3.93
X4.97Y-4.13
X4.98Y-3.79
X5.01Y-3.705
X5.05Y-3.56
X5.05Y-3.705
X5.06Y-4.06
X5.08Y-4.255
X5.0911Y-3.705
X5.0958Y-3.56
X5.1058Y-4.06
X5.145Y-3.56
X5.155Y-4.06
X5.315Y-4.305
X5.315Y-4.355
X5.335Y-3.545
X5.335Y-3.585
X5.34Y-3.805
X5.34Y-3.855
X5.34Y-4.035
X5.34Y-4.08
X5.36Y-4.3
X5.36Y-4.3542
X5.38Y-3.54
X5.38Y-3.585
X5.385Y-3.805
X5.385Y-3.855
X5.385Y-4.035
X5.385Y-4.08
X5.435Y-4.52
X5.5Y-4.475
X6.1775Y-3.7275
X6.2125Y-3.7625
X6.245Y-3.795
X6.56Y-4.23
X6.6963Y-4.68
X6.6963Y-5.055
X6.775Y-4.555
X6.775Y-4.68
X6.7817Y-4.805
X6.7817Y-4.93
X6.875Y-4.9337
X6.875Y-5.055
X6.9Y-3.76
X6.97Y-4.23
X6.97Y-4.33
X7.12Y-3.28
X7.12Y-4.28
X7.18Y-3.28
X7.27Y-3.28
X7.2794Y-3.76
X7.303Y-4.13
X7.33Y-3.28
X7.42Y-3.28
X7.48Y-3.28
X7.575Y-3.7325
X7.58Y-3.23
X7.7337Y-3.8825
X7.92Y-4.82
T2
X6.9Y-4.56
X6.9Y-4.61
X6.9Y-4.66
T3
X6.875Y-3.855
X6.975Y-3.855
X7.2Y-3.855
X7.3Y-3.855
T4
X4.9Y-3.0581
X4.9Y-3.255
X5.5Y-3.0581
X5.5Y-3.255
X5.69Y-4.83
X5.69Y-4.93
X6.0Y-4.73
X6.0Y-4.9269
X6.45Y-4.73
X6.45Y-4.9269
X7.175Y-4.58
X7.2734Y-4.58
X7.3719Y-4.58
X7.8Y-4.63
X7.8Y-4.73
T5
X5.55Y-4.73
X5.55Y-4.83
X5.55Y-4.93
X6.025Y-3.155
X6.025Y-3.255
X6.025Y-3.355
X6.925Y-3.155
X6.925Y-3.255
X6.925Y-3.355
X7.445Y-4.0778
X7.445Y-4.4322
X7.5257Y-4.1369
X7.5257Y-4.255
X7.5257Y-4.3731
X7.7343Y-4.1369
X7.7343Y-4.255
X7.7343Y-4.3731
X7.815Y-4.0778
X7.815Y-4.4322
T6
X3.675Y-4.38
X3.675Y-5.18
X4.175Y-4.38
X4.175Y-5.18
X4.475Y-4.38
X4.475Y-5.18
X4.775Y-4.38
X4.775Y-5.18
T7
X6.55Y-3.1188
T8
X6.3728Y-3.0794
X6.7272Y-3.0794
T9
X3.85Y-3.055
X3.85Y-4.055
X7.85Y-3.055
X7.85Y-5.055
T10
X6.55Y-3.355
T11
X3.9451Y-4.83
X5.125Y-4.83
T0
M30
